<?xml version="1.0" encoding="UTF-8" standalone="no"?>
<svg
   width="512"
   height="512"
   fill="none"
   viewBox="0 0 512 512"
   version="1.1"
   id="svg7"
   sodipodi:docname="base_named.svg"
   inkscape:version="1.4.2 (ebf0e940d0, 2025-05-08)"
   xmlns:inkscape="http://www.inkscape.org/namespaces/inkscape"
   xmlns:sodipodi="http://sodipodi.sourceforge.net/DTD/sodipodi-0.dtd"
   xmlns:xlink="http://www.w3.org/1999/xlink"
   xmlns="http://www.w3.org/2000/svg"
   xmlns:svg="http://www.w3.org/2000/svg">
  <defs
     id="defs7">
    <linearGradient
       id="linearGradient24"
       inkscape:collect="always">
      <stop
         style="stop-color:#f71baa;stop-opacity:0.56623769;"
         offset="0"
         id="stop24" />
      <stop
         style="stop-color:#fa87d4;stop-opacity:0.25;"
         offset="1"
         id="stop25" />
    </linearGradient>
    <rect
       x="22.627417"
       y="402.76802"
       width="521.34025"
       height="248.94868"
       id="rect24" />
    <linearGradient
       id="linearGradient1"
       inkscape:collect="always">
      <stop
         style="stop-color:#fe00b1;stop-opacity:1;"
         offset="0"
         id="stop1" />
      <stop
         style="stop-color:#fe00b1;stop-opacity:0;"
         offset="1"
         id="stop2" />
    </linearGradient>
    <linearGradient
       id="linearGradient11"
       inkscape:collect="always">
      <stop
         style="stop-color:#ff0950;stop-opacity:0.5;"
         offset="0"
         id="stop11" />
      <stop
         style="stop-color:#bf42f6;stop-opacity:0.75;"
         offset="0.49556771"
         id="stop20" />
      <stop
         style="stop-color:#5da5ed;stop-opacity:1;"
         offset="1"
         id="stop12" />
    </linearGradient>
    <linearGradient
       inkscape:collect="always"
       xlink:href="#linearGradient11"
       id="linearGradient12"
       x1="270.39996"
       y1="39.999989"
       x2="270.39996"
       y2="494.39996"
       gradientUnits="userSpaceOnUse"
       spreadMethod="reflect" />
    <linearGradient
       inkscape:collect="always"
       xlink:href="#linearGradient1"
       id="linearGradient2"
       x1="125.40197"
       y1="271.834"
       x2="431.02424"
       y2="271.834"
       gradientUnits="userSpaceOnUse" />
    <linearGradient
       inkscape:collect="always"
       xlink:href="#linearGradient24"
       id="linearGradient25"
       x1="270.39996"
       y1="33.58408"
       x2="270.39996"
       y2="500.81589"
       gradientUnits="userSpaceOnUse" />
    <filter
       inkscape:label="Light Contour"
       inkscape:menu="Image Paint and Draw"
       inkscape:menu-tooltip="Uses vertical specular light to draw lines"
       style="color-interpolation-filters:sRGB;"
       id="filter11"
       x="-0.024794791"
       y="-0.071442053"
       width="1.0494277"
       height="1.1421972">
      <feGaussianBlur
         in="SourceGraphic"
         stdDeviation="1.5"
         result="result3"
         id="feGaussianBlur9" />
      <feComponentTransfer
         result="result1"
         in="result3"
         id="feComponentTransfer9">
        <feFuncR
           type="discrete"
           tableValues="0 0.1 0.2 0.3 0.4 0.5 0.6 0.7 0.8 0.9 1"
           id="feFuncR9" />
        <feFuncG
           type="discrete"
           tableValues="0 0.1 0.2 0.3 0.4 0.5 0.6 0.7 0.8 0.9 1"
           id="feFuncG9" />
        <feFuncB
           type="discrete"
           tableValues="0 0.1 0.2 0.3 0.4 0.5 0.6 0.7 0.8 0.9 1"
           id="feFuncB9" />
      </feComponentTransfer>
      <feGaussianBlur
         result="result5"
         stdDeviation="0.01"
         id="feGaussianBlur10" />
      <feBlend
         in2="result5"
         result="result6"
         mode="lighten"
         in="result5"
         id="feBlend10" />
      <feColorMatrix
         in="result6"
         type="luminanceToAlpha"
         result="result2"
         id="feColorMatrix10" />
      <feSpecularLighting
         surfaceScale="5"
         result="result9"
         specularExponent="20"
         in="result2"
         specularConstant="1"
         id="feSpecularLighting10">
        <feDistantLight
           azimuth="180"
           elevation="90"
           id="feDistantLight10" />
      </feSpecularLighting>
      <feComposite
         in2="result6"
         operator="arithmetic"
         in="result9"
         k1="0.4"
         k3="0.7"
         result="result3"
         id="feComposite10" />
      <feBlend
         in2="result1"
         in="result3"
         mode="normal"
         result="result8"
         id="feBlend11" />
      <feComposite
         in2="SourceGraphic"
         in="result8"
         operator="in"
         result="result7"
         id="feComposite11" />
    </filter>
  </defs>
  <sodipodi:namedview
     id="namedview7"
     pagecolor="#ffffff"
     bordercolor="#000000"
     borderopacity="0.25"
     inkscape:showpageshadow="2"
     inkscape:pageopacity="0.0"
     inkscape:pagecheckerboard="0"
     inkscape:deskcolor="#d1d1d1"
     inkscape:zoom="0.88388348"
     inkscape:cx="298.11622"
     inkscape:cy="282.84271"
     inkscape:window-width="1600"
     inkscape:window-height="849"
     inkscape:window-x="0"
     inkscape:window-y="27"
     inkscape:window-maximized="1"
     inkscape:current-layer="svg7" />
  <circle
     style="fill:url(#linearGradient12);fill-opacity:1;stroke-width:12.8318;stroke-opacity:0.56623769;paint-order:stroke fill markers;stroke:url(#linearGradient25)"
     id="path8"
     cx="270.39996"
     cy="267.19998"
     r="227.2" />
  <path
     id="rect1-3"
     style="fill:#ffffff;fill-opacity:0.5;stroke:none;stroke-width:16;stroke-dasharray:none;stroke-opacity:1;paint-order:stroke fill markers"
     d="M 83.373047 138.19922 A 227.2 227.2 0 0 0 73.292969 154.19922 L 467.50586 154.19922 A 227.2 227.2 0 0 0 457.42578 138.19922 L 83.373047 138.19922 z " />
  <path
     style="fill:#ff2bd5;fill-opacity:1;stroke-width:13.374;stroke-opacity:0.415999;paint-order:stroke fill markers"
     d="m 235.89082,496.10612 -9.61665,-52.04306"
     id="path9" />
  <path
     id="rect1-2"
     style="fill:#ffffff;fill-opacity:0.5;stroke:none;stroke-width:16;stroke-dasharray:none;stroke-opacity:1;paint-order:stroke fill markers"
     d="M 85.763672 399.59961 A 227.2 227.2 0 0 0 98.359375 415.59961 L 442.43945 415.59961 A 227.2 227.2 0 0 0 455.03516 399.59961 L 85.763672 399.59961 z " />
  <path
     id="rect1-2-5"
     style="fill:#ffffff;fill-opacity:0.5;stroke:none;stroke-width:16;stroke-dasharray:none;stroke-opacity:1;paint-order:stroke fill markers"
     d="M 54.447266 337.80078 A 227.2 227.2 0 0 0 60.351562 353.80078 L 480.44727 353.80078 A 227.2 227.2 0 0 0 486.35156 337.80078 L 54.447266 337.80078 z " />
  <path
     id="rect1"
     style="fill:#ffffff;fill-opacity:0.5;stroke:none;stroke-width:16;stroke-dasharray:none;stroke-opacity:1;paint-order:stroke fill markers"
     d="M 43.267578 272.80078 A 227.2 227.2 0 0 0 44.228516 288.80078 L 496.57031 288.80078 A 227.2 227.2 0 0 0 497.53125 272.80078 L 43.267578 272.80078 z " />
  <path
     id="path15"
     style="fill:url(#linearGradient2);fill-opacity:1;stroke:#ffffff;stroke-width:16;stroke-linejoin:round;stroke-dasharray:none;stroke-dashoffset:0;stroke-opacity:1;paint-order:stroke fill markers"
     d="M 316.40039 43.199219 C 316.40039 43.199219 305.47034 82.296213 299.93359 102.13867 C 288.10777 111.40757 280.33008 120.08203 280.33008 120.08203 C 280.33008 120.08203 258.976 89.818923 238.61133 77.232422 C 218.24665 64.645922 190.80078 66.267578 190.80078 66.267578 C 190.80078 66.267578 179.39961 66.267969 165.59961 71.667969 C 151.79961 77.067969 146.19922 80.667969 146.19922 80.667969 C 146.19922 80.667969 160.20078 80.267578 180.80078 87.267578 C 201.40078 94.267578 210.40039 98.46875 210.40039 98.46875 L 238.69922 92.068359 L 231 102.86914 C 231 102.86914 244.50078 111.56914 251.80078 119.36914 C 259.10078 127.16914 262.5 131.56836 262.5 131.56836 C 262.5 131.56836 249.80078 126.26914 210.80078 129.86914 C 171.80078 133.46914 133.40039 184.86914 133.40039 184.86914 C 133.40039 184.86914 170.99922 169.26836 193.19922 164.06836 C 215.39922 158.86836 236.59961 156.26758 236.59961 156.26758 C 236.59961 156.26758 219.80078 163.46797 201.80078 193.66797 C 183.80078 223.86797 189 271.86914 189 271.86914 C 189 271.86914 217.6 214.26914 245 194.86914 C 272.4 175.46914 278 174.86914 278 174.86914 C 278 174.86914 256.00039 222.06914 247.40039 297.86914 C 238.80039 373.66914 275 500.46875 275 500.46875 L 318.59961 493.66797 C 318.59961 493.66797 277.00039 452.46836 273.40039 346.06836 C 269.80039 239.66836 288.59961 176.06836 288.59961 176.06836 C 288.59961 176.06836 304.20039 177.26836 327.40039 208.06836 C 350.60039 238.86836 364.19922 264.06836 364.19922 264.06836 C 364.19922 264.06836 373.00078 214.06758 353.80078 191.26758 C 334.60078 168.46758 305 158.46875 305 158.46875 C 305 158.46875 317.50039 151.96914 343.40039 153.86914 C 369.30039 155.76914 423.02539 180.32813 423.02539 180.32812 C 423.02539 180.32812 408.60049 155.437 374.80078 138.18359 C 341.00108 120.93019 300.59961 138.46875 300.59961 138.46875 C 300.59961 138.46875 304.37178 123.47562 327.14062 106.64648 C 349.90947 89.817344 379.04297 73.130859 379.04297 73.130859 C 379.04297 73.130859 355.00164 74.262539 328.69727 84.869141 C 322.15236 87.508217 315.87012 91.013117 310.125 94.791016 L 326 45 L 316.40039 43.199219 z " />
  <path
     style="baseline-shift:baseline;display:inline;overflow:visible;fill:#c45fff;paint-order:stroke fill markers;enable-background:accumulate;stop-color:#000000;stop-opacity:1;opacity:1;fill-opacity:1;stroke:#d8aaff;stroke-opacity:0.75;stroke-width:16;stroke-dasharray:none;filter:url(#filter11);stroke-linejoin:round"
     d="m 149.36328,307.45703 c -5.68939,-0.13317 -12.53099,1.14827 -19.82617,3.4707 -9.7269,3.09658 -20.15348,8.15654 -28.94727,14.89844 -8.385244,6.42869 -13.99503,9.80956 -18.27734,12.98438 -4.28231,3.17481 -7.307561,6.39732 -9.460938,11.62695 -2.015007,4.89359 -3.800163,9.83359 -4.392578,14.33594 -0.296207,2.25117 -0.304363,4.41971 0.269532,6.46679 0.573894,2.04709 1.851905,3.9775 3.783203,5.19727 2.832803,1.78914 8.316003,4.90082 14.517578,7.0918 1.017275,0.35939 2.078509,0.64786 3.130859,0.95312 -3.064754,1.26731 -6.182287,2.52609 -9.089844,3.88477 -4.228159,1.97578 -7.841308,3.83236 -10.173828,5.67383 -3.597417,2.84006 -9.445491,6.60402 -14.736328,10.18164 -2.645418,1.7888 -5.159152,3.53702 -7.246094,5.16601 -2.086941,1.62899 -3.733038,3.00432 -4.833984,4.73438 -1.065637,1.67457 -4.697237,5.75909 -7.919922,10.28125 -3.222684,4.52215 -6.368138,9.65191 -6.107422,15.12695 0.208089,4.36987 0.845698,10.1389 3.341797,15.35547 2.496099,5.21657 7.198642,9.89444 14.587891,11.03125 12.390409,1.90622 32.645201,9.49632 68.451168,-1.89649 33.23197,-10.5738 50.07003,-30.66786 52.5586,-33.79882 0.87425,0.0388 1.95115,0.0591 3.36914,-0.0977 0.91042,-0.10068 2.22436,-0.42388 3.38281,-0.65625 2.26066,1.13837 4.61908,1.72071 7.12695,1.62695 4.41677,-0.16511 9.13724,-1.74122 16.03125,-3.71093 8.21254,-2.34645 15.6964,-10.22272 22.88086,-15.23829 3.59223,-2.50778 6.99869,-4.24527 9.76758,-4.56054 2.7689,-0.31527 5.01818,0.35267 7.75977,3.64258 6.18972,7.42767 7.33756,10.90996 8.88281,13.45507 0.38631,0.63628 0.84977,1.30892 1.62109,1.87891 0.77132,0.56999 1.7999,0.87648 2.67578,0.92383 1.75178,0.0947 3.19426,-0.34714 5.66602,-0.91211 5.40453,-1.23532 24.09573,-6.84138 43.40234,-13.07617 2.08329,-0.67277 3.86363,-1.32477 5.9375,-2.00586 -0.0214,0.64311 -0.19493,1.26998 -0.11132,1.92187 0.4019,3.13369 2.23746,6.13447 5.3789,8.44922 5.35547,3.94613 9.45587,7.13979 14.60547,8.81641 5.1496,1.67661 11.0326,1.6062 19.36133,-0.43946 7.52095,-1.84725 12.81252,-0.52946 19.92383,-2.5332 4.25382,-1.19859 8.92519,-3.90736 14.52148,-8.73828 -0.31553,0.38404 -0.74706,0.84879 -0.99805,1.19727 -0.31349,0.43527 -0.5822,0.83751 -0.82031,1.36132 -0.23811,0.52381 -0.66141,1.27408 -0.18945,2.60938 0.23598,0.66765 0.82187,1.32482 1.38867,1.63867 0.5668,0.31385 1.05336,0.38101 1.43359,0.40234 0.76047,0.0427 1.24432,-0.0885 1.78125,-0.23632 1.07388,-0.29572 2.27322,-0.79198 3.88672,-1.52539 3.81931,-1.73606 8.07745,-5.38257 13.05664,-9.875 4.9792,-4.49244 10.51221,-9.82261 16.0293,-14.76172 5.51709,-4.93911 11.03837,-9.48407 15.7832,-12.3418 4.74484,-2.85773 8.44391,-3.67929 10.33399,-2.875 3.32344,1.41423 6.21067,1.4429 8.60547,1.00195 -0.76788,1.87305 -1.24827,2.87756 -2.47852,6.28125 -4.25152,11.76254 -6.89219,19.2642 -7.26367,24.75391 -0.18574,2.74485 0.27761,5.31372 2.00195,7.14258 1.72435,1.82885 4.16205,2.45146 6.83203,2.61328 5.60031,0.33941 13.48307,-1.71372 21.21875,-4.38867 7.73569,-2.67496 14.93454,-5.8743 18.82618,-8.91993 1.10394,-0.86395 1.84288,-1.19905 2.54296,-1.5332 -0.26455,1.06334 -0.77354,2.53493 -1.85937,4.58594 l 4.86133,2.57422 c 1.35017,-2.55032 2.19569,-4.6553 2.57617,-6.5293 0.38048,-1.874 0.43061,-3.87067 -1.08399,-5.4375 -1.51459,-1.56683 -3.73847,-1.46109 -5.38085,-0.91992 -1.64239,0.54117 -3.25906,1.53205 -5.04493,2.92969 -2.61375,2.04554 -9.83797,5.49315 -17.23437,8.05078 -7.3964,2.55763 -15.35439,4.32393 -19.08789,4.09765 -1.99693,-0.12102 -2.84664,-0.55982 -3.16406,-0.89648 -0.31743,-0.33666 -0.65004,-1.03869 -0.51758,-2.99609 0.26491,-3.91481 2.71546,-11.54442 6.94922,-23.25782 2.09891,-5.807 3.47009,-8.95803 4.19336,-10.63086 0.18081,-0.4182 0.32285,-0.74414 0.4414,-1.04101 0.11856,-0.29687 0.25799,-0.36556 0.33594,-1.2461 0.0195,-0.22013 0.0467,-0.52142 -0.0859,-1.01171 -0.13266,-0.4903 -0.5591,-1.24639 -1.25781,-1.66602 -1.39742,-0.83927 -2.25331,-0.30397 -2.58789,-0.16016 -0.66916,0.28763 -0.71073,0.40742 -0.89649,0.54297 -0.74301,0.5422 -1.6508,1.23648 -3.11328,1.64649 -1.46247,0.41001 -3.37854,0.54383 -6.17578,-0.64649 -4.75672,-2.02414 -10.00162,0.0169 -15.32422,3.22266 -5.32259,3.20571 -10.99344,7.92398 -16.61328,12.95508 -5.61984,5.03109 -11.16881,10.37791 -16.04492,14.77734 -1.05442,0.95134 -1.9277,1.62363 -2.91992,2.47266 3.8413,-4.14163 8.25687,-9.01023 13.19922,-15.00586 8.73543,-10.59708 11.61876,-15.73197 12.28711,-19.4336 0.33417,-1.85081 -0.19834,-3.81577 -1.41016,-4.80859 -0.72034,-0.59016 -1.41314,-0.76845 -1.94336,-0.83984 -0.0667,-0.0123 -0.23047,-0.041 -0.23047,-0.041 0,0 -0.16797,-0.0176 -0.16797,-0.0176 v 0.0234 c -0.0803,-8.6e-4 -0.30664,-0.0273 -0.30664,-0.0273 l 0.11328,5.45703 c -0.1062,0.005 -0.52472,0.0486 -0.95117,-0.30078 -0.47819,-0.39178 -0.39213,-1.1186 -0.51758,-0.42383 -0.006,0.0314 -0.10347,0.19518 -0.11132,0.23047 -0.18893,-0.16629 -0.56649,-0.5001 -0.56641,-0.5 1e-4,1.2e-4 -0.42586,-0.74631 -0.42578,-0.7461 8e-5,2.2e-4 -0.15434,-0.63315 -0.1543,-0.63281 4e-5,3.4e-4 -0.0235,-0.33276 -0.0176,-0.46094 0.0118,-0.25635 0.0485,-0.42454 0.082,-0.55468 0.13402,-0.52059 0.2175,-0.56797 0.25586,-0.63477 0.0767,-0.1336 0.0321,-0.0503 -0.10351,0.13477 -0.27119,0.37013 -0.94704,1.24716 -2.38281,3.01562 -2.87156,3.53692 -8.80357,10.67172 -20.95899,24.94727 -12.00449,14.0983 -18.95135,18.49905 -24.63867,20.10156 -5.68732,1.6025 -11.14306,0.37378 -19.74414,2.48633 -7.79331,1.91414 -12.37558,1.84401 -16.34766,0.55078 -3.97208,-1.29324 -7.6504,-4.04021 -13.04297,-8.01367 -2.23256,-1.64505 -2.97757,-3.0991 -3.18554,-4.72071 -0.11792,-0.91941 0.0361,-1.99243 0.34765,-3.14453 5.43795,-1.81864 11.19143,-3.68064 15.88282,-5.36328 8.12687,-2.91483 14.53561,-5.40756 18.03515,-7.31641 6.67745,-3.64224 13.37719,-9.52619 16.74414,-14.88085 0.84174,-1.33867 1.49055,-2.65539 1.81055,-4.07618 0.32,-1.42078 0.27583,-3.12786 -0.68164,-4.55664 -0.95748,-1.42877 -2.57198,-2.18627 -4.23242,-2.46289 -1.66045,-0.27661 -3.52415,-0.18241 -5.79883,0.20313 -16.95827,2.87428 -26.21816,7.32652 -34.22266,17.40625 -3.73974,4.70931 -8.66912,10.1227 -11.45508,15.85156 -0.12838,0.264 -0.17954,0.54752 -0.29882,0.81445 -3.15471,1.0465 -5.90413,2.04235 -9.10547,3.07617 -19.23071,6.21029 -38.44059,11.9179 -42.93555,12.94532 -2.36592,0.54078 -3.64897,0.73801 -3.95703,0.74804 -0.0405,-0.0523 0.0105,0.0183 -0.0801,-0.13086 -0.85892,-1.41468 -2.82118,-6.27526 -9.35937,-14.12109 -3.62238,-4.34685 -8.23259,-6.08384 -12.60547,-5.58594 -4.37289,0.49791 -8.39182,2.79082 -12.29492,5.51563 -7.80621,5.44961 -15.59544,12.84758 -21.24219,14.46094 -2.36979,0.67708 -4.12429,1.15754 -5.98438,1.66992 12.53909,-5.98585 30.05927,-17.27137 54.15235,-39.72461 26.99725,-25.15974 41.92893,-38.52269 49.47851,-46.50781 3.77479,-3.99257 5.87655,-6.51644 6.53711,-9.47461 0.33028,-1.47909 0.0573,-3.14547 -0.67187,-4.35547 -0.72916,-1.21001 -1.70395,-2.00427 -2.72071,-2.73633 -3.42344,-2.46488 -4.9823,-4.15616 -7.4707,-5.16211 -1.2442,-0.50297 -2.70234,-0.65797 -4.10547,-0.46094 -1.40312,0.19704 -2.8027,0.65673 -4.57226,1.32032 -3.21775,1.20665 -8.13477,2.62936 -13.69922,6.67968 -5.56446,4.05032 -11.77052,10.69445 -18.2793,22.26563 -6.49251,11.54224 -9.01115,19.94437 -10.57617,24.70898 -0.7015,2.13567 -1.24352,3.1516 -1.38281,3.41797 -0.11985,-0.0404 -0.0387,0.002 -0.25391,-0.10547 -2.38082,-1.19041 -2.05534,-1.9681 -3.57031,-3.94922 -0.75749,-0.99056 -2.40242,-2.04458 -4.10157,-2.14453 -1.69914,-0.0999 -3.45675,0.30546 -6.00195,1.12891 -10.36247,3.35256 -31.22009,14.54771 -42.58594,28.60547 -5.29055,6.54357 -9.72012,10.94775 -12.30078,15.18164 -1.29032,2.11694 -2.17144,4.35053 -1.98633,6.76367 0.15144,1.97406 1.17632,3.78145 2.57813,5.47266 -0.37798,-0.0248 -1.46484,0.0273 -1.46484,0.0273 l -1.74414,-0.39844 -1.07032,1.43555 c 0,0 -16.41386,22.07282 -50.83007,33.02344 -34.594034,11.00719 -52.33768,3.79691 -65.947271,1.70312 -5.610751,-0.86319 -8.508989,-3.88531 -10.46289,-7.96875 -1.953901,-4.08343 -2.616683,-9.21401 -2.808594,-13.24414 -0.139284,-2.92495 2.114481,-7.49598 5.091797,-11.67383 2.977315,-4.17784 6.347668,-7.7941 8.082031,-10.51953 0.299054,-0.46994 1.677567,-1.86805 3.578125,-3.35156 1.900559,-1.48351 4.336825,-3.18607 6.941406,-4.94727 5.209163,-3.52238 11.061871,-7.25803 15.064453,-10.41797 1.467481,-1.15853 5.016509,-3.10359 9.095704,-5.00976 4.079194,-1.90617 8.765974,-3.87126 12.916015,-5.51758 2.548343,-1.01092 4.069024,-1.53256 5.947264,-2.2168 1.34155,-0.22218 2.67168,-0.5099 3.9375,-1.06836 0.62672,-0.27649 1.08196,-0.48596 1.45117,-0.67578 0.18461,-0.0949 0.33469,-0.16902 0.57422,-0.33007 0.11977,-0.0805 0.25477,-0.14883 0.54492,-0.46094 0.14508,-0.15606 0.35748,-0.36237 0.56641,-0.91016 0.20893,-0.54778 0.25531,-1.7471 -0.30859,-2.56055 -0.56391,-0.81344 -1.21533,-1.00591 -1.56836,-1.0996 -0.35304,-0.0937 -0.55022,-0.0921 -0.70313,-0.0937 -0.30581,-0.003 -0.43798,0.0246 -0.5625,0.0449 -0.24903,0.0407 -0.40809,0.0829 -0.59375,0.13281 -0.37131,0.0998 -0.79509,0.23225 -1.32226,0.40625 -0.7318,0.24154 -2.40303,0.90627 -3.4668,1.29102 -3.443345,0.34699 -7.767224,-0.46911 -11.951172,-1.94727 -5.607109,-1.98095 -10.872854,-4.95167 -13.414062,-6.55664 -0.755708,-0.47729 -1.140356,-1.02205 -1.423829,-2.0332 -0.283472,-1.01115 -0.34545,-2.48434 -0.111328,-4.26368 0.468246,-3.55866 2.078647,-8.23592 4.023438,-12.95898 1.806421,-4.38702 3.732215,-6.39643 7.652344,-9.30273 3.920128,-2.90631 9.764293,-6.45504 18.349609,-13.03711 8.17678,-6.26887 18.11473,-11.10961 27.26758,-14.02344 9.15285,-2.91383 17.62911,-3.78751 22.20117,-2.73242 0.51661,0.11921 0.11958,-0.2661 0.19141,0.19726 0.0718,0.46337 -0.0743,1.823 -0.69141,3.54492 -1.23414,3.44384 -4.03937,8.31502 -7.2168,13.08985 -6.35486,9.54966 -14.14258,18.88867 -14.14258,18.88867 l 4.22266,3.52539 c 0,0 7.91286,-9.47141 14.49805,-19.36719 3.29259,-4.94788 6.26631,-9.95575 7.8164,-14.28125 0.77505,-2.16274 1.27183,-4.16107 0.94922,-6.24218 -0.3226,-2.08112 -2.14952,-4.19767 -4.39062,-4.71485 -1.6147,-0.37262 -3.38284,-0.57475 -5.2793,-0.61914 z m 138.00977,13.33594 c 0.674,-0.0947 0.8618,-0.0555 1.27929,0.11328 0.835,0.33755 2.66878,1.8991 6.31641,4.52539 0.75102,0.54073 1.13813,0.96653 1.22656,1.11328 0.0884,0.14676 0.09,-0.0253 0.0137,0.31641 -0.15261,0.68343 -1.58689,3.10892 -5.16601,6.89453 -7.15825,7.57122 -22.20672,21.07741 -49.23242,46.26367 -26.84306,25.01605 -45.57351,36.1578 -57.37696,41.03516 -2.94016,1.21492 -5.44604,2.03767 -7.54687,2.59765 -0.72424,-0.5237 -1.38339,-0.83846 -2.25,-1.70507 -1.41348,-1.41348 -1.7931,-2.3354 -1.85547,-3.14844 -0.0624,-0.81304 0.22485,-1.8851 1.19727,-3.48047 1.94482,-3.19073 6.42534,-7.83786 11.88281,-14.58789 10.1302,-12.52946 31.1311,-23.9601 40.00195,-26.83008 2.26313,-0.73219 3.58183,-0.89489 3.98633,-0.87109 0.4045,0.0238 -0.10707,-0.21543 0.0547,-0.004 0.3235,0.42305 1.63875,3.60453 5.48047,5.52539 0.99024,0.49512 1.99885,0.8828 3.22265,0.86133 1.2238,-0.0215 2.52502,-0.6637 3.30274,-1.47656 1.55543,-1.62574 1.98839,-3.43902 2.79687,-5.90039 1.61696,-4.92276 3.90717,-12.64336 10.14258,-23.72852 6.21914,-11.05625 11.89264,-16.99795 16.72266,-20.51367 4.83001,-3.51573 8.8221,-4.63763 12.39257,-5.97656 1.62456,-0.60921 2.7342,-0.92879 3.40821,-1.02344 z m 72.4707,55.54492 c 0.72714,0.12114 0.67093,0.25754 0.56641,0.10156 -0.10453,-0.15598 -0.001,-0.21208 -0.11329,0.28516 -0.11199,0.49724 -0.47605,1.36459 -1.10156,2.35937 -2.50204,3.97915 -8.95307,9.83254 -14.7207,12.97852 -2.723,1.48527 -9.21846,4.08335 -17.25781,6.9668 -2.98952,1.07223 -6.81205,2.2889 -10.16993,3.43554 2.39536,-3.47263 5.24341,-7.06301 7.98829,-10.51953 7.26902,-9.15357 14.41486,-12.62172 30.83203,-15.40429 1.89724,-0.32157 3.24942,-0.32426 3.97656,-0.20313 z"
     id="path5" />
</svg>
