<?xml version="1.0" encoding="UTF-8" standalone="no"?>
<!-- Created with Inkscape (http://www.inkscape.org/) -->

<svg
   width="210mm"
   height="297mm"
   viewBox="0 0 210 297"
   version="1.1"
   id="svg1"
   inkscape:version="1.4.2 (ebf0e940d0, 2025-05-08)"
   sodipodi:docname="aprilfools2026.svg"
   xmlns:inkscape="http://www.inkscape.org/namespaces/inkscape"
   xmlns:sodipodi="http://sodipodi.sourceforge.net/DTD/sodipodi-0.dtd"
   xmlns:xlink="http://www.w3.org/1999/xlink"
   xmlns="http://www.w3.org/2000/svg"
   xmlns:svg="http://www.w3.org/2000/svg">
  <sodipodi:namedview
     id="namedview1"
     pagecolor="#ffffff"
     bordercolor="#000000"
     borderopacity="0.25"
     inkscape:showpageshadow="2"
     inkscape:pageopacity="0.0"
     inkscape:pagecheckerboard="0"
     inkscape:deskcolor="#d1d1d1"
     inkscape:document-units="mm"
     inkscape:zoom="0.80630807"
     inkscape:cx="347.88192"
     inkscape:cy="499.80896"
     inkscape:window-width="1600"
     inkscape:window-height="849"
     inkscape:window-x="0"
     inkscape:window-y="27"
     inkscape:window-maximized="1"
     inkscape:current-layer="layer1" />
  <defs
     id="defs1">
    <linearGradient
       id="linearGradient6"
       inkscape:collect="always">
      <stop
         style="stop-color:#fc0000;stop-opacity:1;"
         offset="0"
         id="stop6" />
      <stop
         style="stop-color:#5800ff;stop-opacity:1;"
         offset="1"
         id="stop7" />
    </linearGradient>
    <linearGradient
       inkscape:collect="always"
       xlink:href="#linearGradient6"
       id="linearGradient7"
       x1="129.18953"
       y1="78.61525"
       x2="74.127975"
       y2="196.69513"
       gradientUnits="userSpaceOnUse" />
  </defs>
  <g
     inkscape:label="Layer 1"
     inkscape:groupmode="layer"
     id="layer1">
    <path
       style="opacity:0.907578;fill:url(#linearGradient7);stroke-width:2.11667;stroke-opacity:0.798182"
       d="m 102.55781,72.393748 c -5.23851,0.728806 -7.875057,4.356113 -11.601562,7.425002 -1.457558,1.200343 -3.130063,2.115516 -4.640625,3.248435 -0.966518,0.72489 -1.791044,1.632625 -2.784374,2.320314 -3.173259,2.196873 -8.997871,4.357246 -11.601561,6.960936 -0.109382,0.109382 0.06918,0.325707 0,0.464063 -0.837219,1.674435 -1.682229,2.59378 -3.248438,3.712501 -1.536494,1.097495 -3.088161,2.173653 -4.640625,3.248438 -0.01754,0.01214 -2.748336,1.603963 -2.784374,1.856243 -1.160352,8.12245 -1.942127,12.05463 -0.928127,19.49063 0.218207,1.60018 1.392187,3.02564 1.392187,4.64063 0,0.15468 -0.309374,0 -0.46406,0 -0.773438,0 -1.550715,0.077 -2.320314,0 -2.106843,-0.21069 -5.400868,-1.30123 -7.425,0 -5.060809,3.25337 -12.129566,11.99344 -14.385938,17.63437 -1.239869,3.09967 -0.572412,7.78071 1.856251,10.20938 0.394377,0.39437 0.99781,0.53374 1.392187,0.92812 0.244584,0.24458 0.21948,0.68354 0.464063,0.92813 0.109379,0.10937 0.394883,-0.13836 0.464061,0 0.826352,1.6527 -0.572833,4.2592 0.928127,6.96093 1.108842,1.99592 6.192321,7.19659 8.353123,8.81719 1.479645,1.10973 2.83169,1.95088 3.712501,3.7125 1.141563,2.28312 -1.623073,8.32823 1.392187,10.67344 4.51567,3.51218 10.878254,4.77071 16.242189,6.03281 6.208384,1.4608 12.429966,2.88847 18.562499,4.64062 8.184737,2.3385 15.903603,6.49688 24.595313,6.49688 0.92812,0 1.89729,0.27295 2.78437,0 1.19199,-0.36676 2.13297,-1.29852 3.24844,-1.85625 2.03244,-1.01622 4.23125,-1.80719 6.03281,-3.24844 0.51247,-0.40997 0.86716,-0.99841 1.39219,-1.39219 3.64996,-2.73747 8.0064,-4.60022 11.60156,-7.425 4.42715,-3.47846 9.09698,-7.62329 12.52969,-12.06562 6.99607,-9.05374 9.41981,-22.03967 11.60156,-32.94844 1.95144,-9.75718 -0.71073,1.85 0.46407,-6.96093 0.16858,-1.2644 0.67796,-2.46169 0.92812,-3.7125 1.0178,-5.089 0.10558,-1.37249 0.46406,-6.03282 0.55757,-7.24836 1.68212,-8.60474 -1.39218,-15.77812 -1.59054,-3.71124 -5.07957,-7.86394 -7.88907,-10.67344 -1.87202,-1.872027 -3.25692,-2.123492 -5.10468,-4.176561 -3.85706,-4.285615 -6.44431,-9.116459 -11.13751,-12.529687 -0.3956,-0.287713 -0.97273,-0.212389 -1.39218,-0.464063 -1.07599,-0.645594 -3.33684,-2.458429 -4.64063,-2.784375 -4.25318,-1.063294 -8.53789,-2.644727 -12.52968,-4.640625"
       id="path1" />
    <path
       style="opacity:0.907578;fill:#ffffff;stroke-width:2.11667;stroke-opacity:0.798182"
       d="m 29.860898,143.72608 c -1.079224,0 -5.387746,-0.22177 -4.922126,1.64071 0.0571,0.22838 0.370372,0.84147 0.656284,0.98443 0.468973,0.23448 1.846141,-0.0615 2.296991,0 2.084686,0.28427 4.157847,0.64763 6.234694,0.98442 13.379378,2.16963 -0.449448,-0.15552 10.172393,1.96885 0.32177,0.0644 0.673124,-0.10377 0.984425,0 0.232031,0.0774 0.413591,0.29784 0.656285,0.32814 0.651214,0.0814 1.315824,-0.0653 1.96885,0 1.689616,0.16896 3.266307,0.93625 4.922125,1.31257 2.175457,0.49442 4.354322,0.99706 6.562836,1.31257 0.866249,0.12375 1.761996,-0.14386 2.625133,0 0.488672,0.0814 2.459124,0.93702 2.625135,0.98442 0.969637,0.27704 2.013405,0.29078 2.953273,0.65628 1.049571,0.40817 1.884926,1.2846 2.953277,1.64071 6.602058,2.20069 16.983863,1.31257 23.626206,1.31257 7.875401,0 15.754421,-0.23854 23.626201,0 2.52409,0.0765 5.02843,0.47637 7.54726,0.65628 2.07582,0.14828 4.16784,0.085 6.2347,0.32814 7.5687,0.89044 17.4912,5.65793 24.93877,4.59399 3.11231,-0.44462 6.36054,-1.53956 9.18797,-2.95327 2.15963,-1.07982 1.11621,-1.06533 3.60956,-1.64072 1.29332,-0.29845 7.73752,-0.84654 8.20354,-1.31256 0.0773,-0.0773 0.0773,-0.25084 0,-0.32814 -0.15469,-0.15469 -0.44875,0.0692 -0.65628,0 -0.5974,-0.19914 -1.11651,-0.68489 -1.64071,-0.98443 -0.42472,-0.24269 -0.92124,-0.36278 -1.31257,-0.65628 -1.91584,-1.43688 -1.44121,-2.07004 -3.9377,-2.29699 -6.30063,-0.57279 -12.6947,-0.46424 -19.03222,-0.65629 -4.17855,-0.12662 -8.02417,-1.12607 -12.14124,-1.64071 -1.47342,-0.18417 -3.11004,0 -4.59399,0 -1.31659,0 -0.45213,-0.40496 -2.62513,-0.98442 -2.59096,-0.69092 -5.23387,-1.17949 -7.87541,-1.64071 -4.2517,-0.74236 -8.52698,-1.34389 -12.79752,-1.96885 -8.19651,-1.19949 -16.394587,-2.25441 -24.610633,-3.28142 -2.360027,-0.295 -6.090494,0 -7.875402,0 -5.46903,0 -10.939854,0.14019 -16.407087,0 -3.06945,-0.0787 -6.122808,-0.47598 -9.187969,-0.65628 -8.530619,-0.5018 -13.350636,0.0539 -20.67293,-2.95328 l 27.73483,-25.36507"
       id="path3" />
    <path
       style="opacity:0.907578;fill:#ffffff;stroke-width:2.11667;stroke-opacity:0.798182"
       d="m 60.285624,108.54971 c -1.062987,0.34988 -3.538839,-0.0134 -3.188962,1.04963 0.349877,1.06299 2.16268,-1.49584 3.188962,-1.04963 4.127436,4.10163 3.247699,4.23275 7.967858,5.97176 3.390569,1.24915 6.906361,1.81258 10.500535,1.96885 3.73054,0.16219 7.447539,-0.29008 11.15682,0.32814 0.47104,0.0785 2.246688,0.27784 2.625132,0.65628 0.172948,0.17295 0.109382,0.5469 0.328142,0.65628 0.498853,0.24943 1.102627,0.1814 1.64071,0.32815 0.667406,0.18202 1.286478,0.54255 1.968849,0.65628 1.299197,0.21653 2.639735,0.10435 3.9377,0.32814 2.22215,0.38313 4.33858,1.27 6.56284,1.64071 5.32549,0.88758 4.67457,0.65628 10.17239,0.65628 1.42195,0 2.88826,-0.3524 4.26584,0 12.78005,3.26932 25.34504,7.33085 38.06445,10.82868 1.16011,0.31904 2.40637,0 3.60955,0 2.5974,0 5.29288,-0.21521 7.8754,0 0.66304,0.0552 1.30521,0.28074 1.96886,0.32814 1.20012,0.0857 2.40637,0 3.60955,0 0.21877,0 0.81097,0.15469 0.65629,0 -0.43402,-0.43402 -4.30469,-1.509 -5.25027,-2.29699 -2.40964,-2.00804 1.93288,-6.25068 -3.9377,-8.85983 -0.70678,-0.31412 -1.5728,-0.0566 -2.29699,-0.32814 -0.45802,-0.17175 -0.83129,-0.56878 -1.31257,-0.65628 -0.75331,-0.13697 -1.54298,0.13306 -2.29699,0 -1.12459,-0.19846 -2.15016,-0.82839 -3.28142,-0.98443 -4.37248,-0.6031 -8.75375,-0.081 -13.12567,-0.65628 -8.00894,-1.05381 -15.97764,-2.79817 -23.95435,-3.9377 -0.44645,-0.0638 -0.87504,-0.21876 -1.31256,-0.32814 -0.76567,-0.10938 -1.52829,-0.24273 -2.297,-0.32814 -7.01875,-0.77987 -14.31284,-1.03742 -21.329208,-1.31257 -22.968199,-0.90071 -19.050056,-0.24594 -41.017716,-1.64071 -2.308098,-0.14655 -3.396859,-2.55423 -5.578409,-3.28142 -1.116481,-0.37216 -2.510666,-0.10683 -3.60956,-0.65628 -0.218762,-0.10938 0.452779,0.19247 0.656284,0.32814 0.215061,0.14338 2.965616,0.65629 3.281418,0.65629 0.912325,0 1.442585,0.11454 2.29699,0.32814 0.601724,0.15043 1.347031,-0.0644 1.968852,0 1.791679,0.18557 3.580966,0.39356 5.371449,0.59034"
       id="path4" />
    <path
       style="opacity:0.907578;fill:#ffffff;stroke-width:2.11667;stroke-opacity:0.798182"
       d="m 64.972064,87.941985 c 0.765665,-0.984425 1.150699,-2.462006 2.296991,-2.953277 0.765664,-0.328138 1.551919,0.611889 2.296993,0.984428 11.275222,5.637609 -5.72067,-2.360221 6.234692,2.953274 0.894011,0.397338 1.697011,1.003194 2.625135,1.312568 5.325827,1.775275 9.179367,0.328142 14.438236,0.328142 2.677882,0 5.114274,0.862946 7.547259,1.968849 1.54681,0.703096 2.81936,1.513951 4.59399,1.64071 7.43954,0.531395 0.0779,-0.143414 5.25026,-0.328141 4.81065,-0.17181 10.69335,0.004 15.42267,0.656283 0.48457,0.06684 0.85454,0.484526 1.31256,0.656283 7.45471,2.795516 15.82722,3.459816 23.62621,4.922126 2.01985,0.37872 2.82477,0.13022 4.92212,-0.656283 1.47431,-0.552866 2.8324,-0.923986 4.26585,-1.640711 0.21876,-0.109378 0.42425,-0.250795 0.65628,-0.328141 0.10377,-0.03459 0.32814,0.109381 0.32814,0 0,-0.0072 -1.64941,-0.168421 -1.96885,-0.328142 -0.7292,-0.364601 -1.34903,-0.838583 -1.64071,-1.640707 -0.59278,-1.630135 -0.71169,-4.621686 -2.62513,-5.578409 -0.49885,-0.249428 -1.1116,-0.151773 -1.64071,-0.328142 -1.11761,-0.372538 -2.13141,-1.05701 -3.28142,-1.312568 -1.82771,-0.406157 -3.72254,-0.408835 -5.57841,-0.656284 -9.81562,-1.30875 2.47728,-0.111786 -11.48496,-0.984424 -2.08564,-0.130352 -4.14787,-0.546452 -6.23469,-0.656283 -2.52228,-0.132752 -4.75508,0.152138 -7.21912,0.328141 -8.28487,0.591775 -17.03911,0.4567 -25.266912,0.328142 -0.717571,-0.01122 -13.998623,-0.272405 -14.76638,-0.656283 -3.153844,-1.576925 -6.424742,-1.511163 -9.844251,-0.656283 -0.467995,0.116998 -1.647328,0.07807 -1.968852,0.328141 -0.854721,0.664782 -1.531326,1.531327 -2.296991,2.296991 z"
       id="path5" />
    <path
       style="opacity:0.907578;fill:#ffffff;stroke-width:2.11667;stroke-opacity:0.798182"
       d="m 45.921218,166.87657 c -0.759455,1.14299 -1.906323,2.10808 -2.278367,3.42899 -0.118615,0.42114 0.875046,0 1.312566,0 0.546904,0 1.093806,0 1.64071,0 2.187612,0 4.377381,-0.0971 6.562834,0 3.612615,0.16056 7.219119,0.43752 10.828679,0.65628 8.859826,0.32815 17.719836,0.65136 26.57948,0.98443 11.96154,0.44968 23.80742,0.65628 35.76745,0.65628 4.17325,0 8.30766,0.0833 12.46939,0.32815 1.1066,0.0651 3.03339,-0.2465 4.26584,0 2.77772,0.55554 5.67515,1.09283 8.53168,1.31256 2.18332,0.16795 4.40739,0.11742 6.56284,0.65629 1.00669,0.25167 1.95345,0.70669 2.95327,0.98442 1.21497,0.33749 6.56284,0.73152 6.56284,2.62513 0,2.24846 -4.92872,2.297 -6.2347,2.297 -1.31725,0 -4.6419,0.0258 -6.23469,-0.32815 -0.93714,-0.20825 -2.83892,-1.29041 -3.60956,-1.6407 -1.89505,-0.86139 -2.54277,-0.93688 -4.92212,-1.31257 -5.55265,-0.87673 -11.47313,-0.32814 -17.06337,-0.32814 -3.71894,0 -7.44111,0.15482 -11.15682,0 -3.28585,-0.13691 -6.55798,-0.52989 -9.84425,-0.65629 -8.17566,-0.31444 -16.427378,0 -24.610636,0 -3.501887,0 -6.998647,-0.32814 -10.500535,-0.32814 -6.612469,0 -13.313216,1.27506 -19.688505,0 -2.295689,-0.45914 -4.219869,-1.9065 -6.562833,-2.29699 -0.519306,-0.0865 -1.109734,0 -1.640711,0 -0.109379,0 -0.43752,0 -0.328141,0 0.675817,0 1.333518,0.0531 1.968852,-0.32814 0.620746,-0.37245 0.504367,-3.17569 0.328141,-3.60956 -0.441158,-1.08613 -1.106223,-2.06724 -1.659334,-3.10085 z"
       id="path6" />
    <path
       style="opacity:0.907578;fill:#000000;stroke-width:2.11667;stroke-opacity:0.798182"
       d="m 89.254551,203.44788 c 0.04815,-3.00086 1.444622,-5.97657 1.968852,-8.85983 0.254365,-1.39901 -0.07474,-2.84586 0,-4.26584 0.269878,-5.12768 0.573252,-10.27534 0.328142,-15.42266 -0.09506,-1.9962 -0.401416,-2.15363 -0.656284,-3.93771 -0.106415,-0.7449 0.147313,-1.56042 0,-2.29699 -0.373549,-1.86774 -0.420499,-3.69213 -0.656283,-5.57841 -0.337738,-2.70188 -1.640689,-5.25018 -2.296993,-7.8754 -0.180306,-0.72122 0.146005,-1.56697 0,-2.29699 -0.414472,-2.07236 -0.686795,-4.73906 -0.328142,-6.89098 0.07383,-0.44298 1.424184,-4.56125 1.640708,-4.92212 0.159173,-0.26529 0.517927,-0.37957 0.656286,-0.65629 0.511133,-1.02227 1.062159,-3.13901 1.312566,-4.26584 0.14433,-0.64949 0.166775,-1.32338 0.328142,-1.96885 0.237921,-0.95169 0.256008,-0.38401 0.656283,-0.98442 0.39498,-0.59247 0.377187,-1.41066 0.656283,-1.96886 0.176371,-0.35274 0.479914,-0.63168 0.656283,-0.98442 0.019,-0.038 0.315769,-1.62834 0.328144,-1.64071 0.07734,-0.0773 0.279223,0.0978 0.328141,0 0.222915,-0.44583 0.188355,-1.15146 0.328142,-1.64071 0.161819,-0.56637 0.494464,-1.07434 0.656283,-1.64071 0.57858,-2.02503 0.899504,-4.16938 1.312566,-6.23469 0.141248,-0.70624 1.39773,-4.57269 1.312566,-4.59398 -0.848915,-0.21223 -1.763403,-0.15207 -2.625132,0 -7.382896,1.30286 -8.606594,3.45052 -14.110094,8.20354 -0.405405,0.35012 -4.947454,3.8452 -5.578411,4.26584 -0.407009,0.27134 -0.914517,0.37196 -1.312567,0.65628 -0.377623,0.26974 -0.586493,0.74567 -0.984424,0.98443 -1.957848,1.17471 -2.05045,0.84076 -3.937701,1.31257 -1.443318,0.36083 -2.816207,0.97803 -4.265843,1.31256 -6.015728,1.38825 2.454746,-1.30033 -5.90655,1.31257 -1.202568,0.3758 -1.667584,0.83379 -2.625135,1.31257 -0.634225,0.31711 -2.517145,0.32814 -3.281418,0.32814 -0.21876,0 -0.501595,0.15469 -0.656283,0 -0.09933,-0.0993 0.866317,-0.70356 1.968849,-1.64071 1.771864,-1.50608 3.434387,-3.14128 5.25027,-4.59398 0.923869,-0.7391 2.059194,-1.19398 2.953274,-1.96885 0.762066,-0.66046 1.255776,-1.58392 1.968852,-2.297 0.604072,-0.60407 1.312566,-1.0938 1.968849,-1.6407 0.656283,-0.76567 1.287423,-1.55362 1.968852,-2.297 2.796193,-3.05039 0.929092,-0.52699 5.250267,-4.59398 0.734346,-0.69115 1.287423,-1.55362 1.968849,-2.29699 1.238173,-1.35073 2.316422,-2.64457 3.60956,-3.9377 0.132453,-0.13246 1.548146,-1.07699 1.312569,-1.31257 -0.181682,-0.18168 -2.572372,-0.83987 -3.281419,-1.31257 -1.238144,-0.82543 -2.380355,-1.80566 -3.609559,-2.62513 -1.670725,-1.11382 -3.593084,-1.81941 -5.250267,-2.95328 C 67.425569,99.94853 66.447749,98.917658 65.300206,98.114378 64.255205,97.382879 63.05288,96.892373 62.018788,96.145529 61.076186,95.464761 60.268699,94.6142 59.393655,93.848538 57.315422,92.317209 55.253916,90.76292 53.158961,89.254551 52.51886,88.793679 51.812716,88.426233 51.190112,87.941985 50.579596,87.46714 50.168153,86.765338 49.549401,86.301277 49.353737,86.154526 49.039869,86.1688 48.893118,85.973136 c -0.207534,-0.276715 -0.144819,-0.69111 -0.328141,-0.984428 -0.964118,-1.542589 -2.77158,-2.733603 -1.312566,-4.922125 0.303365,-0.455049 0.875043,0.656286 1.312566,0.984427 0.946504,0.709877 1.938747,1.360133 2.953276,1.968849 2.448751,1.46925 5.25698,1.289908 7.875402,2.296994 6.298954,2.422673 0.612664,0.142261 5.578409,2.625132 0.745075,0.372536 1.577449,0.564692 2.296991,0.984425 1.968762,1.148445 3.298846,2.597549 5.578411,3.281418 0.419071,0.125722 0.885463,-0.09491 1.312566,0 0.575006,0.12778 1.081903,0.470016 1.640708,0.656283 2.175933,0.72531 4.349022,1.271741 6.562836,1.64071 0.682371,0.113729 1.282409,0.570479 1.968849,0.656283 1.085361,0.13567 2.215624,-0.245954 3.281418,0 0.910617,0.210143 1.738543,0.688896 2.625135,0.984425 0.427845,0.142615 0.909191,0.126455 1.312567,0.328141 0.442835,0.221417 1.908712,1.700848 2.625134,0.984425 0.546902,-0.546902 -0.242731,-1.528284 -0.328141,-2.296991 -0.145452,-1.30906 -0.277522,-2.621558 -0.328144,-3.937701 -0.100891,-2.623196 0.119202,-5.252977 0,-7.875402 -0.279818,-6.156047 -1.461035,-14.444152 -3.937699,-20.016645 -0.895199,-2.014196 -0.952629,-4.170455 -1.64071,-6.234694 -0.07734,-0.232032 -0.501086,-0.483338 -0.328142,-0.656283 0.27595,-0.27595 0.897393,0.586369 2.296994,2.296991 1.37482,1.680337 2.382268,2.97892 3.609557,4.922128 3.214349,5.089385 5.838399,10.692368 8.531686,16.078943 0.51738,1.034764 4.14935,10.114148 5.57841,10.828679 0.52685,0.263422 1.12149,-0.378129 1.64071,-0.656283 2.63167,-1.409822 5.18103,-2.979896 7.8754,-4.265843 2.12636,-1.014857 4.49268,-1.500052 6.56283,-2.625135 2.98544,-1.622517 5.66506,-3.754188 8.53169,-5.578409 4.1687,-2.652807 8.99329,-5.675913 13.45381,-8.203543 1.95954,-1.110406 3.89205,-2.274165 5.90655,-3.281418 0.19567,-0.09783 0.46062,-0.09783 0.65629,0 0.68252,0.341262 -7.07926,7.419051 -7.21912,7.54726 -4.21832,3.866788 -8.19905,7.991563 -12.14125,12.141245 -0.58839,0.619358 -0.92347,1.504757 -1.64071,1.968849 -1.19382,0.772475 -2.65109,1.035249 -3.9377,1.640708 -2.87318,1.352084 -5.41764,3.940344 -7.8754,5.906553 -1.21393,0.971145 -2.5103,1.854015 -3.60956,2.953274 -0.27886,0.278868 -0.37741,0.705559 -0.65628,0.984427 -0.0773,0.07734 -0.2508,-0.07734 -0.32814,0 -0.0773,0.07734 0.0773,0.250799 0,0.328142 -3.03805,3.038053 1.25659,-2.122305 -1.96885,1.640703 -0.35592,0.41524 -0.64278,0.88551 -0.98443,1.31257 -0.0966,0.12079 -0.47489,0.27923 -0.32814,0.32814 0.87497,0.29166 2.15234,-0.28598 2.95328,-0.32814 1.52921,-0.0805 3.06388,0.0612 4.59398,0 12.9074,-0.51629 -10.03229,-0.32814 9.84425,-0.32814 1.42195,0 2.8744,-0.29294 4.26585,0 4.66602,0.98232 13.79583,4.27278 18.37593,6.56284 1.92957,0.96478 3.72249,2.1816 5.57841,3.28141 1.81041,1.07284 7.45981,4.41909 8.53169,6.56284 0.26342,0.52684 0.36404,1.12928 0.65628,1.64071 0.927,1.62225 3.47877,2.03541 4.26584,3.60955 0.0489,0.0978 -0.21876,0 -0.32814,0 -0.65628,0 -1.31402,0.0437 -1.96885,0 -0.98829,-0.0659 -2.0009,-0.056 -2.95327,-0.32814 -0.61326,-0.17521 -1.07025,-0.69919 -1.64071,-0.98442 -1.0537,-0.52685 -2.25161,-0.74045 -3.28142,-1.31257 -1.36566,-0.7587 -3.4161,-2.06986 -4.59398,-2.95328 -2.73592,-2.05193 -5.35254,-4.20077 -8.53169,-5.5784 -2.03219,-0.88062 -4.10773,-1.67949 -6.23469,-2.297 -1.85667,-0.53903 -4.89142,-0.71781 -6.89098,-0.98442 -4.31217,-0.57496 -8.7663,-1.05471 -13.12567,-0.32814 -0.96687,0.16114 -3.34984,1.52083 -3.60956,1.6407 -0.75634,0.34909 -1.48885,0.78239 -2.29699,0.98443 -0.31835,0.0796 -1.06401,-0.31835 -0.98443,0 0.11864,0.47456 0.48453,0.85455 0.65629,1.31257 0.9129,2.43441 0.8797,6.11599 -0.32814,8.53168 -1.64129,3.28257 -0.67208,0.99232 -3.28142,2.29699 -0.13442,0.0672 -2.18817,0.98359 -1.96885,1.31257 0.93529,1.40294 0.32429,-0.003 1.64071,0.98443 0.19566,0.14675 0.14244,0.49711 0.32814,0.65628 0.59887,0.51332 1.34624,0.82832 1.96885,1.31257 0.85472,0.66478 1.49879,1.56531 2.29699,2.29699 1.71929,1.57601 3.47415,3.11388 5.25027,4.59398 0.25088,0.20908 3.58787,3.28865 2.62513,3.60956 -1.38599,0.462 -11.29715,-0.0937 -12.46938,-0.32814 -0.5776,-0.11552 -1.08918,-0.44946 -1.64071,-0.65628 -0.49036,-0.18389 -2.74071,-1.19699 -3.28142,-0.65629 -0.0503,0.0503 0.14528,5.62108 0,7.21912 -0.14179,1.55966 -0.65628,3.06266 -0.98442,4.59399 -0.35615,1.66204 -0.94384,3.26283 -1.31257,4.92212 -0.50578,2.27601 -0.69856,4.63962 -1.31257,6.89098 -0.18202,0.66741 -0.51133,1.29242 -0.65628,1.96885 -0.18478,0.86228 -0.12985,1.76586 -0.32814,2.62513 -0.44011,1.90716 -0.84378,1.48832 -1.640712,3.28142 -0.806706,1.81509 -1.074388,3.78948 -1.968852,5.57841 -0.866359,1.73273 -2.680345,4.9742 -2.29699,6.89098 0.102893,0.51446 3.559833,5.20054 4.265842,5.90655 0.172945,0.17294 0.483342,0.1552 0.656282,0.32814 0.51884,0.51884 0.60692,1.33967 0.98443,1.96885 0.24471,0.40786 0.80737,0.86993 0.98442,1.31257 0.75243,1.88107 1.31257,4.22586 1.31257,6.23469 0,1.53133 0,3.06266 0,4.59398 0,0.82904 0.64586,1.98776 0.65628,1.96886 0.33034,-0.59883 0.38465,-1.31259 0.57697,-1.96889"
       id="path2" />
  </g>
</svg>
