<?xml version="1.0" encoding="UTF-8" standalone="no"?>
<svg
   width="512"
   height="512"
   fill="none"
   viewBox="0 0 512 512"
   version="1.1"
   id="svg7"
   sodipodi:docname="base_android.svg"
   inkscape:version="1.4.2 (ebf0e940d0, 2025-05-08)"
   xmlns:inkscape="http://www.inkscape.org/namespaces/inkscape"
   xmlns:sodipodi="http://sodipodi.sourceforge.net/DTD/sodipodi-0.dtd"
   xmlns:xlink="http://www.w3.org/1999/xlink"
   xmlns="http://www.w3.org/2000/svg"
   xmlns:svg="http://www.w3.org/2000/svg">
  <defs
     id="defs7">
    <rect
       x="22.627417"
       y="402.76802"
       width="521.34025"
       height="248.94868"
       id="rect24" />
    <linearGradient
       id="linearGradient1"
       inkscape:collect="always">
      <stop
         style="stop-color:#ff97df;stop-opacity:1;"
         offset="0"
         id="stop1" />
      <stop
         style="stop-color:#ffccf0;stop-opacity:1;"
         offset="1"
         id="stop2" />
    </linearGradient>
    <linearGradient
       id="linearGradient11"
       inkscape:collect="always">
      <stop
         style="stop-color:#ff0950;stop-opacity:1;"
         offset="0"
         id="stop11" />
      <stop
         style="stop-color:#bf42f6;stop-opacity:1;"
         offset="0.49556771"
         id="stop20" />
      <stop
         style="stop-color:#5da5ed;stop-opacity:1;"
         offset="1"
         id="stop12" />
    </linearGradient>
    <linearGradient
       inkscape:collect="always"
       xlink:href="#linearGradient11"
       id="linearGradient12"
       x1="270.39996"
       y1="39.999989"
       x2="270.39996"
       y2="494.39996"
       gradientUnits="userSpaceOnUse"
       spreadMethod="reflect"
       gradientTransform="matrix(0.66671675,0,0,0.66671675,76.483829,76.145861)" />
    <linearGradient
       inkscape:collect="always"
       xlink:href="#linearGradient1"
       id="linearGradient2"
       x1="125.40197"
       y1="271.834"
       x2="431.02424"
       y2="271.834"
       gradientUnits="userSpaceOnUse"
       gradientTransform="matrix(0.66671675,0,0,0.66671675,77.887125,76.145861)" />
  </defs>
  <sodipodi:namedview
     id="namedview7"
     pagecolor="#ffffff"
     bordercolor="#000000"
     borderopacity="0.25"
     inkscape:showpageshadow="2"
     inkscape:pageopacity="0.0"
     inkscape:pagecheckerboard="0"
     inkscape:deskcolor="#d1d1d1"
     inkscape:zoom="7.0710678"
     inkscape:cx="252.08357"
     inkscape:cy="292.88363"
     inkscape:window-width="1600"
     inkscape:window-height="849"
     inkscape:window-x="0"
     inkscape:window-y="27"
     inkscape:window-maximized="1"
     inkscape:current-layer="svg7" />
  <circle
     style="fill:url(#linearGradient12);fill-opacity:1;stroke:none;stroke-width:8.55519;stroke-opacity:0.566238;paint-order:stroke fill markers"
     id="path8"
     cx="256.76401"
     cy="254.29257"
     r="151.47804" />
  <path
     id="rect1-3"
     style="fill:#ffffff;fill-opacity:0.5;stroke:none;stroke-width:10.6674;stroke-dasharray:none;stroke-opacity:1;paint-order:stroke fill markers"
     d="m 132.07004,168.2856 a 151.47804,151.47804 0 0 0 -6.72056,10.66746 h 262.82833 a 151.47804,151.47804 0 0 0 -6.72055,-10.66746 z" />
  <path
     style="fill:#ff2bd5;fill-opacity:1;stroke-width:8.91663;stroke-opacity:0.415999;paint-order:stroke fill markers"
     d="M 233.75619,406.90812 227.3446,372.21014"
     id="path9" />
  <path
     id="rect1-2"
     style="fill:#ffffff;fill-opacity:0.5;stroke:none;stroke-width:10.6674;stroke-dasharray:none;stroke-opacity:1;paint-order:stroke fill markers"
     d="m 133.66391,342.56561 a 151.47804,151.47804 0 0 0 8.39776,10.66746 h 229.40394 a 151.47804,151.47804 0 0 0 8.39778,-10.66746 z" />
  <path
     id="rect1-2-5"
     style="fill:#ffffff;fill-opacity:0.5;stroke:none;stroke-width:10.6674;stroke-dasharray:none;stroke-opacity:1;paint-order:stroke fill markers"
     d="m 112.78473,301.3633 a 151.47804,151.47804 0 0 0 3.9365,10.66747 h 280.08484 a 151.47804,151.47804 0 0 0 3.93648,-10.66747 z" />
  <path
     id="rect1"
     style="fill:#ffffff;fill-opacity:0.5;stroke:none;stroke-width:10.6674;stroke-dasharray:none;stroke-opacity:1;paint-order:stroke fill markers"
     d="m 105.33105,258.0267 a 151.47804,151.47804 0 0 0 0.64067,10.66748 h 301.58385 a 151.47804,151.47804 0 0 0 0.64067,-10.66748 z" />
  <path
     id="path15"
     style="fill:url(#linearGradient2);fill-opacity:1;stroke:none;stroke-width:10.6674;stroke-linejoin:round;stroke-dasharray:none;stroke-dashoffset:0;stroke-opacity:1;paint-order:stroke fill markers"
     d="m 288.83656,104.9475 c 0,0 -7.28724,26.06662 -10.97869,39.29592 -7.88447,6.17973 -13.06999,11.96314 -13.06999,11.96314 0,0 -14.23713,-20.17692 -27.81458,-28.56855 -13.57748,-8.39163 -31.8761,-7.31044 -31.8761,-7.31044 0,0 -7.60135,2.6e-4 -16.80205,3.60053 -9.20068,3.60027 -12.93456,6.00045 -12.93456,6.00045 0,0 9.33507,-0.26695 23.06945,4.40007 13.73436,4.66701 19.73454,7.46801 19.73454,7.46801 l 18.86731,-4.26725 -5.1332,7.20106 c 0,0 9.0012,5.80044 13.86823,11.00083 4.86704,5.20039 7.13335,8.13342 7.13335,8.13342 0,0 -8.46678,-3.53308 -34.46874,-1.13289 -26.00195,2.40017 -51.60413,36.66941 -51.60413,36.66941 0,0 25.06777,-10.4013 39.86888,-13.86822 14.80111,-3.46693 28.93577,-5.20092 28.93577,-5.20092 0,0 -11.20007,4.80062 -23.20097,24.93547 -12.0009,20.13485 -8.53449,52.13803 -8.53449,52.13803 0,0 19.06809,-38.40289 37.33614,-51.33719 18.26803,-12.93431 22.00165,-13.33433 22.00165,-13.33433 0,0 -14.66751,31.46902 -20.40128,82.00615 -5.73376,50.53713 18.40112,135.07656 18.40112,135.07656 l 29.0686,-4.5342 c 0,0 -27.7349,-27.46847 -30.13508,-98.40713 -2.40018,-70.93866 10.13357,-113.34185 10.13357,-113.34185 0,0 10.40131,0.80006 25.86914,21.33494 15.46782,20.53488 24.53439,37.33614 24.53439,37.33614 0,0 5.86815,-33.33636 -6.93281,-48.5375 -12.80096,-15.20114 -32.5363,-21.86753 -32.5363,-21.86753 0,0 8.33422,-4.3334 25.60218,-3.06664 17.26797,1.26676 53.08732,17.64066 53.08732,17.64065 0,0 -9.61732,-16.59533 -32.15215,-28.09847 -22.53483,-11.50313 -49.47117,0.19012 -49.47117,0.19012 0,0 2.51497,-9.99616 17.69534,-21.21643 15.18038,-11.22027 34.60417,-22.34543 34.60417,-22.34543 0,0 -16.02876,0.75451 -33.56632,7.82611 -4.3636,1.75952 -8.55208,4.09629 -12.38244,6.61508 l 10.58412,-33.1965 z" />
</svg>
