<?xml version="1.0" encoding="UTF-8" standalone="no"?>
<svg
   width="512"
   height="512"
   fill="none"
   viewBox="0 0 512 512"
   version="1.1"
   id="svg7"
   sodipodi:docname="base_new2.svg"
   inkscape:version="1.4.2 (ebf0e940d0, 2025-05-08)"
   xmlns:inkscape="http://www.inkscape.org/namespaces/inkscape"
   xmlns:sodipodi="http://sodipodi.sourceforge.net/DTD/sodipodi-0.dtd"
   xmlns:xlink="http://www.w3.org/1999/xlink"
   xmlns="http://www.w3.org/2000/svg"
   xmlns:svg="http://www.w3.org/2000/svg">
  <defs
     id="defs7">
    <linearGradient
       id="linearGradient24"
       inkscape:collect="always">
      <stop
         style="stop-color:#f71baa;stop-opacity:0.56623769;"
         offset="0"
         id="stop24" />
      <stop
         style="stop-color:#fa87d4;stop-opacity:0.25;"
         offset="1"
         id="stop25" />
    </linearGradient>
    <rect
       x="22.627417"
       y="402.76802"
       width="521.34025"
       height="248.94868"
       id="rect24" />
    <linearGradient
       id="linearGradient1"
       inkscape:collect="always">
      <stop
         style="stop-color:#fe00b1;stop-opacity:1;"
         offset="0"
         id="stop1" />
      <stop
         style="stop-color:#fe00b1;stop-opacity:0;"
         offset="1"
         id="stop2" />
    </linearGradient>
    <linearGradient
       id="linearGradient11"
       inkscape:collect="always">
      <stop
         style="stop-color:#ff0950;stop-opacity:0.5;"
         offset="0"
         id="stop11" />
      <stop
         style="stop-color:#bf42f6;stop-opacity:0.75;"
         offset="0.49556771"
         id="stop20" />
      <stop
         style="stop-color:#5da5ed;stop-opacity:1;"
         offset="1"
         id="stop12" />
    </linearGradient>
    <linearGradient
       inkscape:collect="always"
       xlink:href="#linearGradient11"
       id="linearGradient12"
       x1="270.39996"
       y1="39.999989"
       x2="270.39996"
       y2="494.39996"
       gradientUnits="userSpaceOnUse"
       spreadMethod="reflect" />
    <linearGradient
       inkscape:collect="always"
       xlink:href="#linearGradient1"
       id="linearGradient2"
       x1="125.40197"
       y1="271.834"
       x2="431.02424"
       y2="271.834"
       gradientUnits="userSpaceOnUse" />
    <linearGradient
       inkscape:collect="always"
       xlink:href="#linearGradient24"
       id="linearGradient25"
       x1="270.39996"
       y1="33.58408"
       x2="270.39996"
       y2="500.81589"
       gradientUnits="userSpaceOnUse" />
  </defs>
  <sodipodi:namedview
     id="namedview7"
     pagecolor="#ffffff"
     bordercolor="#000000"
     borderopacity="0.25"
     inkscape:showpageshadow="2"
     inkscape:pageopacity="0.0"
     inkscape:pagecheckerboard="0"
     inkscape:deskcolor="#d1d1d1"
     inkscape:zoom="0.88388348"
     inkscape:cx="198.55558"
     inkscape:cy="227.40554"
     inkscape:window-width="1600"
     inkscape:window-height="849"
     inkscape:window-x="0"
     inkscape:window-y="27"
     inkscape:window-maximized="1"
     inkscape:current-layer="svg7" />
  <circle
     style="fill:url(#linearGradient12);fill-opacity:1;stroke-width:12.8318;stroke-opacity:0.56623769;paint-order:stroke fill markers;stroke:url(#linearGradient25)"
     id="path8"
     cx="270.39996"
     cy="267.19998"
     r="227.2" />
  <path
     id="rect1-3"
     style="fill:#ffffff;fill-opacity:0.5;stroke:none;stroke-width:16;stroke-dasharray:none;stroke-opacity:1;paint-order:stroke fill markers"
     d="M 83.373047 138.19922 A 227.2 227.2 0 0 0 73.292969 154.19922 L 467.50586 154.19922 A 227.2 227.2 0 0 0 457.42578 138.19922 L 83.373047 138.19922 z " />
  <path
     style="fill:#ff2bd5;fill-opacity:1;stroke-width:13.374;stroke-opacity:0.415999;paint-order:stroke fill markers"
     d="m 235.89082,496.10612 -9.61665,-52.04306"
     id="path9" />
  <path
     id="rect1-2"
     style="fill:#ffffff;fill-opacity:0.5;stroke:none;stroke-width:16;stroke-dasharray:none;stroke-opacity:1;paint-order:stroke fill markers"
     d="M 85.763672 399.59961 A 227.2 227.2 0 0 0 98.359375 415.59961 L 442.43945 415.59961 A 227.2 227.2 0 0 0 455.03516 399.59961 L 85.763672 399.59961 z " />
  <path
     id="rect1-2-5"
     style="fill:#ffffff;fill-opacity:0.5;stroke:none;stroke-width:16;stroke-dasharray:none;stroke-opacity:1;paint-order:stroke fill markers"
     d="M 54.447266 337.80078 A 227.2 227.2 0 0 0 60.351562 353.80078 L 480.44727 353.80078 A 227.2 227.2 0 0 0 486.35156 337.80078 L 54.447266 337.80078 z " />
  <path
     id="rect1"
     style="fill:#ffffff;fill-opacity:0.5;stroke:none;stroke-width:16;stroke-dasharray:none;stroke-opacity:1;paint-order:stroke fill markers"
     d="M 43.267578 272.80078 A 227.2 227.2 0 0 0 44.228516 288.80078 L 496.57031 288.80078 A 227.2 227.2 0 0 0 497.53125 272.80078 L 43.267578 272.80078 z " />
  <path
     id="path15"
     style="fill:url(#linearGradient2);fill-opacity:1;stroke:#ffffff;stroke-width:16;stroke-linejoin:round;stroke-dasharray:none;stroke-dashoffset:0;stroke-opacity:1;paint-order:stroke fill markers"
     d="M 316.40039 43.199219 C 316.40039 43.199219 305.47034 82.296213 299.93359 102.13867 C 288.10777 111.40757 280.33008 120.08203 280.33008 120.08203 C 280.33008 120.08203 258.976 89.818923 238.61133 77.232422 C 218.24665 64.645922 190.80078 66.267578 190.80078 66.267578 C 190.80078 66.267578 179.39961 66.267969 165.59961 71.667969 C 151.79961 77.067969 146.19922 80.667969 146.19922 80.667969 C 146.19922 80.667969 160.20078 80.267578 180.80078 87.267578 C 201.40078 94.267578 210.40039 98.46875 210.40039 98.46875 L 238.69922 92.068359 L 231 102.86914 C 231 102.86914 244.50078 111.56914 251.80078 119.36914 C 259.10078 127.16914 262.5 131.56836 262.5 131.56836 C 262.5 131.56836 249.80078 126.26914 210.80078 129.86914 C 171.80078 133.46914 133.40039 184.86914 133.40039 184.86914 C 133.40039 184.86914 170.99922 169.26836 193.19922 164.06836 C 215.39922 158.86836 236.59961 156.26758 236.59961 156.26758 C 236.59961 156.26758 219.80078 163.46797 201.80078 193.66797 C 183.80078 223.86797 189 271.86914 189 271.86914 C 189 271.86914 217.6 214.26914 245 194.86914 C 272.4 175.46914 278 174.86914 278 174.86914 C 278 174.86914 256.00039 222.06914 247.40039 297.86914 C 238.80039 373.66914 275 500.46875 275 500.46875 L 318.59961 493.66797 C 318.59961 493.66797 277.00039 452.46836 273.40039 346.06836 C 269.80039 239.66836 288.59961 176.06836 288.59961 176.06836 C 288.59961 176.06836 304.20039 177.26836 327.40039 208.06836 C 350.60039 238.86836 364.19922 264.06836 364.19922 264.06836 C 364.19922 264.06836 373.00078 214.06758 353.80078 191.26758 C 334.60078 168.46758 305 158.46875 305 158.46875 C 305 158.46875 317.50039 151.96914 343.40039 153.86914 C 369.30039 155.76914 423.02539 180.32813 423.02539 180.32812 C 423.02539 180.32812 408.60049 155.437 374.80078 138.18359 C 341.00108 120.93019 300.59961 138.46875 300.59961 138.46875 C 300.59961 138.46875 304.37178 123.47562 327.14062 106.64648 C 349.90947 89.817344 379.04297 73.130859 379.04297 73.130859 C 379.04297 73.130859 355.00164 74.262539 328.69727 84.869141 C 322.15236 87.508217 315.87012 91.013117 310.125 94.791016 L 326 45 L 316.40039 43.199219 z " />
</svg>
