<?xml version="1.0" encoding="UTF-8" standalone="no"?>
<svg
   width="512"
   height="512"
   fill="none"
   viewBox="0 0 512 512"
   version="1.1"
   id="svg7"
   sodipodi:docname="base_named.svg"
   inkscape:version="1.4.2 (ebf0e94, 2025-05-08)"
   inkscape:export-filename="base.svg.2026_01_12_14_43_47.0.svg"
   inkscape:export-xdpi="96"
   inkscape:export-ydpi="96"
   xmlns:inkscape="http://www.inkscape.org/namespaces/inkscape"
   xmlns:sodipodi="http://sodipodi.sourceforge.net/DTD/sodipodi-0.dtd"
   xmlns:xlink="http://www.w3.org/1999/xlink"
   xmlns="http://www.w3.org/2000/svg"
   xmlns:svg="http://www.w3.org/2000/svg">
  <defs
     id="defs7">
    <linearGradient
       id="linearGradient1"
       inkscape:collect="always">
      <stop
         style="stop-color:#ff2e88;stop-opacity:0.5;"
         offset="0"
         id="stop3" />
      <stop
         style="stop-color:#bf42f6;stop-opacity:0.5;"
         offset="0.44631511"
         id="stop4" />
      <stop
         style="stop-color:#5da5ed;stop-opacity:0.5;"
         offset="0.90088946"
         id="stop2" />
    </linearGradient>
    <linearGradient
       id="linearGradient138"
       inkscape:collect="always">
      <stop
         style="stop-color:#ff2e88;stop-opacity:1;"
         offset="0"
         id="stop152" />
      <stop
         style="stop-color:#bf42f6;stop-opacity:1;"
         offset="0.44971901"
         id="stop137" />
      <stop
         style="stop-color:#5da5ed;stop-opacity:1;"
         offset="0.89793283"
         id="stop138" />
    </linearGradient>
    <linearGradient
       id="swatch37"
       inkscape:swatch="solid">
      <stop
         style="stop-color:#ffffff;stop-opacity:1;"
         offset="0"
         id="stop37" />
    </linearGradient>
    <linearGradient
       id="swatch28"
       inkscape:swatch="solid">
      <stop
         style="stop-color:#252525;stop-opacity:1;"
         offset="0"
         id="stop28" />
    </linearGradient>
    <linearGradient
       id="swatch27"
       inkscape:swatch="solid">
      <stop
         style="stop-color:#000000;stop-opacity:1;"
         offset="0"
         id="stop27" />
    </linearGradient>
    <linearGradient
       id="swatch15"
       inkscape:swatch="solid">
      <stop
         style="stop-color:#ffffff;stop-opacity:1;"
         offset="0"
         id="stop16" />
    </linearGradient>
    <linearGradient
       id="linearGradient14"
       inkscape:swatch="gradient">
      <stop
         style="stop-color:#ffffff;stop-opacity:1;"
         offset="0"
         id="stop14" />
      <stop
         style="stop-color:#ffffff;stop-opacity:0;"
         offset="1"
         id="stop15" />
    </linearGradient>
    <linearGradient
       id="swatch9"
       inkscape:swatch="solid">
      <stop
         style="stop-color:#ffffff;stop-opacity:1;"
         offset="0"
         id="stop10" />
    </linearGradient>
    <linearGradient
       id="swatch8"
       inkscape:swatch="solid">
      <stop
         style="stop-color:#ffffff;stop-opacity:1;"
         offset="0"
         id="stop9" />
    </linearGradient>
    <rect
       x="22.627417"
       y="402.76802"
       width="521.34025"
       height="248.94868"
       id="rect24" />
    <linearGradient
       id="linearGradient11"
       inkscape:collect="always">
      <stop
         style="stop-color:#ff2e88;stop-opacity:1;"
         offset="0"
         id="stop11" />
      <stop
         style="stop-color:#bf42f6;stop-opacity:1;"
         offset="0.44971901"
         id="stop154" />
      <stop
         style="stop-color:#5da5ed;stop-opacity:1;"
         offset="0.89793283"
         id="stop12" />
    </linearGradient>
    <linearGradient
       inkscape:collect="always"
       xlink:href="#linearGradient138"
       id="linearGradient6"
       gradientUnits="userSpaceOnUse"
       gradientTransform="matrix(1.118028,0,0,1.116699,-46.314723,-42.388667)"
       x1="270.39996"
       y1="40.000019"
       x2="270.39996"
       y2="494.39996"
       spreadMethod="pad" />
    <clipPath
       clipPathUnits="userSpaceOnUse"
       id="clipPath18">
      <circle
         style="opacity:1;mix-blend-mode:normal;fill:none;fill-opacity:1;fill-rule:nonzero;stroke:none;stroke-width:10.8382;stroke-opacity:0.566238;paint-order:stroke fill markers"
         id="circle18"
         cx="-246.8315"
         cy="246.8338"
         inkscape:label="Circle"
         r="191.89999" />
    </clipPath>
    <clipPath
       clipPathUnits="userSpaceOnUse"
       id="clipPath22">
      <circle
         style="opacity:1;mix-blend-mode:normal;fill:none;fill-opacity:1;fill-rule:nonzero;stroke:none;stroke-width:10.8382;stroke-opacity:0.566238;paint-order:stroke fill markers"
         id="circle22"
         cx="256"
         cy="256"
         inkscape:label="Circle"
         r="191.89999" />
    </clipPath>
    <linearGradient
       inkscape:collect="always"
       xlink:href="#linearGradient11"
       id="linearGradient27"
       gradientUnits="userSpaceOnUse"
       gradientTransform="translate(-6.9401139e-5,-2.8678628)"
       x1="256.00012"
       y1="102.94693"
       x2="256.00012"
       y2="409.05307" />
    <clipPath
       clipPathUnits="userSpaceOnUse"
       id="clipPath128">
      <circle
         style="fill:none;fill-opacity:1;stroke:#03ffff;stroke-width:0;stroke-dasharray:none;stroke-opacity:1"
         id="circle128"
         cx="256"
         cy="256"
         r="192" />
    </clipPath>
    <linearGradient
       inkscape:collect="always"
       xlink:href="#linearGradient1"
       id="linearGradient2"
       x1="256"
       y1="64"
       x2="256"
       y2="448"
       gradientUnits="userSpaceOnUse"
       gradientTransform="matrix(1.3229974,0,0,1.3214002,-82.687336,-82.290326)" />
    <linearGradient
       id="swatch14"
       inkscape:swatch="solid">
      <stop
         style="stop-color:#66003b;stop-opacity:1;"
         offset="0"
         id="stop14-7" />
    </linearGradient>
    <filter
       inkscape:label="Light Contour"
       inkscape:menu="Image Paint and Draw"
       inkscape:menu-tooltip="Uses vertical specular light to draw lines"
       style="color-interpolation-filters:sRGB"
       id="filter11"
       x="-0.01907517"
       y="-0.054959154"
       width="1.0379885"
       height="1.1092314">
      <feGaussianBlur
         in="SourceGraphic"
         stdDeviation="0.38250006"
         result="result3"
         id="feGaussianBlur9" />
      <feComponentTransfer
         result="result1"
         in="result3"
         id="feComponentTransfer9">
        <feFuncR
           type="discrete"
           tableValues="0 0.1 0.2 0.3 0.4 0.5 0.6 0.7 0.8 0.9 1"
           id="feFuncR9" />
        <feFuncG
           type="discrete"
           tableValues="0 0.1 0.2 0.3 0.4 0.5 0.6 0.7 0.8 0.9 1"
           id="feFuncG9" />
        <feFuncB
           type="discrete"
           tableValues="0 0.1 0.2 0.3 0.4 0.5 0.6 0.7 0.8 0.9 1"
           id="feFuncB9" />
      </feComponentTransfer>
      <feGaussianBlur
         result="result5"
         stdDeviation="0.01"
         id="feGaussianBlur10" />
      <feBlend
         in2="result5"
         result="result6"
         mode="lighten"
         in="result5"
         id="feBlend10" />
      <feColorMatrix
         in="result6"
         type="luminanceToAlpha"
         result="result2"
         id="feColorMatrix10" />
      <feSpecularLighting
         surfaceScale="5"
         result="result9"
         specularExponent="20"
         in="result2"
         specularConstant="1"
         id="feSpecularLighting10">
        <feDistantLight
           azimuth="180"
           elevation="90"
           id="feDistantLight10" />
      </feSpecularLighting>
      <feComposite
         in2="result6"
         operator="arithmetic"
         in="result9"
         k1="0.4"
         k3="0.7"
         result="result3"
         id="feComposite10"
         k2="0"
         k4="0" />
      <feBlend
         in2="result1"
         in="result3"
         mode="normal"
         result="result8"
         id="feBlend11" />
      <feComposite
         in2="SourceGraphic"
         in="result8"
         operator="in"
         result="result7"
         id="feComposite11" />
    </filter>
    <filter
       inkscape:collect="always"
       style="color-interpolation-filters:sRGB"
       id="filter7"
       x="-0.016488018"
       y="-0.04873872"
       width="1.0330367"
       height="1.0974919">
      <feGaussianBlur
         inkscape:collect="always"
         stdDeviation="0.3870003"
         id="feGaussianBlur7" />
    </filter>
  </defs>
  <sodipodi:namedview
     id="namedview7"
     pagecolor="#ffffff"
     bordercolor="#000000"
     borderopacity="0.25"
     inkscape:showpageshadow="2"
     inkscape:pageopacity="0.0"
     inkscape:pagecheckerboard="0"
     inkscape:deskcolor="#d1d1d1"
     inkscape:zoom="1.4142136"
     inkscape:cx="261.6295"
     inkscape:cy="287.4389"
     inkscape:window-width="1920"
     inkscape:window-height="1008"
     inkscape:window-x="1080"
     inkscape:window-y="351"
     inkscape:window-maximized="1"
     inkscape:current-layer="svg7" />
  <path
     id="path8-7"
     style="display:inline;mix-blend-mode:multiply;fill:url(#linearGradient6);fill-opacity:1;fill-rule:nonzero;stroke:url(#linearGradient2);stroke-width:3.9666;stroke-dasharray:none;stroke-opacity:0.566238;paint-order:stroke fill markers"
     inkscape:label="Circle"
     d="M 256,2.2792898 A 254.0155,253.71401 0 0 0 150.68475,25.115202 c 19.54414,1.070775 38.74692,5.250294 51.56848,11.647658 14.14361,7.056691 28.63804,19.185961 39.4212,29.347551 h 40.60981 c 1.03847,-0.68139 2.10297,-1.36938 3.1938,-2.05957 5.45602,-15.78533 14.79164,-43.183497 19.49612,-57.0097682 A 254.0155,253.71401 0 0 0 256,2.2792898 Z m 61.57106,7.567234 -18.26098,46.1544672 c 7.79702,-4.13918 16.35655,-7.87447 25.20671,-10.87081 23.1229,-7.828433 43.96931,-10.170904 54.94058,-10.868226 A 254.0155,253.71401 0 0 0 317.57106,9.8465238 Z m 65.39277,26.4001532 c -9.68256,4.806644 -33.05532,16.642034 -55.68217,29.863734 H 424.4677 A 254.0155,253.71401 0 0 0 382.96383,36.246677 Z M 113.90698,45.690231 A 254.0155,253.71401 0 0 0 87.532302,66.110411 H 194.2739 c -1.47402,-0.80231 -2.35141,-1.25949 -2.35141,-1.25949 l 10.4496,-11.83348 -38.40568,7.01234 c 0,1e-5 -12.21537,-4.60266 -40.17313,-12.27223 -3.45336,-0.94731 -6.75329,-1.61824 -9.8863,-2.06732 z m -36.803618,30.18635 a 254.0155,253.71401 0 0 0 -34.88372,43.090929 h 59.976738 c 18.11461,-12.04145 40.14252,-22.882149 62.31266,-24.534159 52.93006,-3.9444 70.16538,1.86342 70.16538,1.86342 0,0 -4.612,-4.8206 -14.51938,-13.36656 -2.72366,-2.34942 -6.0844,-4.77373 -9.52455,-7.05363 z m 174.472868,0 c 4.57322,4.7186 7.29716,7.83565 7.29716,7.83565 0,0 3.53501,-3.18484 9.62532,-7.83565 z m 60.27649,0 c -21.56573,15.45339 -25.4703,27.979669 -25.4703,27.979669 0,0 54.83326,-19.215729 100.70543,-0.31228 11.63986,4.79661 21.58481,10.13159 29.94832,15.42354 h 52.74419 A 254.0155,253.71401 0 0 0 434.89664,75.876581 Z M 36.250648,128.73367 A 254.0155,253.71401 0 0 0 16.372095,171.82459 H 147.45478 c 1.45695,-2.5815 3.06539,-5.08648 4.83979,-7.48982 14.23694,-19.28301 27.92088,-30.0088 36.86047,-35.6011 h -30.25323 c -5.87346,0.93472 -12.04945,1.99094 -18.28166,3.16937 -30.12936,5.69727 -81.157618,22.78945 -81.157618,22.78945 0,0 11.47125,-12.39249 29.11369,-25.95882 z m 265.630492,0 c 33.48676,11.2434 52.42799,26.78443 62.7752,43.09092 h 130.97157 a 254.0155,253.71401 0 0 0 -19.87856,-43.09092 h -44.81136 c 14.85233,11.5863 21.59948,20.9854 21.59948,20.9854 0,0 -33.5226,-12.37087 -66.0646,-20.9854 z m -45.96641,16.27007 c -1.00419,0.0106 -10.12705,0.72026 -44.98966,20.64729 -3.12132,1.78406 -6.25434,3.86182 -9.37468,6.17356 h 41.81911 c 7.17181,-17.34774 12.64083,-26.82085 12.64083,-26.82085 0,0 -0.0287,-7.1e-4 -0.0957,0 z m 14.18088,0.0465 c 0,0 -3.31228,9.32762 -7.30492,26.77438 h 51.78554 C 287.6577,146.14158 270.09561,145.0502 270.09561,145.0502 Z M 13.152456,181.59075 A 254.0155,253.71401 0 0 0 3.927651,224.68167 H 134.1447 c 0.56161,-12.72411 2.67825,-28.50188 8.61499,-43.09092 z m 176.661504,0 c -14.27121,13.10564 -27.60733,29.58761 -37.56073,43.09092 h 73.3721 c 4.47018,-16.79061 9.35068,-31.26371 13.86562,-43.09092 z m 70.85787,0 c -2.41384,11.76417 -4.9032,26.20707 -6.94831,43.09092 H 360.4832 c -8.32133,-10.88917 -20.66988,-26.17008 -36.35141,-43.09092 z m 109.17313,0 c 6.63611,15.24089 6.92441,30.5373 5.57882,43.09092 h 132.64857 a 254.0155,253.71401 0 0 0 -9.22481,-43.09092 z M 2.90181,234.44783 A 254.0155,253.71401 0 0 0 1.984498,255.9933 254.0155,253.71401 0 0 0 2.90181,277.53876 h 211.89923 c 2.25762,-15.52555 5.14325,-29.93448 8.3385,-43.09093 h -77.8863 c -6.46396,9.27617 -10.33076,15.56549 -10.33076,15.56549 0,0 -0.82623,-6.14945 -0.9354,-15.56549 z m 249.72093,0 c -1.3692,13.09684 -2.4456,27.49209 -3.02068,43.09093 h 259.49613 a 254.0155,253.71401 0 0 0 0.91731,-21.54546 254.0155,253.71401 0 0 0 -0.91731,-21.54547 H 374.02584 c -0.445,2.5469 -0.90878,4.89768 -1.32817,7.01751 0,0 -1.69726,-2.53821 -4.94056,-7.01751 z M 3.927651,287.30493 a 254.0155,253.71401 0 0 0 9.224805,43.09091 H 214.04393 c -1.29238,-15.40742 -1.57503,-30.04388 -0.41861,-43.09091 z m 245.385009,0 c -0.30355,13.54349 -0.22032,27.92598 0.36951,43.09091 h 249.16537 a 254.0155,253.71401 0 0 0 9.22481,-43.09091 z M 16.369511,340.16201 a 254.0155,253.71401 0 0 0 19.878554,43.09091 H 221.4677 c -2.69781,-14.4523 -4.96108,-29.01285 -6.4832,-43.09091 z m 233.842379,0 c 1.15864,15.47765 3.81286,29.83979 7.51679,43.09091 h 218.02325 a 254.0155,253.71401 0 0 0 19.87856,-43.09091 z M 42.217052,393.01909 a 254.0155,253.71401 0 0 0 34.88372,43.09093 H 233.09561 c -3.40902,-13.67281 -6.76794,-28.2531 -9.73902,-43.09093 z m 218.490958,0 c 5.34985,16.15926 12.22007,30.51982 19.68733,43.09093 h 154.50389 a 254.0155,253.71401 0 0 0 34.88371,-43.09093 z M 87.529722,445.87618 a 254.0155,253.71401 0 0 0 166.229968,63.8208 c -3.67805,-12.0825 -10.85464,-35.49828 -18.18088,-63.8208 z m 199.010328,0 c 17.5887,26.43772 36.99259,43.60598 47.33592,51.61309 a 254.0155,253.71401 0 0 0 90.59431,-51.61309 z" />
  <path
     id="path27"
     style="display:inline;mix-blend-mode:multiply;fill:none;fill-opacity:1;fill-rule:evenodd;stroke:url(#linearGradient27);stroke-width:3;stroke-linejoin:round;stroke-dasharray:none;stroke-dashoffset:0;stroke-opacity:1;paint-order:stroke fill markers"
     d="m 318.98012,441.7375 c -9.87518,-6.73978 -64.39137,-49.0272 -67.68975,-127.81978 -3.69298,-88.21893 15.36468,-141.91029 15.36468,-141.91029 0,0 16.00378,0.99513 39.80316,26.53195 23.79939,25.53753 37.74965,46.43102 37.74965,46.43102 3.91262,-19.79992 12.84563,-66.32402 -60.72865,-87.55523 0,0 12.82326,-5.38883 39.3925,-3.81382 26.56907,1.57572 81.6822,21.93799 81.6822,21.93799 0,0 -14.79766,-20.63773 -49.47063,-34.94295 -34.67291,-14.30533 -76.1182,0.23644 -76.1182,0.23644 0,0 3.86959,-12.43127 27.22669,-26.38478 23.35718,-13.9537 49.27409,-26.501533 49.27409,-26.501533 0,0 -21.97854,-0.26548 -47.67725,8.44535 -6.68948,2.267506 -13.15863,5.094213 -19.05208,8.226563 l 16.05803,-40.634103 -4.4617,-1.89059 -5.1305,-0.95965 c 0,0 -11.24072,33.12428 -16.92051,49.576513 -12.13137,7.68489 -20.11005,14.87735 -20.11005,14.87735 0,0 -21.90573,-25.09227 -42.79668,-35.527803 -26.03412,-13.00525 -86.88249,-13.90359 -94.0044,10.401173 0,0 13.56804,-7.884703 34.70032,-2.080917 21.13214,5.803997 30.3644,9.287307 30.3644,9.287307 l 29.02989,-5.30681 -7.89811,8.95527 c 0,0 13.8496,7.21324 21.33822,13.68063 7.48859,6.46722 10.9757,10.11472 10.9757,10.11472 0,0 -13.02739,-4.39388 -53.03507,-1.40893 -40.00771,2.98473 -79.40016,45.60209 -79.40016,45.60209 0,0 38.57037,-12.93531 61.34393,-17.24677 22.77354,-4.31126 44.52166,-6.46757 44.52166,-6.46757 0,0 -17.23298,5.97003 -35.69792,31.00932 -18.46522,25.03987 -13.13146,64.83866 -13.13146,64.83866 0,0 29.33874,-47.7577 57.44675,-63.84249 28.10798,-16.08527 34.0799,-15.6238 34.0799,-15.6238 0,0 -22.56785,39.13486 -31.39017,101.98268 -8.03005,57.2039 26.77689,163.75449 31.1572,178.89699"
     sodipodi:nodetypes="cscsccscscscsccccccscscccscscscscscsc"
     inkscape:label="MainOutline"
     clip-path="url(#clipPath128)"
     transform="matrix(1.3229974,0,0,1.3214002,-82.687282,-82.278451)" />
  <path
     id="path2-1"
     style="mix-blend-mode:normal;fill:#ffffff;fill-opacity:1;stroke:#bf42f6;stroke-width:13.374;stroke-dasharray:none;paint-order:stroke fill markers;filter:url(#filter7);stroke-opacity:1"
     d="m 145.21909,346.52976 c -0.36717,0.0115 -0.78696,0.0621 -1.31244,0.14467 -0.89347,0.19595 -1.77894,0.37878 -2.69859,0.4744 -1.31703,0.0824 -2.63241,0.20309 -3.93581,0.38514 -1.3864,0.17422 -2.76512,0.37708 -4.14651,0.57743 -1.35068,0.15854 -2.66021,0.49126 -3.98033,0.77078 -1.69225,0.28843 -3.36884,0.61937 -5.0142,1.06303 -2.33483,0.621 -4.50209,1.60062 -6.66174,2.55931 -2.83865,1.16198 -5.52832,2.55991 -8.17138,4.01008 -3.18304,1.80707 -6.31423,3.67733 -9.462934,5.52666 -3.27462,1.87793 -6.52001,3.79152 -9.73875,5.73745 -2.92949,1.74613 -5.68427,3.68507 -8.45457,5.60525 -3.032465,2.15669 -6.061318,4.31477 -8.93096,6.6269 -2.438097,1.94649 -4.163062,4.26009 -5.395985,6.87905 -0.99348,2.24644 -1.524524,4.60499 -2.050822,6.95373 -0.617702,2.72368 -0.913067,5.48545 -1.09315,8.25123 -0.223191,2.30002 0.08835,4.5875 0.701535,6.82623 0.533463,1.87247 1.484494,3.59709 2.907462,5.09573 1.871362,1.59345 4.366617,2.73481 6.860779,3.46541 2.099408,0.49017 4.210321,0.94275 6.313131,1.42214 2.05676,0.5701 4.14641,0.92196 6.29716,1.09997 1.69101,0.11146 3.38661,0.14445 5.08207,0.15796 -0.15076,0.0732 -0.3014,0.14681 -0.45181,0.22041 -2.33784,1.23387 -4.69384,2.42557 -7.14796,3.48623 -2.96518,1.18663 -5.896997,2.43199 -8.823148,3.68609 -2.537803,1.07005 -4.969591,2.30177 -7.364192,3.58356 -2.46534,1.22533 -4.774267,2.63586 -6.956316,4.19588 -2.378638,1.72346 -4.531043,3.6552 -6.897588,5.38667 -2.288037,1.65131 -4.707011,3.1643 -7.017788,4.79152 -2.247338,1.62886 -4.199321,3.52352 -6.130999,5.41373 -2.61281,2.55699 -4.760433,5.41855 -6.903725,8.2624 -1.764012,2.36792 -3.309553,4.83915 -4.83082,7.32196 -1.194327,1.79711 -2.176048,3.67791 -3.105611,5.58079 -1.062396,2.13401 -1.832866,4.346 -2.172168,6.64355 -0.06136,1.42083 -0.103686,2.90892 0.371067,4.29138 0.240851,0.70133 0.582048,1.29129 0.930646,1.95637 1.902891,2.83603 4.153568,5.49001 6.407133,8.13048 1.288086,1.57628 2.808631,2.96283 4.499098,4.22788 1.656356,1.21431 3.617814,2.0486 5.736018,2.47188 1.796048,0.37107 3.631801,0.57806 5.47369,0.6883 2.272606,0.22605 4.523463,0.62308 6.757265,1.04116 2.501815,0.55125 5.036387,0.91279 7.611116,1.08331 2.084536,0.12762 4.175299,0.11465 6.263688,0.1119 2.31306,0.0138 4.620399,0.0129 6.928658,-0.1158 2.33201,-0.25186 4.673739,-0.4186 7.009736,-0.63964 2.29828,-0.15701 4.58784,-0.35708 6.85925,-0.6961 2.38907,-0.33242 4.76236,-0.74476 7.12553,-1.19001 4.085604,-0.77201 8.133414,-1.68394 12.177514,-2.59783 3.72474,-0.83576 7.37787,-1.87639 10.91882,-3.16148 3.87139,-1.48184 7.57887,-3.22884 11.24409,-5.04108 4.19745,-2.13428 8.1013,-4.65035 11.93271,-7.22334 2.5448,-1.73661 4.88729,-3.67828 7.1753,-5.65183 1.69158,-1.50672 3.42989,-2.97579 5.09652,-4.5024 1.52776,-1.39989 2.97206,-2.86497 4.37808,-4.35305 0.64813,-0.61944 1.01439,-1.24055 1.97834,-1.50021 0.84188,-0.14302 1.7091,-0.12189 2.56379,-0.12048 0.9621,0.0681 1.90164,-0.0742 2.85431,-0.16057 0.70283,-0.0807 1.41234,-0.0968 2.12026,-0.12385 0.10979,0.0446 0.22011,0.0883 0.33109,0.13089 0.26944,0.10328 0.572,0.12834 0.86094,0.18164 1.17005,0.21589 2.3027,0.30166 3.49413,0.22561 2.99483,-0.35833 5.81648,-1.28119 8.51077,-2.41047 3.32234,-1.3696 6.28682,-3.19511 9.16655,-5.13294 0.33712,-0.23713 0.67458,-0.47409 1.01204,-0.71093 0.68174,-0.34929 1.36159,-0.70142 2.03732,-1.05886 2.2878,-1.14164 4.34275,-2.56599 6.42248,-3.95387 2.40617,-1.41895 4.56604,-3.07126 6.5957,-4.85528 2.02202,-1.70896 3.81565,-3.58575 5.56246,-5.49544 1.74525,-2.07015 3.68258,-4.01022 5.61406,-5.95447 1.6565,-1.79596 3.27612,-3.61231 5.00805,-5.35751 2.27172,-2.25994 4.5814,-4.49297 6.96367,-6.66958 -0.0763,1.78184 -0.0713,3.56556 -0.0716,5.34842 -0.007,2.49667 -0.005,4.99339 -0.01,7.49006 0.0294,2.35513 0.41125,4.68986 0.84497,7.01176 0.40091,2.13971 1.16964,4.19673 2.16694,6.18504 1.00115,1.97028 2.26291,3.83646 3.66365,5.62009 1.1279,1.50221 2.54348,2.80298 4.10442,3.98248 1.86363,1.43702 3.24449,1.67392 5.47709,1.75497 2.04239,0.0309 4.08531,0.009 6.12792,0.005 1.75107,0.0538 3.47661,-0.20351 5.19602,-0.44317 1.60342,-0.30036 3.18505,-0.67257 4.7608,-1.0625 2.56727,-0.55555 4.89376,-1.61338 7.24716,-2.60901 2.32998,-1.09539 4.76246,-2.01876 7.14674,-3.02382 3.46012,-1.56318 6.93475,-3.10203 10.41418,-4.63435 2.81675,-1.22841 5.64171,-2.44659 8.40697,-3.75713 2.39728,-1.16597 4.85958,-2.22249 7.32793,-3.27363 1.03831,-0.36738 2.01998,-0.88439 3.0893,-1.18481 0.46217,-0.0607 0.92526,-0.11631 1.38923,-0.16785 -0.56044,2.59175 -0.63821,5.23049 -0.73132,7.8575 0.005,1.58917 -0.20287,3.18917 0.10382,4.76447 0.37284,1.57161 1.34209,2.94354 2.38346,4.25598 0.91695,1.01033 1.85561,2.01644 3.07211,2.77634 1.77404,1.03734 3.72625,1.71167 5.72739,2.33656 1.12718,0.29155 2.1884,0.67538 3.22814,1.14214 0.88665,0.41804 1.78433,0.72255 2.78307,0.87124 0.89852,0.11918 1.80746,0.12223 2.71427,0.12619 1.16922,-0.004 2.33843,-0.006 3.50764,-0.01 1.77463,0.0233 3.54278,-0.0177 5.31305,-0.11919 2.42095,-0.16067 4.79459,-0.55762 7.14058,-1.07473 2.23177,-0.52594 4.35297,-1.30595 6.48882,-2.05214 1.73617,-0.60367 3.42344,-1.29532 5.11373,-1.98395 2.64985,-1.19316 5.41369,-2.16981 8.23955,-3.01653 2.61309,-0.7402 5.20304,-1.53511 7.82491,-2.25303 l -1.8564,-1.06875 c -2.61749,0.73529 -5.21702,1.51472 -7.83259,2.25486 -2.83272,0.86233 -5.60376,1.85572 -8.2878,3.01315 -1.69028,0.6793 -3.37848,1.36189 -5.10325,1.97719 -2.12571,0.74021 -4.2323,1.5292 -6.4581,2.03756 -2.34169,0.50808 -4.71338,0.88925 -7.12832,1.03777 -1.77755,0.0935 -3.55338,0.11299 -5.33424,0.0911 -1.17291,0 -2.3458,0.006 -3.51869,0 -0.89802,-0.008 -1.79922,-0.0211 -2.68632,-0.15354 -0.97713,-0.17312 -1.86093,-0.51174 -2.737,-0.91443 -1.04427,-0.46165 -2.13064,-0.80818 -3.24748,-1.12287 -0.78081,-0.2449 -1.56449,-0.49597 -2.32696,-0.78068 -0.96523,-0.676 -1.75842,-1.50148 -2.5392,-2.33967 -1.03842,-1.28331 -2.00752,-2.62915 -2.3976,-4.17064 -0.34373,-1.56709 -0.15544,-3.16852 -0.18092,-4.75405 0.0637,-2.7026 0.168,-5.41622 0.76267,-8.07974 0.0729,-0.2927 0.14927,-0.58436 0.23004,-0.87487 0.60328,-0.0551 1.20689,-0.10743 1.81003,-0.16005 3.3477,-0.34914 6.71376,-0.58073 10.03486,-1.08721 3.00953,-0.46822 5.86473,-1.41652 8.61059,-2.53589 2.2372,-0.85163 4.11445,-2.19556 5.98694,-3.50889 2.24105,-1.55022 4.18469,-3.36264 6.11317,-5.1803 1.86482,-1.91304 3.55615,-3.93674 5.0354,-6.07704 1.17886,-1.6839 2.0508,-3.49049 2.72009,-5.35883 0.45963,-1.46079 0.77677,-2.96168 0.57806,-4.47326 -0.33866,-1.38948 -2.136,-2.05415 -3.6999,-2.16664 -0.87411,-0.0922 -1.69926,0 -2.54474,0.16915 -0.8179,0.0939 -1.63039,0.23256 -2.40743,0.47179 -1.01165,0.27796 -2.07885,0.31139 -3.11846,0.4632 -1.22962,0.15561 -2.37317,0.60604 -3.47202,1.08019 -1.7214,0.86438 -3.52247,1.61268 -5.22858,2.49895 -1.76435,0.9203 -3.38096,2.03037 -4.98779,3.13493 -1.86159,1.26002 -3.4597,2.75089 -5.01819,4.26873 -1.91794,1.84617 -3.61781,3.84458 -5.39352,5.78794 -1.78515,1.96392 -3.27903,4.10297 -4.653,6.2873 -1.08862,1.66086 -1.77799,3.43771 -2.2907,5.26721 -1.23053,0.0991 -2.46037,0.21141 -3.6735,0.40023 -1.05523,0.33572 -2.03549,0.83506 -3.0589,1.2327 -2.45093,1.07287 -4.90406,2.13944 -7.30276,3.29574 -2.76746,1.29321 -5.56662,2.53886 -8.37256,3.77067 -3.47811,1.54013 -6.95212,3.08693 -10.4369,4.61562 -2.40065,0.98149 -4.83216,1.91283 -7.1584,3.01939 -2.34798,0.99346 -4.68249,2.02401 -7.24717,2.56555 -1.58181,0.37009 -3.16341,0.74067 -4.76879,1.03154 -1.70506,0.24583 -3.41821,0.4748 -5.15517,0.42911 -2.04601,0.0104 -4.09299,0.0271 -6.13837,-0.0247 -0.52364,-0.0255 -0.96164,-0.0357 -1.47892,-0.10254 -0.13087,-0.0169 -0.26149,-0.036 -0.391,-0.0596 -1.42117,-1.08656 -2.74553,-2.25201 -3.76379,-3.64369 -1.40718,-1.77106 -2.67775,-3.62296 -3.6775,-5.58625 -1.00998,-1.97484 -1.79474,-4.01935 -2.20777,-6.14938 -0.4466,-2.31104 -0.80458,-4.6376 -0.85603,-6.98237 -0.008,-2.49852 -0.0108,-4.99699 -0.005,-7.49553 0.0182,-2.15667 0.0334,-4.31422 0.15388,-6.46893 0.038,-0.57566 0.0855,-1.15053 0.13761,-1.72504 1.76469,-1.54524 3.5072,-3.10826 5.31889,-4.61456 1.71074,-1.47376 3.39249,-2.97139 5.09344,-4.45325 1.97438,-1.70361 3.9423,-3.41242 5.86714,-5.15636 1.41127,-1.30276 2.85907,-2.57603 4.31575,-3.84222 2.45137,-2.20393 4.79423,-4.49369 7.23243,-6.70992 2.03392,-1.78423 4.04675,-3.5822 5.92151,-5.48815 1.64948,-1.54835 3.3683,-3.04212 5.06489,-4.5534 1.76046,-1.77675 3.62679,-3.47312 5.4399,-5.21051 1.14558,-1.25499 2.34171,-2.47372 3.54726,-3.68816 1.29977,-1.28385 2.52477,-2.62365 3.67073,-4.00904 0.92147,-1.21654 1.92048,-2.39024 2.79842,-3.63013 0.70701,-0.91919 1.23335,-1.92204 1.78207,-2.91219 0.6774,-1.16906 1.35582,-2.33474 1.70929,-3.60697 0.30518,-1.11851 0.0828,-2.23086 -0.41526,-3.27936 -0.47955,-0.82851 -1.17671,-1.54103 -1.84596,-2.26163 -1.18233,-1.31222 -3.10165,-1.96601 -4.868,-2.56738 -1.17233,-0.37085 -2.3725,-0.68122 -3.63264,-0.64926 -0.98969,0.0506 -1.9193,0.37377 -2.80213,0.73566 -0.9291,0.32435 -1.7398,0.83463 -2.5656,1.31049 -1.57669,0.89587 -3.14851,1.79834 -4.70981,2.71363 -2.97829,1.70286 -5.73561,3.66567 -8.39684,5.70569 -2.32752,1.84495 -4.76035,3.59006 -6.8792,5.61202 -2.0542,2.0224 -3.74055,4.2723 -5.39321,6.53478 -1.3056,2.15329 -2.64351,4.2912 -3.83843,6.4908 -1.14622,2.08342 -1.94875,4.27978 -2.88874,6.43147 -0.85959,2.03126 -1.72939,4.05916 -2.70936,6.05102 -1.06655,1.85289 -2.08295,3.72414 -3.03216,5.62294 -1.01071,2.05613 -1.74064,4.19888 -2.64332,6.2886 -0.60647,1.31019 -1.1994,2.6247 -1.7827,3.94242 -0.0934,-0.41552 -0.25171,-0.81719 -0.52369,-1.19313 -1.25957,-1.33146 -3.13464,-2.18485 -5.00835,-2.7511 -1.44021,-0.44037 -2.91955,-0.45955 -4.42387,-0.38357 -1.39732,0.0819 -2.79291,0.29497 -4.13021,0.64873 -1.16892,0.27443 -2.26821,0.68807 -3.36359,1.12158 -2.29249,0.8762 -4.45006,1.97495 -6.58496,3.09459 -2.71201,1.45232 -5.30045,3.05622 -7.87928,4.67027 -2.40545,1.54634 -4.96283,2.90912 -7.37617,4.44516 -3.23066,2.12678 -6.19992,4.51434 -9.24025,6.82831 -3.52574,2.61589 -7.048,5.23716 -10.34385,8.06204 -2.22791,2.01239 -4.15514,4.24197 -5.98262,6.5202 -1.04158,1.46235 -1.57173,3.11871 -2.08401,4.75588 -0.73909,2.24156 -0.85512,4.58106 -1.00652,6.89181 -0.17834,1.85342 0.005,3.68996 0.47761,5.49934 0.3684,0.84474 0.39768,1.98049 1.26822,2.61161 0.15812,0.11465 0.34379,0.1978 0.52184,0.2899 -0.49899,0.0235 -0.99735,0.0528 -1.49336,0.10721 -0.95072,0.0824 -1.89481,0.18719 -2.85309,0.13584 -0.87388,8e-5 -1.76605,-0.0199 -2.61722,0.172 -0.96807,0.32227 -1.37146,0.95257 -2.01795,1.61001 -1.37423,1.50079 -2.80252,2.9687 -4.33387,4.35696 -1.67455,1.51785 -3.40908,2.98761 -5.09068,4.50008 -2.25855,1.98086 -4.58703,3.91634 -7.10527,5.66094 -3.8009,2.58913 -7.6856,5.10629 -11.88972,7.21422 -3.67267,1.80394 -7.40378,3.51633 -11.27695,4.99554 -3.52673,1.27211 -7.16078,2.31354 -10.86138,3.16199 -4.05889,0.92041 -8.129544,1.81458 -12.241714,2.54917 -2.3696,0.41908 -4.73625,0.85743 -7.12768,1.17882 -2.27262,0.3216 -4.56055,0.51941 -6.85586,0.6844 -2.333959,0.22494 -4.674777,0.38891 -7.00667,0.63027 -2.303296,0.12131 -4.607413,0.12083 -6.914833,0.10851 -2.08551,-0.005 -4.17334,-0.004 -6.255088,-0.12543 -2.559027,-0.18066 -5.079341,-0.5507 -7.569064,-1.08983 -2.253474,-0.42629 -4.524726,-0.83664 -6.821696,-1.0474 -1.835483,-0.12214 -3.665641,-0.32451 -5.451311,-0.71587 -0.78951,-0.17779 -0.723815,-0.14446 -1.419025,-0.36563 -0.122726,-0.0757 -0.240489,-0.13978 -0.336595,-0.17903 -1.727826,-1.25857 -3.292318,-2.63587 -4.609101,-4.22008 -2.256001,-2.61522 -4.483847,-5.25708 -6.376361,-8.07609 -0.347244,-0.64851 -0.690788,-1.23401 -0.939038,-1.91656 -0.495689,-1.36344 -0.488018,-2.83476 -0.433333,-4.24375 0.332174,-2.28173 1.099304,-4.47336 2.163234,-6.58916 0.923517,-1.89923 1.910111,-3.77232 3.083503,-5.57246 1.508272,-2.48227 3.014649,-4.96532 4.765396,-7.33444 2.126326,-2.84361 4.309774,-5.67394 6.918524,-8.22209 1.942146,-1.87306 3.890338,-3.75896 6.144445,-5.37131 2.301843,-1.63227 4.690858,-3.17333 6.989542,-4.80922 2.385406,-1.71215 4.508032,-3.66718 6.88712,-5.389 2.20507,-1.5285 4.518229,-2.92699 6.972271,-4.15762 2.389376,-1.27411 4.804985,-2.51536 7.3387,-3.57576 2.926475,-1.24415 5.83499,-2.51923 8.79735,-3.70118 2.47599,-1.05831 4.86302,-2.23152 7.23303,-3.45059 1.25487,-0.60073 2.5045,-1.21657 3.83782,-1.68652 0.0507,-0.0177 0.10152,-0.0356 0.15235,-0.0536 0.29587,-0.0562 0.59125,-0.1155 0.88612,-0.17618 0.50499,-0.11514 0.97493,-0.30875 1.474004,-0.4377 0.94137,-0.24318 0.50496,-0.0861 -1.132154,-0.85457 -0.30527,-0.21205 -0.46016,-0.30297 -0.62412,-0.3102 -0.0367,-0.0192 -0.0739,-0.0387 -0.11149,-0.0588 -0.80946,0.16009 -1.57668,0.43427 -2.33986,0.70991 -1.33715,0.25202 -2.68853,0.43731 -4.06634,0.44289 -2.16057,-0.006 -4.32408,-0.0189 -6.47838,-0.1741 -2.1401,-0.19382 -4.216724,-0.57442 -6.271039,-1.12182 -2.108585,-0.4762 -4.222377,-0.93412 -6.319583,-1.44607 -0.292206,-0.0907 -0.589141,-0.17119 -0.8766,-0.27221 -0.293759,-0.10321 -1.062243,-0.542 -0.887051,-0.35337 -0.16939,-0.10726 -0.332525,-0.22171 -0.492972,-0.3383 -0.235906,-0.17143 -0.452328,-0.36118 -0.678488,-0.54179 -1.46058,-1.45914 -2.424245,-3.16452 -2.971045,-5.02286 -0.63918,-2.2204 -0.956039,-4.50045 -0.754976,-6.78771 0.167775,-2.75643 0.442267,-5.5126 1.094684,-8.22156 0.524999,-2.33794 1.037833,-4.6878 2.020421,-6.92668 1.207926,-2.6065 2.908094,-4.88402 5.330254,-6.81659 2.849591,-2.31963 5.861127,-4.48625 8.900545,-6.62482 2.78579,-1.90151 5.5447,-3.83252 8.46501,-5.58625 3.20621,-1.95352 6.43981,-3.87457 9.712644,-5.74734 3.16643,-1.82695 6.28879,-3.70745 9.47092,-5.51495 2.6644,-1.4267 5.3621,-2.81242 8.20578,-3.97156 2.15454,-0.95615 4.32502,-1.9181 6.66174,-2.5182 1.6479,-0.43323 3.32996,-0.73717 5.01482,-1.04819 1.321,-0.27833 2.63783,-0.58144 3.98648,-0.75024 1.37621,-0.20791 2.754,-0.39883 4.13544,-0.58004 1.3096,-0.16842 2.62721,-0.28162 3.94717,-0.37159 0.92145,-0.10506 1.81089,-0.29876 2.71366,-0.47804 0.36418,-0.0549 0.73293,-0.11584 1.10419,-0.12856 0.0807,0.61072 -0.29136,1.37154 -0.4125,1.9007 -0.67363,1.68139 -1.53591,3.29747 -2.40037,4.91382 -1.01671,1.90174 -2.12084,3.76922 -3.13598,5.67162 -1.26904,2.41232 -2.56585,4.81213 -3.8931,7.202 -1.59185,2.8756 -3.27283,5.71863 -4.70061,8.65716 -1.06118,2.22923 -2.06043,4.47688 -3.11387,6.70834 -0.92702,1.88529 -1.84876,3.80722 -3.32395,5.4421 l 2.02502,1.00578 c 1.4155,-1.6839 2.31535,-3.62317 3.25946,-5.516 1.06757,-2.227 2.07414,-4.47438 3.1197,-6.70913 1.3875,-2.95011 3.07854,-5.78782 4.6576,-8.66551 1.33816,-2.38581 2.67506,-4.76902 3.94133,-7.183 1.01156,-1.9027 2.12653,-3.76404 3.15595,-5.65988 0.8835,-1.61663 1.73045,-3.24514 2.40898,-4.93206 0.24078,-0.8929 0.91161,-2.07629 0.0366,-2.85311 -1.60426,-0.85373 -2.23412,-1.17012 -3.33564,-1.13561 z m 136.41538,10.6164 c 1.23492,0.0179 2.41268,0.32261 3.55833,0.69948 0.14148,0.0505 0.28421,0.099 0.42599,0.14886 0.18572,0.14685 0.37,0.30296 0.47855,0.42806 0.66756,0.71339 1.36501,1.41212 1.87974,2.21609 0.52678,1.00342 0.77373,2.08252 0.4887,3.17214 -0.34236,1.26098 -0.99449,2.42107 -1.68226,3.57185 -0.55333,0.98146 -1.08364,1.97519 -1.77839,2.89293 -0.85922,1.24299 -1.8399,2.42104 -2.76128,3.63092 -1.1456,1.37839 -2.36901,2.71365 -3.6655,3.99186 -1.20881,1.21045 -2.40474,2.42691 -3.53865,3.68817 -1.78835,1.74885 -3.62963,3.45811 -5.39598,5.22324 -1.71296,1.50808 -3.47723,2.97583 -5.11218,4.54561 -1.84397,1.91732 -3.82924,3.7267 -5.8472,5.51313 -2.43083,2.22371 -4.80003,4.49817 -7.28926,6.67426 -1.46892,1.25844 -2.92347,2.52936 -4.31757,3.84796 -1.90375,1.75724 -3.86033,3.47273 -5.85271,5.15792 -1.71113,1.47225 -3.39526,2.96617 -5.09345,4.44907 -1.05187,0.88321 -2.08232,1.78374 -3.10556,2.68995 0.0199,-0.2159 0.039,-0.43195 0.0574,-0.64796 0.0419,-0.77452 0.10669,-0.71857 -0.59372,-1.02633 0.0629,-0.15553 0.12655,-0.31066 0.18981,-0.46555 1.02288,-2.39192 2.0784,-4.7718 3.18575,-7.1359 0.90636,-2.08452 1.63669,-4.22328 2.65223,-6.27376 0.94784,-1.89985 1.95273,-3.77563 3.03586,-5.62243 0.98099,-1.99557 1.82475,-4.03499 2.69492,-6.06689 0.93533,-2.14769 1.74871,-4.335 2.89056,-6.41402 1.18386,-2.19541 2.49137,-4.33829 3.80558,-6.47936 1.63826,-2.25712 3.32014,-4.49727 5.37234,-6.50667 2.11882,-2.00841 4.53916,-3.75271 6.83742,-5.60993 2.65975,-2.03973 5.42722,-3.98553 8.42724,-5.65991 1.57052,-0.91634 3.17,-1.79528 4.76356,-2.6824 0.81997,-0.46882 1.62591,-0.96632 2.54841,-1.28395 0.86785,-0.34013 1.77162,-0.64752 2.74129,-0.66644 z m 125.28985,52.93008 v 0 0 0 0 c -1.1e-4,0.005 0.016,0.0301 0.011,0.0401 -0.004,0.008 -0.008,0.0155 -0.0123,0.0232 -0.0151,-0.006 -0.0303,-0.0131 -0.0455,-0.0195 -0.36244,0.41836 -0.68338,0.85882 -0.97919,1.31207 -1.21556,1.36275 -2.42315,2.73028 -3.63174,4.0975 -2.09696,2.36023 -4.0917,4.78526 -6.28947,7.08046 -1.28199,1.31908 -2.55466,2.6452 -3.86577,3.94372 -3.85962,3.82256 0.92854,-0.95802 -2.95845,2.87549 -0.44829,0.44211 -0.8861,0.89183 -1.32903,1.33781 -2.9276,3.15135 -5.70675,6.39908 -8.55746,9.60024 -2.54854,2.85123 -4.94662,5.79254 -7.11633,8.86275 -1.15886,1.6411 -2.29672,3.29401 -3.53897,4.89119 l 2.04131,0.98469 c 1.0626,-1.68111 2.17827,-3.33909 3.30984,-4.98773 2.09792,-3.09615 4.51959,-6.01801 7.00145,-8.8984 2.79567,-3.23678 5.63919,-6.44367 8.60783,-9.56823 2.69756,-2.7336 5.49267,-5.39571 8.16186,-8.14947 0.1955,-0.20028 0.3895,-0.40158 0.58174,-0.60398 -0.0278,0.0371 -0.0558,0.074 -0.0836,0.11111 -2.22788,2.8751 -4.41277,5.77386 -6.70535,8.61268 -2.29748,2.84831 -4.54765,5.72407 -6.72041,8.64182 -2.10186,2.82972 -4.17312,5.67502 -6.29717,8.49296 -1.45224,1.89873 -2.65942,3.92233 -3.61053,6.03463 -0.52818,1.25044 -1.12744,2.47958 -1.4614,3.78029 -0.14266,0.67061 -0.29107,1.34994 -0.17108,2.02951 0.37251,1.17307 1.67728,1.4225 2.90009,2.01179 0.69486,0.16085 1.38232,0.0663 2.06864,-0.0681 0.17317,-0.055 0.35279,-0.0976 0.51971,-0.16498 0.32642,-0.13191 1.36915,-0.65352 1.62665,-0.78511 1.03581,-0.52931 2.05238,-1.08578 3.06994,-1.63967 2.69145,-1.35318 4.93546,-3.21201 7.19926,-5.01819 2.3698,-1.84551 4.50915,-3.87865 6.61076,-5.93912 1.44107,-1.38261 2.70526,-2.88363 4.00552,-4.3598 1.27576,-1.44838 1.29954,-1.46155 2.62336,-2.91245 2.5668,-2.80039 5.13493,-5.59987 7.8332,-8.31056 3.01064,-2.92148 6.44428,-5.5046 9.99216,-7.94519 1.52886,-1.03762 3.10645,-2.03043 4.81209,-2.85129 0.73184,-0.3522 1.40277,-0.63347 2.15188,-0.95763 2.03089,-0.87607 4.11889,-1.65321 6.20746,-2.42425 1.8223,-0.70948 3.7319,-1.22747 5.66384,-1.67169 1.87466,-0.4139 3.76612,-0.77007 5.66719,-1.08489 0.43673,-0.0501 0.90094,-0.15011 1.36004,-0.18658 0.0878,0.14936 0.1666,0.30253 0.24604,0.45644 0.41672,0.85299 0.56342,1.74559 0.56208,2.66184 -0.0724,1.44334 -0.57672,2.83053 -1.14967,4.17974 -0.75269,1.58869 -1.83233,3.04355 -2.90869,4.48524 -1.15529,1.44547 -2.38721,2.84568 -3.52853,4.29919 -1.34013,1.68268 -2.34449,3.52885 -3.22628,5.40956 -0.96585,2.13582 -1.59202,4.36329 -2.03393,6.61518 -0.2563,1.56547 -0.38972,3.14871 -0.37011,4.72934 0.0892,1.14554 0.22023,2.29594 0.58818,3.40323 0.32035,1.07651 1.03305,1.99306 1.73968,2.90905 0.76146,0.92396 1.41789,1.90711 2.229,2.80107 0.50021,0.54654 1.08869,1.01637 1.75748,1.40964 1.16142,-0.10809 1.66553,0.92188 2.5733,1.25689 0.47873,0.17666 1.01318,0.28113 1.51855,0.38617 0.754,0.13956 1.511,0.24056 2.28056,0.28885 1.01045,0.0465 2.02259,0.0403 3.03403,0.0348 2.07536,-0.0756 4.14076,-0.28487 6.19395,-0.54543 2.31453,-0.37577 4.63383,-0.757 6.91392,-1.26469 1.64137,-0.42504 3.20604,-1.03276 4.76846,-1.6285 2.17229,-0.91417 4.2049,-2.04793 6.21822,-3.18853 2.63332,-1.4877 4.76269,-3.47218 6.81809,-5.48582 0.73687,-0.71218 1.46622,-1.42986 2.20286,-2.14217 0.10733,-0.10377 0.21088,-0.20994 0.31822,-0.31174 0.30446,0.47453 0.58136,0.96073 0.78692,1.47313 0.39971,0.8656 0.34004,1.77408 0.29454,2.68396 -0.22287,1.93643 -0.62035,3.87348 -1.29401,5.73667 -0.14506,0.40119 -0.32369,0.79321 -0.4856,1.18976 -0.50069,0.96252 -0.89838,2.0494 -1.76335,2.83982 -0.28893,0.26405 -0.42235,0.30198 -0.77677,0.47804 -0.16608,0.0719 -0.53997,0.19561 -0.63242,0.37082 -0.34178,0.64759 0.47564,1.7107 0.8164,2.24392 0.60678,0.82357 0.29766,0.4307 0.92237,1.18116 l 2.06065,0.75596 c -0.64747,-0.73901 -0.33063,-0.35199 -0.94601,-1.164 -0.22847,-0.34946 -1.07683,-1.55149 -0.87537,-1.98472 0.0635,-0.13661 0.49292,-0.30483 0.58511,-0.34845 0.13908,-0.0776 0.2884,-0.14369 0.41742,-0.2329 1.1189,-0.77358 1.50084,-2.20719 2.05543,-3.26869 0.15929,-0.40198 0.33206,-0.80026 0.47793,-1.20588 0.67108,-1.86591 1.11192,-3.79017 1.43101,-5.71975 0.0711,-0.91726 0.20637,-1.8403 -0.19228,-2.72041 -0.2458,-0.67396 -0.63884,-1.2948 -1.03203,-1.91447 -0.61207,-0.92497 -1.57958,-2.27012 -3.12922,-1.94231 -0.38291,0.25007 -0.64727,0.56895 -0.94848,0.88945 -0.69262,0.73698 -1.40173,1.46205 -2.11902,2.18198 -2.01067,2.03066 -4.15848,3.97563 -6.79166,5.44053 -2.02177,1.13895 -4.08471,2.23826 -6.28609,3.11411 -1.54955,0.58762 -3.09684,1.1952 -4.72273,1.61834 -2.26374,0.51839 -4.56531,0.91563 -6.87367,1.26235 -2.06956,0.25459 -4.15281,0.45465 -6.24616,0.4796 -1.01936,-0.009 -2.04028,-0.009 -3.05767,-0.0692 -0.7624,-0.0608 -1.51514,-0.17024 -2.26123,-0.31722 -0.29618,-0.0664 -0.59129,-0.13499 -0.8806,-0.21962 -0.37559,-0.26274 -0.72063,-0.55502 -1.03079,-0.88009 -0.844,-0.87638 -1.50132,-1.86401 -2.25907,-2.79325 -0.69442,-0.90371 -1.42252,-1.79801 -1.75996,-2.85416 -0.38186,-1.09234 -0.53068,-2.2299 -0.62781,-3.36392 -0.0571,-1.57894 0.0511,-3.16174 0.28626,-4.72856 0.40342,-2.24562 1.00354,-4.47123 1.97896,-6.59254 0.91422,-1.85455 1.91476,-3.68668 3.2567,-5.35205 1.14641,-1.45221 2.37792,-2.85438 3.5282,-4.30439 1.08687,-1.45209 2.18372,-2.91345 2.94986,-4.51231 0.58696,-1.36248 1.10902,-2.76135 1.22613,-4.21772 0.0245,-0.93137 -0.0843,-1.84035 -0.48345,-2.71702 -0.63207,-1.34862 -0.99728,-1.65708 -3.03247,-2.36779 -0.84054,-0.15908 -1.68788,0.0639 -2.51462,0.19153 -1.88741,0.33839 -3.76745,0.70803 -5.63496,1.11844 -1.94151,0.44412 -3.86383,0.9554 -5.68131,1.69512 -2.08386,0.77987 -4.17356,1.55471 -6.19672,2.4435 -1.10199,0.48008 -2.20927,0.95841 -3.24595,1.5369 -1.27614,0.71213 -2.44767,1.5514 -3.63234,2.36519 -2.34372,1.68222 -4.62828,3.41499 -6.84602,5.2162 -0.58865,0.4781 -1.18685,0.94872 -1.75475,1.44451 -0.48547,0.42387 -0.93596,0.87535 -1.40397,1.3131 -2.72514,2.69354 -5.22693,5.54024 -7.81385,8.32878 -2.23188,2.41076 -4.41099,4.85786 -6.72134,7.21474 -2.09773,2.0491 -4.21204,4.08998 -6.54747,5.95031 -2.27495,1.7965 -4.58636,3.58673 -7.27144,4.94115 -1.19,0.64944 -0.89193,0.49733 -2.11471,1.12184 -0.85535,0.43686 -1.7183,0.89429 -2.64855,1.21161 -0.16735,0.0571 -0.3442,0.0914 -0.51631,0.13714 -0.31855,0.0506 -0.64117,0.0932 -0.96167,0.0997 -0.009,-0.022 -0.0181,-0.0444 -0.0261,-0.0672 -0.17102,-0.65473 -0.0238,-1.32573 0.0869,-1.98084 0.3068,-1.3001 0.86557,-2.53752 1.36834,-3.79017 0.92526,-2.10855 2.08959,-4.13789 3.49473,-6.04868 2.07064,-2.84527 4.16483,-5.67842 6.26001,-8.51066 2.19015,-2.9059 4.40614,-5.79705 6.70749,-8.64105 2.2983,-2.83867 4.50439,-5.72755 6.71919,-8.6132 2.10371,-2.83421 4.22215,-5.66383 6.04007,-8.64025 0.26563,-0.42276 0.5328,-0.84497 0.79705,-1.26834 0.3087,-0.49461 0.60422,-1.00399 0.93803,-1.49213 0.10664,-0.11187 0.21314,-0.22378 0.31975,-0.3357 0.26092,-0.28629 0.51326,-0.57821 0.75312,-0.87747 0.10809,-0.13486 0.17054,-0.21708 0.16617,-0.23081 v 0 0 0 0 0 0 c -0.4949,-0.23587 -1.00654,-0.44515 -1.517,-0.65629 -0.18633,-0.10115 -0.37352,-0.20162 -0.56148,-0.30056 0,0 -0.002,0 -0.002,-8.9e-4 -1.4e-4,-3e-5 0,2e-5 0,0 v 0 0 z m -181.78089,0.1439 c 1.10395,0.009 2.19031,0.1291 3.2487,0.46789 0.12518,0.0423 0.23432,0.0794 0.32773,0.11137 0.25622,0.19897 0.48937,0.42029 0.72027,0.63859 0.2179,0.25509 0.38018,0.40296 0.49543,0.71068 0.33549,0.89581 0.1909,1.88002 0.29731,2.79846 0.0245,1.04912 0.0639,2.13183 -0.12654,3.17761 -0.099,0.26066 -0.19459,0.5178 -0.27243,0.73618 -0.85537,1.15899 -1.72945,2.3098 -2.73884,3.3785 -1.38289,1.44306 -2.78663,2.86677 -4.27306,4.23516 -2.47894,2.31481 -4.89154,4.67931 -7.1756,7.13487 -2.02322,2.1463 -4.06379,4.28062 -6.06343,6.44238 -1.9547,2.00887 -3.88192,4.03691 -5.84196,6.04192 -2.2154,2.23088 -4.48391,4.43334 -7.05735,6.37708 -2.00125,1.46485 -4.03318,2.89924 -6.0671,4.33144 -1.79617,0.93024 -3.60774,1.83961 -5.41379,2.75553 -1.90971,0.91044 -3.82004,1.84519 -5.87514,2.50285 -2.08496,0.62671 -4.14576,1.33602 -6.31958,1.71931 -1.47692,0.28567 -2.97305,0.47518 -4.47546,0.63703 -0.3449,0.0321 -0.69104,0.0535 -1.03756,0.0711 -0.418,-0.59568 -0.50832,-1.38657 -0.78382,-2.00608 -0.50119,-1.79634 -0.71071,-3.62125 -0.54766,-5.46916 0.12911,-2.29696 0.267,-4.61915 1.01452,-6.8434 0.50192,-1.61708 1.03279,-3.25054 2.04222,-4.70174 1.78651,-2.28443 3.64525,-4.54026 5.88497,-6.52801 3.28909,-2.82335 6.77973,-5.46716 10.32202,-8.05996 3.047,-2.30926 6.03311,-4.68489 9.29462,-6.78016 2.41613,-1.52909 4.95786,-2.90812 7.36328,-4.45064 2.57546,-1.60958 5.15943,-3.21117 7.87038,-4.6557 2.14905,-1.10684 4.3156,-2.19795 6.6304,-3.04229 1.09322,-0.42168 2.19578,-0.81167 3.35161,-1.09632 1.32957,-0.33937 2.71008,-0.5413 4.09644,-0.611 0.3715,-0.0174 0.74143,-0.0266 1.10942,-0.0235 z m 2.60461,0.0154 c -0.17761,-0.0917 0.36675,0.16757 0.53781,0.26778 0.0183,0.0107 0.0364,0.0215 0.0543,0.0325 -0.17195,-0.0857 -0.36972,-0.18551 -0.59218,-0.3003 z m 120.51707,1.96574 c 0.18085,0 0.36246,0.005 0.54519,0.0179 0.0241,0.0465 0.0459,0.0939 0.0651,0.14181 0.26995,1.4855 -0.0588,2.9719 -0.50188,4.4129 -0.66046,1.85642 -1.50149,3.65568 -2.67648,5.3276 -1.46687,2.12978 -3.11533,4.16497 -4.99024,6.05413 -1.92682,1.80822 -3.87975,3.6046 -6.11656,5.14544 -1.86376,1.30115 -3.7408,2.61715 -5.95837,3.46932 -2.72218,1.117 -5.55328,2.05855 -8.54426,2.51091 -3.18375,0.47288 -6.40553,0.71176 -9.61588,1.02165 0.47577,-1.42332 1.08826,-2.80701 1.93501,-4.11989 1.35816,-2.17918 2.83114,-4.31547 4.61215,-6.26935 1.77997,-1.93714 3.48998,-3.92543 5.40611,-5.76918 1.55523,-1.50998 3.16364,-2.97697 5.02066,-4.22841 1.59556,-1.10407 3.21089,-2.20237 4.97273,-3.11203 1.7078,-0.87873 3.49319,-1.64753 5.23412,-2.47657 1.09315,-0.45623 2.2299,-0.87869 3.44621,-1.02242 1.05588,-0.13511 2.1296,-0.20336 3.15195,-0.48505 0.78191,-0.21651 1.58469,-0.35264 2.39791,-0.4528 0.53832,-0.10622 1.07397,-0.16463 1.61652,-0.16603 z m -276.520218,3.83261 c 0.143166,0.0561 0.285809,0.11349 0.412506,0.18762 0.03402,0.0199 0.05053,0.0307 0.05279,0.0341 v 0 h 3.16e-4 v 0 h -3.16e-4 v 0 h -3.16e-4 -3.07e-4 -3.16e-4 c -0.01696,0 -0.235941,-0.10676 -0.464411,-0.22274 z m 376.859488,0.33828 c 0.0438,0.0128 0.0874,0.0269 0.13051,0.0429 0.43815,0.2662 0.28985,0.17367 -0.13051,-0.0429 z m -215.63174,2.03861 c 0.0337,-0.004 0.0462,0.1228 0.009,0.10956 -0.0348,-0.0123 -0.069,-0.0248 -0.1026,-0.037 0.0245,-0.029 0.0523,-0.0542 0.0888,-0.0711 0.002,-8.9e-4 0.004,-0.002 0.005,-0.002 z m -2.20747,2.84296 c -0.0146,0.16175 -0.0295,0.32355 -0.0439,0.48533 -0.24401,0.21722 -0.48826,0.43428 -0.73287,0.65107 -0.26956,0.24362 -0.53807,0.48792 -0.80565,0.73305 0.56138,-0.60281 1.08329,-1.22956 1.58244,-1.86945 z m -12.59984,12.67062 c -0.52101,0.56911 -1.03869,1.14056 -1.55878,1.71151 -0.34524,0.35144 -0.69064,0.70277 -1.0351,1.05469 0.66066,-0.70511 1.32201,-1.40958 1.98325,-2.11433 0.20259,-0.21799 0.40611,-0.43526 0.61063,-0.65187 z m -6.86508,7.34486 c -0.0969,0.11244 -0.19343,0.22519 -0.28934,0.33829 -1.27664,1.38197 -2.58389,2.7428 -3.97358,4.0426 1.42052,-1.46048 2.83553,-2.92519 4.26292,-4.38089 z" />
</svg>
