<?xml version="1.0" encoding="UTF-8" standalone="no"?>
<svg
   width="512"
   height="512"
   fill="none"
   viewBox="0 0 512 512"
   version="1.1"
   id="svg7"
   sodipodi:docname="base_android.svg"
   inkscape:version="1.4.2 (ebf0e940d0, 2025-05-08)"
   xmlns:inkscape="http://www.inkscape.org/namespaces/inkscape"
   xmlns:sodipodi="http://sodipodi.sourceforge.net/DTD/sodipodi-0.dtd"
   xmlns:xlink="http://www.w3.org/1999/xlink"
   xmlns="http://www.w3.org/2000/svg"
   xmlns:svg="http://www.w3.org/2000/svg">
  <defs
     id="defs7">
    <linearGradient
       id="linearGradient24"
       inkscape:collect="always">
      <stop
         style="stop-color:#f71baa;stop-opacity:0.56623769;"
         offset="0"
         id="stop24" />
      <stop
         style="stop-color:#fa87d4;stop-opacity:1;"
         offset="1"
         id="stop25" />
    </linearGradient>
    <rect
       x="22.627417"
       y="402.76802"
       width="521.34025"
       height="248.94868"
       id="rect24" />
    <linearGradient
       id="linearGradient1"
       inkscape:collect="always">
      <stop
         style="stop-color:#fe00b1;stop-opacity:1;"
         offset="0"
         id="stop1" />
      <stop
         style="stop-color:#fe00b1;stop-opacity:0;"
         offset="1"
         id="stop2" />
    </linearGradient>
    <linearGradient
       id="linearGradient11"
       inkscape:collect="always">
      <stop
         style="stop-color:#ff0950;stop-opacity:1;"
         offset="0"
         id="stop11" />
      <stop
         style="stop-color:#bf42f6;stop-opacity:1;"
         offset="0.49556771"
         id="stop20" />
      <stop
         style="stop-color:#5da5ed;stop-opacity:1;"
         offset="1"
         id="stop12" />
    </linearGradient>
    <linearGradient
       inkscape:collect="always"
       xlink:href="#linearGradient11"
       id="linearGradient12"
       x1="270.39996"
       y1="39.999989"
       x2="270.39996"
       y2="494.39996"
       gradientUnits="userSpaceOnUse"
       spreadMethod="reflect"
       gradientTransform="matrix(0.98451433,0,0,0.98451433,-9.4486234,-9.6622675)" />
    <linearGradient
       inkscape:collect="always"
       xlink:href="#linearGradient1"
       id="linearGradient2"
       x1="125.40197"
       y1="271.834"
       x2="431.02424"
       y2="271.834"
       gradientUnits="userSpaceOnUse"
       gradientTransform="matrix(0.98451433,0,0,0.98451433,-9.4486234,-9.6622675)" />
    <linearGradient
       inkscape:collect="always"
       xlink:href="#linearGradient24"
       id="linearGradient25"
       x1="270.39996"
       y1="33.58408"
       x2="270.39996"
       y2="500.81589"
       gradientUnits="userSpaceOnUse"
       gradientTransform="matrix(0.98451433,0,0,0.98451433,-9.4486234,-9.6622675)" />
  </defs>
  <sodipodi:namedview
     id="namedview7"
     pagecolor="#ffffff"
     bordercolor="#000000"
     borderopacity="0.25"
     inkscape:showpageshadow="2"
     inkscape:pageopacity="0.0"
     inkscape:pagecheckerboard="0"
     inkscape:deskcolor="#d1d1d1"
     inkscape:zoom="0.88388348"
     inkscape:cx="157.82623"
     inkscape:cy="264.74078"
     inkscape:window-width="1600"
     inkscape:window-height="849"
     inkscape:window-x="0"
     inkscape:window-y="27"
     inkscape:window-maximized="1"
     inkscape:current-layer="svg7" />
  <circle
     style="fill:url(#linearGradient12);fill-opacity:1;stroke:url(#linearGradient25);stroke-width:12.6331;stroke-opacity:0.566238;paint-order:stroke fill markers"
     id="path8"
     cx="256.76401"
     cy="253.39995"
     r="223.68166" />
  <path
     id="rect1-3"
     style="fill:#ffffff;fill-opacity:0.5;stroke:none;stroke-width:15.7522;stroke-dasharray:none;stroke-opacity:1;paint-order:stroke fill markers"
     d="m 72.633335,126.39685 a 223.68165,223.68165 0 0 0 -9.92398,15.75223 H 450.81759 a 223.68165,223.68165 0 0 0 -9.92398,-15.75223 z" />
  <path
     style="fill:#ff2bd5;fill-opacity:1;stroke-width:13.1668;stroke-opacity:0.415999;paint-order:stroke fill markers"
     d="m 222.78927,478.76131 -9.46774,-51.23713"
     id="path9" />
  <path
     id="rect1-2"
     style="fill:#ffffff;fill-opacity:0.5;stroke:none;stroke-width:15.7522;stroke-dasharray:none;stroke-opacity:1;paint-order:stroke fill markers"
     d="m 74.98694,383.74927 a 223.68165,223.68165 0 0 0 12.40065,15.75222 h 338.75176 a 223.68165,223.68165 0 0 0 12.40066,-15.75222 z" />
  <path
     id="rect1-2-5"
     style="fill:#ffffff;fill-opacity:0.5;stroke:none;stroke-width:15.7522;stroke-dasharray:none;stroke-opacity:1;paint-order:stroke fill markers"
     d="m 44.15549,322.90744 a 223.68165,223.68165 0 0 0 5.812864,15.75223 H 463.5586 a 223.68165,223.68165 0 0 0 5.81285,-15.75223 z" />
  <path
     id="rect1"
     style="fill:#ffffff;fill-opacity:0.5;stroke:none;stroke-width:15.7522;stroke-dasharray:none;stroke-opacity:1;paint-order:stroke fill markers"
     d="m 33.148926,258.914 a 223.68165,223.68165 0 0 0 0.946058,15.75224 H 479.43196 a 223.68165,223.68165 0 0 0 0.94606,-15.75224 z" />
  <path
     id="path15"
     style="fill:url(#linearGradient2);fill-opacity:1;stroke:#ffffff;stroke-width:15.7522;stroke-linejoin:round;stroke-dasharray:none;stroke-dashoffset:0;stroke-opacity:1;paint-order:stroke fill markers"
     d="m 302.05208,32.867983 c 0,0 -10.76077,38.491551 -16.21179,58.026734 -11.64269,9.125363 -19.29994,17.665493 -19.29994,17.665493 0,0 -21.0234,-29.794461 -41.07269,-42.186051 -20.04932,-12.39159 -47.07018,-10.795045 -47.07018,-10.795045 0,0 -11.22462,3.84e-4 -24.81092,5.316761 -13.58629,5.316378 -19.09996,8.860629 -19.09996,8.860629 0,0 13.78474,-0.39419 34.06574,6.49741 20.28099,6.8916 29.14123,11.027714 29.14123,11.027714 l 27.86061,-6.301276 -7.58,10.633523 c 0,0 13.29172,8.565275 20.47867,16.244485 7.18696,7.67921 10.53354,12.01031 10.53354,12.01031 0,0 -12.50256,-5.21716 -50.89863,-1.6729 -38.39605,3.54424 -76.20179,54.14828 -76.20179,54.14828 0,0 37.01659,-15.35919 58.8728,-20.47866 21.85622,-5.11948 42.72831,-7.67999 42.72831,-7.67999 0,0 -16.53869,7.08889 -34.25995,36.82122 -17.72125,29.73234 -12.60255,76.99018 -12.60255,76.99018 0,0 28.15711,-56.70803 55.13281,-75.8076 26.97568,-19.09959 32.48897,-19.69029 32.48897,-19.69029 0,0 -21.65893,46.46907 -30.12576,121.09526 -8.46682,74.62619 27.17221,199.46222 27.17221,199.46222 l 42.92445,-6.69548 c 0,0 -40.95503,-40.5616 -44.49928,-145.31392 -3.54426,-104.75233 14.96385,-167.36743 14.96385,-167.36743 0,0 15.35919,1.18141 38.19993,31.50445 22.84072,30.32305 36.22897,55.13281 36.22897,55.13281 0,0 8.66526,-49.22649 -10.23742,-71.67342 -18.90267,-22.44692 -48.04507,-32.29091 -48.04507,-32.29091 0,0 12.30682,-6.39896 37.80574,-4.52838 25.49892,1.87057 78.39195,26.04925 78.39195,26.04924 0,0 -14.20152,-24.50566 -47.47782,-41.49189 -33.27629,-16.98622 -73.05211,0.28073 -73.05211,0.28073 0,0 3.71374,-14.76094 26.13,-31.32947 22.41626,-16.568525 51.09862,-32.996608 51.09862,-32.996608 0,0 -23.66904,1.114154 -49.56607,11.556507 -6.44356,2.598207 -12.62852,6.048832 -18.28466,9.768227 l 15.62916,-49.019968 z" />
</svg>
