<?xml version="1.0" encoding="UTF-8" standalone="no"?>
<svg
   width="512"
   height="512"
   fill="none"
   viewBox="0 0 512 512"
   version="1.1"
   id="svg7"
   sodipodi:docname="newyear2025_named.svg"
   inkscape:version="1.4.2 (f4327f4, 2025-05-13)"
   xml:space="preserve"
   xmlns:inkscape="http://www.inkscape.org/namespaces/inkscape"
   xmlns:sodipodi="http://sodipodi.sourceforge.net/DTD/sodipodi-0.dtd"
   xmlns:xlink="http://www.w3.org/1999/xlink"
   xmlns="http://www.w3.org/2000/svg"
   xmlns:svg="http://www.w3.org/2000/svg">
  <metadata>
    <rdf:RDF
      xmlns:rdf="http://www.w3.org/1999/02/22-rdf-syntax-ns#"
      xmlns:dc="http://purl.org/dc/elements/1.1/"
      xmlns:cc="http://creativecommons.org/ns#">
      <cc:Work rdf:about="">
        <dc:title>New Year 2025 Logo</dc:title>
        <dc:creator>
          <cc:Agent>
            <dc:title>Madeline_Dev</dc:title>
            <dc:identifier>mailto:madelvidel@gmail.com</dc:identifier>
          </cc:Agent>
        </dc:creator>
        <dc:date>2025</dc:date>
        <dc:license rdf:resource="https://www.gnu.org/licenses/gpl-3.0.html"/>
        <dc:rights>2025 Eden Emulator Project</dc:rights>
        <dc:source>https://git.eden-emu.dev</dc:source>
      </cc:Work>
    </rdf:RDF>
  </metadata>
  <defs
     id="defs7"><linearGradient
       id="swatch14"
       inkscape:swatch="solid"><stop
         style="stop-color:#66003b;stop-opacity:1;"
         offset="0"
         id="stop14" /></linearGradient><linearGradient
       id="linearGradient1"
       inkscape:collect="always"><stop
         style="stop-color:#670047;stop-opacity:1;"
         offset="0"
         id="stop1" /><stop
         style="stop-color:#54003b;stop-opacity:0;"
         offset="1"
         id="stop2" /></linearGradient><linearGradient
       id="linearGradient11"
       inkscape:collect="always"><stop
         style="stop-color:#60001d;stop-opacity:1;"
         offset="0"
         id="stop11" /><stop
         style="stop-color:#2f087e;stop-opacity:1;"
         offset="0.49822688"
         id="stop20" /><stop
         style="stop-color:#0d3969;stop-opacity:1;"
         offset="0.99898213"
         id="stop12" /></linearGradient><linearGradient
       inkscape:collect="always"
       xlink:href="#linearGradient11"
       id="linearGradient12"
       x1="109.74531"
       y1="106.54533"
       x2="431.05463"
       y2="427.85461"
       gradientUnits="userSpaceOnUse"
       spreadMethod="reflect" /><linearGradient
       inkscape:collect="always"
       xlink:href="#linearGradient1"
       id="linearGradient2"
       x1="125.40197"
       y1="271.834"
       x2="431.02424"
       y2="271.834"
       gradientUnits="userSpaceOnUse"
       gradientTransform="matrix(1.0017288,0,0,0.93676627,-0.48097641,13.794965)" /><filter
       inkscape:label="Light Contour"
       inkscape:menu="Image Paint and Draw"
       inkscape:menu-tooltip="Uses vertical specular light to draw lines"
       style="color-interpolation-filters:sRGB"
       id="filter11"
       x="-0.01907517"
       y="-0.054959154"
       width="1.0379885"
       height="1.1092314"><feGaussianBlur
         in="SourceGraphic"
         stdDeviation="0.38250006"
         result="result3"
         id="feGaussianBlur9" /><feComponentTransfer
         result="result1"
         in="result3"
         id="feComponentTransfer9"><feFuncR
           type="discrete"
           tableValues="0 0.1 0.2 0.3 0.4 0.5 0.6 0.7 0.8 0.9 1"
           id="feFuncR9" /><feFuncG
           type="discrete"
           tableValues="0 0.1 0.2 0.3 0.4 0.5 0.6 0.7 0.8 0.9 1"
           id="feFuncG9" /><feFuncB
           type="discrete"
           tableValues="0 0.1 0.2 0.3 0.4 0.5 0.6 0.7 0.8 0.9 1"
           id="feFuncB9" /></feComponentTransfer><feGaussianBlur
         result="result5"
         stdDeviation="0.01"
         id="feGaussianBlur10" /><feBlend
         in2="result5"
         result="result6"
         mode="lighten"
         in="result5"
         id="feBlend10" /><feColorMatrix
         in="result6"
         type="luminanceToAlpha"
         result="result2"
         id="feColorMatrix10" /><feSpecularLighting
         surfaceScale="5"
         result="result9"
         specularExponent="20"
         in="result2"
         specularConstant="1"
         id="feSpecularLighting10"><feDistantLight
           azimuth="180"
           elevation="90"
           id="feDistantLight10" /></feSpecularLighting><feComposite
         in2="result6"
         operator="arithmetic"
         in="result9"
         k1="0.4"
         k3="0.7"
         result="result3"
         id="feComposite10"
         k2="0"
         k4="0" /><feBlend
         in2="result1"
         in="result3"
         mode="normal"
         result="result8"
         id="feBlend11" /><feComposite
         in2="SourceGraphic"
         in="result8"
         operator="in"
         result="result7"
         id="feComposite11" /></filter><linearGradient
       inkscape:collect="always"
       xlink:href="#swatch14"
       id="linearGradient14"
       x1="15.082"
       y1="388.72578"
       x2="501.80751"
       y2="388.72578"
       gradientUnits="userSpaceOnUse" /></defs><sodipodi:namedview
     id="namedview7"
     pagecolor="#ffffff"
     bordercolor="#000000"
     borderopacity="0.25"
     inkscape:showpageshadow="2"
     inkscape:pageopacity="0.0"
     inkscape:pagecheckerboard="0"
     inkscape:deskcolor="#d1d1d1"
     inkscape:zoom="1.65"
     inkscape:cx="212.42424"
     inkscape:cy="284.54545"
     inkscape:window-width="1920"
     inkscape:window-height="1001"
     inkscape:window-x="-9"
     inkscape:window-y="-9"
     inkscape:window-maximized="1"
     inkscape:current-layer="svg7" /><circle
     style="fill:url(#linearGradient12);fill-opacity:1;stroke-width:12.8318;stroke-opacity:1;paint-order:stroke fill markers;stroke:#ffef91"
     id="path8"
     cx="270.39996"
     cy="267.19998"
     r="227.2" /><path
     id="path15"
     style="fill:url(#linearGradient2);fill-opacity:1;stroke:#ffef91;stroke-width:15.499;stroke-linejoin:round;stroke-dasharray:none;stroke-dashoffset:0;stroke-opacity:1;paint-order:stroke fill markers"
     d="m 316.46641,54.262536 c 0,0 -10.94894,36.624745 -16.49527,55.212494 -11.84627,8.68279 -19.6374,16.80873 -19.6374,16.80873 0,0 -21.391,-28.349458 -41.79087,-40.140067 -20.39989,-11.790609 -47.89321,-10.271496 -47.89321,-10.271496 0,0 -11.42088,3.65e-4 -25.24473,5.058903 -13.82386,5.058538 -19.43394,8.430897 -19.43394,8.430897 0,0 14.02577,-0.375072 34.66138,6.182291 20.63562,6.557362 29.65079,10.492882 29.65079,10.492882 l 28.34775,-5.99567 -7.71253,10.11781 c 0,0 13.52412,8.14986 20.83674,15.45664 7.31262,7.30677 10.71771,11.42782 10.71771,11.42782 0,0 -12.72117,-4.96414 -51.78859,-1.59178 -39.06742,3.37236 -77.5342,51.52215 -77.5342,51.52215 0,0 37.66383,-14.61428 59.90221,-19.48547 22.23838,-4.87118 43.47542,-7.30751 43.47542,-7.30751 0,0 -16.82788,6.74508 -34.85899,35.03543 -18.03112,28.29034 -12.82292,73.25622 -12.82292,73.25622 0,0 28.64945,-53.95774 56.09682,-72.131 27.44737,-18.17328 33.05705,-18.73533 33.05705,-18.73533 0,0 -22.03764,44.21537 -30.65251,115.22225 -8.61486,71.00688 27.64733,189.78848 27.64733,189.78848 l 43.67498,-6.37074 c 0,0 -41.67114,-38.5944 -45.27736,-138.26634 -3.60623,-99.67193 15.22549,-159.25026 15.22549,-159.25026 0,0 15.62776,1.12412 38.86787,29.97652 23.2401,28.85239 36.86244,52.4589 36.86244,52.4589 0,0 8.81678,-46.83904 -10.41641,-68.19731 -19.2332,-21.35826 -48.88515,-30.72483 -48.88515,-30.72483 0,0 12.522,-6.08862 38.46678,-4.30877 25.94477,1.77987 79.76265,24.7859 79.76265,24.78589 0,0 -14.44983,-23.31717 -48.30798,-39.47958 -33.85813,-16.16241 -74.32945,0.26713 -74.32945,0.26713 0,0 3.77869,-14.04506 26.5869,-29.81003 22.80821,-15.764967 51.99208,-31.396304 51.99208,-31.396304 0,0 -24.0829,1.06012 -50.43274,10.996027 -6.55623,2.472198 -12.84933,5.755465 -18.60438,9.294477 l 15.90245,-46.642543 z" /><ellipse
     style="fill:#ffffff;paint-order:markers stroke fill"
     id="path6"
     cx="110.05778"
     cy="404.72733"
     rx="1.7"
     ry="1.6"
     inkscape:label="Ne" /><ellipse
     style="fill:#e6e6e6;stroke-width:0.696631;paint-order:markers stroke fill"
     id="ellipse6"
     cx="113.92934"
     cy="386.55383"
     rx="1.2"
     ry="1.1" /><ellipse
     style="fill:#ffffff;paint-order:markers stroke fill"
     id="ellipse7"
     cx="162.10083"
     cy="412.64694"
     rx="1.7"
     ry="1.6"
     inkscape:label="Ne" /><ellipse
     style="fill:#ffffff;paint-order:markers stroke fill"
     id="ellipse8"
     cx="134.38225"
     cy="390.58521"
     rx="1.7"
     ry="1.6"
     inkscape:label="Ne" /><ellipse
     style="fill:#ffffff;paint-order:markers stroke fill"
     id="ellipse9"
     cx="138.34204"
     cy="432.44592"
     rx="1.7"
     ry="1.6"
     inkscape:label="Ne" /><ellipse
     style="fill:#ffffff;paint-order:markers stroke fill"
     id="ellipse10"
     cx="205.37576"
     cy="448.28513"
     rx="1.7"
     ry="1.6"
     inkscape:label="Ne" /><ellipse
     style="fill:#ffffff;paint-order:markers stroke fill"
     id="ellipse11"
     cx="170.58611"
     cy="453.94199"
     rx="1.7"
     ry="1.6"
     inkscape:label="Ne" /><ellipse
     style="fill:#e6e6e6;stroke-width:0.696631;paint-order:markers stroke fill"
     id="ellipse12"
     cx="170.49788"
     cy="431.80865"
     rx="1.2"
     ry="1.1" /><ellipse
     style="fill:#e6e6e6;stroke-width:0.696631;paint-order:markers stroke fill"
     id="ellipse13"
     cx="179.54884"
     cy="399.56458"
     rx="1.2"
     ry="1.1" /><ellipse
     style="fill:#ffffff;paint-order:markers stroke fill"
     id="ellipse14"
     cx="123.63422"
     cy="348.15881"
     rx="1.7"
     ry="1.6"
     inkscape:label="Ne" /><ellipse
     style="fill:#e6e6e6;stroke-width:0.696631;paint-order:markers stroke fill"
     id="ellipse15"
     cx="88.473495"
     cy="379.76559"
     rx="1.2"
     ry="1.1" /><ellipse
     style="fill:#e6e6e6;stroke-width:0.696631;paint-order:markers stroke fill"
     id="ellipse16"
     cx="225.36937"
     cy="469.70959"
     rx="1.2"
     ry="1.1" /><ellipse
     style="fill:#ffffff;paint-order:markers stroke fill"
     id="ellipse17"
     cx="180.48561"
     cy="336.56226"
     rx="1.7"
     ry="1.6"
     inkscape:label="Ne" /><ellipse
     style="fill:#e6e6e6;stroke-width:0.696631;paint-order:markers stroke fill"
     id="ellipse18"
     cx="157.91554"
     cy="320.77493"
     rx="1.2"
     ry="1.1" /><ellipse
     style="fill:#ffffff;paint-order:markers stroke fill"
     id="ellipse19"
     cx="68.197044"
     cy="312.52063"
     rx="1.7"
     ry="1.6"
     inkscape:label="Ne" /><ellipse
     style="fill:#e6e6e6;stroke-width:0.696631;paint-order:markers stroke fill"
     id="ellipse20"
     cx="95.261719"
     cy="347.52151"
     rx="1.2"
     ry="1.1" /><ellipse
     style="fill:#ffffff;paint-order:markers stroke fill"
     id="ellipse21"
     cx="211.31548"
     cy="399.6362"
     rx="1.7"
     ry="1.6"
     inkscape:label="Ne" /><ellipse
     style="fill:#e6e6e6;stroke-width:0.696631;paint-order:markers stroke fill"
     id="ellipse22"
     cx="220.2782"
     cy="430.39444"
     rx="1.2"
     ry="1.1" /><ellipse
     style="fill:#e6e6e6;stroke-width:0.696631;paint-order:markers stroke fill"
     id="ellipse23"
     cx="205.57037"
     cy="365.62344"
     rx="1.2"
     ry="1.1" /><ellipse
     style="fill:#ffffff;paint-order:markers stroke fill"
     id="ellipse24"
     cx="137.49352"
     cy="299.22702"
     rx="1.7"
     ry="1.6"
     inkscape:label="Ne" /><ellipse
     style="fill:#e6e6e6;stroke-width:0.696631;paint-order:markers stroke fill"
     id="ellipse25"
     cx="122.01806"
     cy="322.19464"
     rx="1.2"
     ry="1.1" /><ellipse
     style="fill:#e6e6e6;stroke-width:0.696631;paint-order:markers stroke fill"
     id="ellipse26"
     cx="185.20569"
     cy="315.64905"
     rx="1.2"
     ry="1.1" /><ellipse
     style="fill:#e6e6e6;stroke-width:0.696631;paint-order:markers stroke fill"
     id="ellipse27"
     cx="223.10663"
     cy="335.92496"
     rx="1.2"
     ry="1.1" /><ellipse
     style="fill:#ffffff;paint-order:markers stroke fill"
     id="ellipse28"
     cx="247.2365"
     cy="459.59882"
     rx="1.7"
     ry="1.6"
     inkscape:label="Ne" /><ellipse
     style="fill:#e6e6e6;stroke-width:0.696631;paint-order:markers stroke fill"
     id="ellipse29"
     cx="223.6723"
     cy="274.83096"
     rx="1.2"
     ry="1.1" /><ellipse
     style="fill:#ffffff;paint-order:markers stroke fill"
     id="ellipse30"
     cx="232.24582"
     cy="244.35553"
     rx="1.7"
     ry="1.6"
     inkscape:label="Ne" /><ellipse
     style="fill:#ffffff;paint-order:markers stroke fill"
     id="ellipse31"
     cx="83.187714"
     cy="251.42661"
     rx="1.7"
     ry="1.6"
     inkscape:label="Ne" /><ellipse
     style="fill:#e6e6e6;stroke-width:0.696631;paint-order:markers stroke fill"
     id="ellipse32"
     cx="93.564659"
     cy="286.71036"
     rx="1.2"
     ry="1.1" /><ellipse
     style="fill:#e6e6e6;stroke-width:0.696631;paint-order:markers stroke fill"
     id="ellipse33"
     cx="134.01117"
     cy="250.78934"
     rx="1.2"
     ry="1.1" /><ellipse
     style="fill:#ffffff;paint-order:markers stroke fill"
     id="ellipse34"
     cx="163.64398"
     cy="222.72223"
     rx="1.7"
     ry="1.6"
     inkscape:label="Ne" /><ellipse
     style="fill:#e6e6e6;stroke-width:0.696631;paint-order:markers stroke fill"
     id="ellipse35"
     cx="101.48426"
     cy="230.14182"
     rx="1.2"
     ry="1.1" /><ellipse
     style="fill:#ffffff;paint-order:markers stroke fill"
     id="ellipse36"
     cx="65.934311"
     cy="210.13158"
     rx="1.7"
     ry="1.6"
     inkscape:label="Ne" /><ellipse
     style="fill:#ffffff;paint-order:markers stroke fill"
     id="ellipse37"
     cx="116.56316"
     cy="180.71594"
     rx="1.7"
     ry="1.6"
     inkscape:label="Ne" /><ellipse
     style="fill:#e6e6e6;stroke-width:0.696631;paint-order:markers stroke fill"
     id="ellipse38"
     cx="168.80083"
     cy="280.48782"
     rx="1.2"
     ry="1.1" /><ellipse
     style="fill:#e6e6e6;stroke-width:0.696631;paint-order:markers stroke fill"
     id="ellipse39"
     cx="143.62781"
     cy="156.60271"
     rx="1.2"
     ry="1.1" /><ellipse
     style="fill:#e6e6e6;stroke-width:0.696631;paint-order:markers stroke fill"
     id="ellipse40"
     cx="86.493576"
     cy="165.37083"
     rx="1.2"
     ry="1.1" /><ellipse
     style="fill:#ffffff;paint-order:markers stroke fill"
     id="ellipse41"
     cx="139.47342"
     cy="107.17683"
     rx="1.7"
     ry="1.6"
     inkscape:label="Ne" /><ellipse
     style="fill:#e6e6e6;stroke-width:0.696631;paint-order:markers stroke fill"
     id="ellipse42"
     cx="172.19492"
     cy="127.75275"
     rx="1.2"
     ry="1.1" /><ellipse
     style="fill:#ffffff;paint-order:markers stroke fill"
     id="ellipse43"
     cx="306.91632"
     cy="423.67783"
     rx="1.7"
     ry="1.6"
     inkscape:label="Ne" /><ellipse
     style="fill:#e6e6e6;stroke-width:0.696631;paint-order:markers stroke fill"
     id="ellipse44"
     cx="338.80106"
     cy="404.13513"
     rx="1.2"
     ry="1.1" /><ellipse
     style="fill:#ffffff;paint-order:markers stroke fill"
     id="ellipse45"
     cx="334.52606"
     cy="463.34442"
     rx="1.7"
     ry="1.6"
     inkscape:label="Ne" /><ellipse
     style="fill:#e6e6e6;stroke-width:0.696631;paint-order:markers stroke fill"
     id="ellipse46"
     cx="299.19128"
     cy="395.32193"
     rx="1.2"
     ry="1.1" /><ellipse
     style="fill:#e6e6e6;stroke-width:0.696631;paint-order:markers stroke fill"
     id="ellipse48"
     cx="352.54175"
     cy="436.75909"
     rx="1.2"
     ry="1.1" /><ellipse
     style="fill:#ffffff;paint-order:markers stroke fill"
     id="ellipse49"
     cx="331.89175"
     cy="367.33667"
     rx="1.7"
     ry="1.6"
     inkscape:label="Ne" /><ellipse
     style="fill:#e6e6e6;stroke-width:0.696631;paint-order:markers stroke fill"
     id="ellipse51"
     cx="379.5907"
     cy="409.26651"
     rx="1.2"
     ry="1.1" /><ellipse
     style="fill:#ffffff;paint-order:markers stroke fill"
     id="ellipse53"
     cx="293.33987"
     cy="368.24066"
     rx="1.7"
     ry="1.6"
     inkscape:label="Ne" /><ellipse
     style="fill:#e6e6e6;stroke-width:0.696631;paint-order:markers stroke fill"
     id="ellipse54"
     cx="341.90054"
     cy="303.68091"
     rx="1.2"
     ry="1.1" /><ellipse
     style="fill:#ffffff;paint-order:markers stroke fill"
     id="ellipse56"
     cx="386.52063"
     cy="438.19495"
     rx="1.7"
     ry="1.6"
     inkscape:label="Ne" /><ellipse
     style="fill:#e6e6e6;stroke-width:0.696631;paint-order:markers stroke fill"
     id="ellipse57"
     cx="305.69666"
     cy="332.53085"
     rx="1.2"
     ry="1.1" /><ellipse
     style="fill:#ffffff;paint-order:markers stroke fill"
     id="ellipse58"
     cx="373.28244"
     cy="288.97061"
     rx="1.7"
     ry="1.6"
     inkscape:label="Ne" /><ellipse
     style="fill:#e6e6e6;stroke-width:0.696631;paint-order:markers stroke fill"
     id="ellipse59"
     cx="397.68436"
     cy="382.19748"
     rx="1.2"
     ry="1.1" /><ellipse
     style="fill:#e6e6e6;stroke-width:0.696631;paint-order:markers stroke fill"
     id="ellipse60"
     cx="411.47986"
     cy="425.30325"
     rx="1.2"
     ry="1.1" /><ellipse
     style="fill:#e6e6e6;stroke-width:0.696631;paint-order:markers stroke fill"
     id="ellipse63"
     cx="364.54465"
     cy="340.50586"
     rx="1.2"
     ry="1.1" /><ellipse
     style="fill:#e6e6e6;stroke-width:0.696631;paint-order:markers stroke fill"
     id="ellipse64"
     cx="292.96878"
     cy="300.28677"
     rx="1.2"
     ry="1.1" /><ellipse
     style="fill:#e6e6e6;stroke-width:0.696631;paint-order:markers stroke fill"
     id="ellipse65"
     cx="307.17606"
     cy="266.85938"
     rx="1.2"
     ry="1.1" /><ellipse
     style="fill:#ffffff;paint-order:markers stroke fill"
     id="ellipse66"
     cx="463.20285"
     cy="355.94946"
     rx="1.7"
     ry="1.6"
     inkscape:label="Ne" /><ellipse
     style="fill:#e6e6e6;stroke-width:0.696631;paint-order:markers stroke fill"
     id="ellipse67"
     cx="428.45041"
     cy="361.09796"
     rx="1.2"
     ry="1.1" /><ellipse
     style="fill:#e6e6e6;stroke-width:0.696631;paint-order:markers stroke fill"
     id="ellipse68"
     cx="433.5416"
     cy="394.75623"
     rx="1.2"
     ry="1.1" /><ellipse
     style="fill:#ffffff;paint-order:markers stroke fill"
     id="ellipse70"
     cx="297.27957"
     cy="228.3271"
     rx="1.7"
     ry="1.6"
     inkscape:label="Ne" /><ellipse
     style="fill:#e6e6e6;stroke-width:0.696631;paint-order:markers stroke fill"
     id="ellipse71"
     cx="335.39514"
     cy="253.61774"
     rx="1.2"
     ry="1.1" /><ellipse
     style="fill:#ffffff;paint-order:markers stroke fill"
     id="ellipse73"
     cx="405.83228"
     cy="339.17993"
     rx="1.7"
     ry="1.6"
     inkscape:label="Ne" /><ellipse
     style="fill:#e6e6e6;stroke-width:0.696631;paint-order:markers stroke fill"
     id="ellipse75"
     cx="407.56171"
     cy="280.71866"
     rx="1.2"
     ry="1.1" /><ellipse
     style="fill:#ffffff;paint-order:markers stroke fill"
     id="ellipse76"
     cx="478.83612"
     cy="280.04367"
     rx="1.7"
     ry="1.6"
     inkscape:label="Ne" /><ellipse
     style="fill:#e6e6e6;stroke-width:0.696631;paint-order:markers stroke fill"
     id="ellipse77"
     cx="443.35724"
     cy="330.95093"
     rx="1.2"
     ry="1.1" /><ellipse
     style="fill:#ffffff;paint-order:markers stroke fill"
     id="ellipse78"
     cx="368.06717"
     cy="181.97278"
     rx="1.7"
     ry="1.6"
     inkscape:label="Ne" /><ellipse
     style="fill:#e6e6e6;stroke-width:0.696631;paint-order:markers stroke fill"
     id="ellipse79"
     cx="388.56964"
     cy="227.03052"
     rx="1.2"
     ry="1.1" /><ellipse
     style="fill:#e6e6e6;stroke-width:0.696631;paint-order:markers stroke fill"
     id="ellipse80"
     cx="400.24313"
     cy="197.36046"
     rx="1.2"
     ry="1.1" /><ellipse
     style="fill:#ffffff;paint-order:markers stroke fill"
     id="ellipse81"
     cx="438.15533"
     cy="254.25502"
     rx="1.7"
     ry="1.6"
     inkscape:label="Ne" /><ellipse
     style="fill:#e6e6e6;stroke-width:0.696631;paint-order:markers stroke fill"
     id="ellipse82"
     cx="444.93716"
     cy="295.16232"
     rx="1.2"
     ry="1.1" /><ellipse
     style="fill:#ffffff;paint-order:markers stroke fill"
     id="ellipse83"
     cx="416.85336"
     cy="231.52222"
     rx="1.7"
     ry="1.6"
     inkscape:label="Ne" /><ellipse
     style="fill:#e6e6e6;stroke-width:0.696631;paint-order:markers stroke fill"
     id="ellipse84"
     cx="469.40579"
     cy="239.20453"
     rx="1.2"
     ry="1.1" /><ellipse
     style="fill:#ffffff;paint-order:markers stroke fill"
     id="ellipse85"
     cx="445.79208"
     cy="199.10069"
     rx="1.7"
     ry="1.6"
     inkscape:label="Ne" /><ellipse
     style="fill:#e6e6e6;stroke-width:0.696631;paint-order:markers stroke fill"
     id="ellipse86"
     cx="478.50528"
     cy="205.18301"
     rx="1.2"
     ry="1.1" /><ellipse
     style="fill:#ffffff;paint-order:markers stroke fill"
     id="ellipse87"
     cx="454.56021"
     cy="152.71448"
     rx="1.7"
     ry="1.6"
     inkscape:label="Ne" /><ellipse
     style="fill:#e6e6e6;stroke-width:0.696631;paint-order:markers stroke fill"
     id="ellipse88"
     cx="425.90488"
     cy="156.60268"
     rx="1.2"
     ry="1.1" /><ellipse
     style="fill:#ffffff;paint-order:markers stroke fill"
     id="ellipse89"
     cx="366.03043"
     cy="108.87387"
     rx="1.7"
     ry="1.6"
     inkscape:label="Ne" /><ellipse
     style="fill:#e6e6e6;stroke-width:0.696631;paint-order:markers stroke fill"
     id="ellipse90"
     cx="384.60983"
     cy="130.58116"
     rx="1.2"
     ry="1.1" /><path
     style="baseline-shift:baseline;display:inline;overflow:visible;opacity:1;mix-blend-mode:normal;fill:url(#linearGradient14);fill-opacity:1;stroke:#ffef91;stroke-width:16;stroke-linejoin:round;stroke-dasharray:none;stroke-opacity:1;paint-order:stroke fill markers;filter:url(#filter11);enable-background:accumulate;stop-color:#000000"
     d="m 143.35229,307.43407 c -5.68939,-0.13317 -12.53099,1.14827 -19.82617,3.4707 -9.72691,3.09658 -20.15349,8.15654 -28.94728,14.89844 -8.385239,6.42869 -13.995025,9.80956 -18.277335,12.98438 -4.28231,3.17481 -7.307561,6.39732 -9.460938,11.62695 -2.015007,4.89359 -3.800163,9.83359 -4.392578,14.33594 -0.296207,2.25117 -0.304363,4.41971 0.269532,6.46679 0.573894,2.04709 1.851905,3.9775 3.783203,5.19727 2.832803,1.78914 8.316003,4.90082 14.517578,7.0918 1.017275,0.35939 2.078509,0.64786 3.130859,0.95312 -3.064754,1.26731 -6.182287,2.52609 -9.089844,3.88477 -4.228159,1.97578 -7.841308,3.83236 -10.173828,5.67383 -3.597417,2.84006 -9.445491,6.60402 -14.736328,10.18164 -2.645418,1.7888 -5.159152,3.53702 -7.246094,5.16601 -2.086941,1.62899 -3.733038,3.00432 -4.833984,4.73438 -1.065637,1.67457 -4.697237,5.75909 -7.919922,10.28125 -3.222684,4.52215 -6.368138,9.65191 -6.107422,15.12695 0.208089,4.36987 0.845698,10.1389 3.341797,15.35547 2.496099,5.21657 7.198642,9.89444 14.587891,11.03125 12.390409,1.90622 32.645201,9.49632 68.451163,-1.89649 33.23197,-10.5738 50.07004,-30.66786 52.5586,-33.79882 0.87425,0.0388 1.95116,0.0591 3.36914,-0.0977 0.91042,-0.10068 2.22436,-0.42388 3.38281,-0.65625 2.26066,1.13837 4.61908,1.72071 7.12695,1.62695 4.41677,-0.16511 9.13724,-1.74122 16.03125,-3.71093 8.21254,-2.34645 15.6964,-10.22272 22.88086,-15.23829 3.59223,-2.50778 6.99869,-4.24527 9.76758,-4.56054 2.7689,-0.31527 5.01818,0.35267 7.75977,3.64258 6.18972,7.42767 7.33756,10.90996 8.88281,13.45507 0.38631,0.63628 0.84977,1.30892 1.62109,1.87891 0.77132,0.56999 1.7999,0.87648 2.67578,0.92383 1.75178,0.0947 3.19426,-0.34714 5.66602,-0.91211 5.40453,-1.23532 24.09573,-6.84138 43.40234,-13.07617 2.08329,-0.67277 3.86363,-1.32477 5.9375,-2.00586 -0.0214,0.64311 -0.19493,1.26998 -0.11132,1.92187 0.4019,3.13369 2.23746,6.13447 5.3789,8.44922 5.35547,3.94613 9.45587,7.13979 14.60547,8.81641 5.14961,1.67661 11.0326,1.6062 19.36133,-0.43946 7.52096,-1.84725 12.81253,-0.52946 19.92384,-2.5332 4.25382,-1.19859 8.92518,-3.90736 14.52148,-8.73828 -0.31554,0.38404 -0.74706,0.84879 -0.99805,1.19727 -0.31349,0.43527 -0.5822,0.83751 -0.82031,1.36132 -0.23811,0.52381 -0.66141,1.27408 -0.18946,2.60938 0.23598,0.66765 0.82187,1.32482 1.38867,1.63867 0.5668,0.31385 1.05336,0.38101 1.43359,0.40234 0.76047,0.0427 1.24432,-0.0885 1.78125,-0.23632 1.07388,-0.29572 2.27322,-0.79198 3.88672,-1.52539 3.81931,-1.73606 8.07745,-5.38257 13.05665,-9.875 4.9792,-4.49244 10.5122,-9.82261 16.02929,-14.76172 5.51709,-4.93911 11.03837,-9.48407 15.78321,-12.3418 4.74484,-2.85773 8.44391,-3.67929 10.33399,-2.875 3.32344,1.41423 6.21067,1.4429 8.60547,1.00195 -0.76788,1.87305 -1.24827,2.87756 -2.47852,6.28125 -4.25152,11.76254 -6.89219,19.2642 -7.26367,24.75391 -0.18574,2.74485 0.27761,5.31372 2.00195,7.14258 1.72435,1.82885 4.16205,2.45146 6.83203,2.61328 5.60031,0.33941 13.48307,-1.71372 21.21875,-4.38867 7.73569,-2.67496 14.93454,-5.8743 18.82618,-8.91993 1.10394,-0.86395 1.84288,-1.19905 2.54296,-1.5332 -0.26455,1.06334 -0.77354,2.53493 -1.85937,4.58594 l 4.86133,2.57422 c 1.35017,-2.55032 2.19569,-4.6553 2.57617,-6.5293 0.38048,-1.874 0.43061,-3.87067 -1.08399,-5.4375 -1.51459,-1.56683 -3.73847,-1.46109 -5.38085,-0.91992 -1.64239,0.54117 -3.25906,1.53205 -5.04493,2.92969 -2.61375,2.04554 -9.83797,5.49315 -17.23437,8.05078 -7.3964,2.55763 -15.35439,4.32393 -19.08789,4.09765 -1.99693,-0.12102 -2.84664,-0.55982 -3.16406,-0.89648 -0.31743,-0.33666 -0.65004,-1.03869 -0.51758,-2.99609 0.26491,-3.91481 2.71546,-11.54442 6.94922,-23.25782 2.09891,-5.807 3.47009,-8.95803 4.19336,-10.63086 0.18081,-0.4182 0.32285,-0.74414 0.4414,-1.04101 0.11856,-0.29687 0.25799,-0.36556 0.33594,-1.2461 0.0195,-0.22013 0.0467,-0.52142 -0.0859,-1.01171 -0.13266,-0.4903 -0.5591,-1.24639 -1.25781,-1.66602 -1.39742,-0.83927 -2.25331,-0.30397 -2.58789,-0.16016 -0.66916,0.28763 -0.71074,0.40742 -0.8965,0.54297 -0.74301,0.5422 -1.6508,1.23648 -3.11327,1.64649 -1.46247,0.41001 -3.37854,0.54383 -6.17578,-0.64649 -4.75672,-2.02414 -10.00162,0.0169 -15.32422,3.22266 -5.32259,3.20571 -10.99345,7.92398 -16.61328,12.95508 -5.61984,5.03109 -11.16881,10.37791 -16.04492,14.77734 -1.05442,0.95134 -1.9277,1.62363 -2.91992,2.47266 3.8413,-4.14163 8.25687,-9.01023 13.19922,-15.00586 8.73543,-10.59708 11.61876,-15.73197 12.28711,-19.4336 0.33417,-1.85081 -0.19834,-3.81577 -1.41016,-4.80859 -0.72034,-0.59016 -1.41314,-0.76845 -1.94336,-0.83984 -0.0667,-0.0123 -0.23047,-0.041 -0.23047,-0.041 0,0 -0.16797,-0.0176 -0.16797,-0.0176 v 0.0234 c -0.0803,-8.6e-4 -0.30665,-0.0273 -0.30665,-0.0273 l 0.11328,5.45703 c -0.1062,0.005 -0.52472,0.0486 -0.95117,-0.30078 -0.47819,-0.39178 -0.39213,-1.1186 -0.51758,-0.42383 -0.006,0.0314 -0.10347,0.19518 -0.11132,0.23047 -0.18893,-0.16629 -0.56648,-0.5001 -0.56641,-0.5 1e-4,1.2e-4 -0.42586,-0.74631 -0.42578,-0.7461 9e-5,2.2e-4 -0.15433,-0.63315 -0.15429,-0.63281 4e-5,3.4e-4 -0.0235,-0.33276 -0.0176,-0.46094 0.0118,-0.25635 0.0485,-0.42454 0.082,-0.55468 0.13403,-0.52059 0.2175,-0.56797 0.25586,-0.63477 0.0767,-0.1336 0.0321,-0.0503 -0.10351,0.13477 -0.27119,0.37013 -0.94704,1.24716 -2.38281,3.01562 -2.87156,3.53692 -8.80357,10.67172 -20.95899,24.94727 -12.00449,14.0983 -18.95135,18.49905 -24.63867,20.10156 -5.68732,1.6025 -11.14306,0.37378 -19.74414,2.48633 -7.79331,1.91414 -12.37558,1.84401 -16.34766,0.55078 -3.97208,-1.29324 -7.6504,-4.04021 -13.04297,-8.01367 -2.23256,-1.64505 -2.97757,-3.0991 -3.18554,-4.72071 -0.11792,-0.91941 0.0361,-1.99243 0.34765,-3.14453 5.43795,-1.81864 11.19143,-3.68064 15.88282,-5.36328 8.12687,-2.91483 14.53561,-5.40756 18.03515,-7.31641 6.67745,-3.64224 13.37719,-9.52619 16.74414,-14.88085 0.84174,-1.33867 1.49055,-2.65539 1.81055,-4.07618 0.32,-1.42078 0.27583,-3.12786 -0.68164,-4.55664 -0.95748,-1.42877 -2.57198,-2.18627 -4.23242,-2.46289 -1.66045,-0.27661 -3.52415,-0.18241 -5.79883,0.20313 -16.95827,2.87428 -26.21816,7.32652 -34.22266,17.40625 -3.73974,4.70931 -8.66912,10.1227 -11.45508,15.85156 -0.12838,0.264 -0.17954,0.54752 -0.29882,0.81445 -3.15471,1.0465 -5.90413,2.04235 -9.10547,3.07617 -19.23071,6.21029 -38.44059,11.9179 -42.93555,12.94532 -2.36592,0.54078 -3.64897,0.73801 -3.95703,0.74804 -0.0405,-0.0523 0.0105,0.0183 -0.0801,-0.13086 -0.85892,-1.41468 -2.82118,-6.27526 -9.35937,-14.12109 -3.62238,-4.34685 -8.23259,-6.08384 -12.60547,-5.58594 -4.37289,0.49791 -8.39182,2.79082 -12.29492,5.51563 -7.80621,5.44961 -15.59544,12.84758 -21.24219,14.46094 -2.36979,0.67708 -4.12429,1.15754 -5.98438,1.66992 12.53909,-5.98585 30.05927,-17.27137 54.15235,-39.72461 26.99725,-25.15974 41.92893,-38.52269 49.47851,-46.50781 3.77479,-3.99257 5.87655,-6.51644 6.53711,-9.47461 0.33028,-1.47909 0.0573,-3.14547 -0.67187,-4.35547 -0.72916,-1.21001 -1.70395,-2.00427 -2.72071,-2.73633 -3.42344,-2.46488 -4.9823,-4.15616 -7.4707,-5.16211 -1.2442,-0.50297 -2.70234,-0.65797 -4.10547,-0.46094 -1.40312,0.19704 -2.8027,0.65673 -4.57226,1.32032 -3.21775,1.20665 -8.13477,2.62936 -13.69922,6.67968 -5.56446,4.05032 -11.77052,10.69445 -18.2793,22.26563 -6.49251,11.54224 -9.01115,19.94437 -10.57617,24.70898 -0.7015,2.13567 -1.24352,3.1516 -1.38281,3.41797 -0.11985,-0.0404 -0.0387,0.002 -0.25391,-0.10547 -2.38082,-1.19041 -2.05534,-1.9681 -3.57031,-3.94922 -0.75749,-0.99056 -2.40242,-2.04458 -4.10157,-2.14453 -1.69914,-0.0999 -3.45675,0.30546 -6.00195,1.12891 -10.36247,3.35256 -31.22009,14.54771 -42.58594,28.60547 -5.29055,6.54357 -9.72012,10.94775 -12.30078,15.18164 -1.29032,2.11694 -2.17144,4.35053 -1.98633,6.76367 0.15144,1.97406 1.17632,3.78145 2.57813,5.47266 -0.37798,-0.0248 -1.46484,0.0273 -1.46484,0.0273 l -1.74414,-0.39844 -1.07032,1.43555 c 0,0 -16.41386,22.07282 -50.83007,33.02344 -34.594029,11.00719 -52.337675,3.79691 -65.947266,1.70312 -5.610751,-0.86319 -8.508989,-3.88531 -10.46289,-7.96875 -1.953901,-4.08343 -2.616683,-9.21401 -2.808594,-13.24414 -0.139284,-2.92495 2.114481,-7.49598 5.091797,-11.67383 2.977315,-4.17784 6.347668,-7.7941 8.082031,-10.51953 0.299054,-0.46994 1.677567,-1.86805 3.578125,-3.35156 1.900559,-1.48351 4.336825,-3.18607 6.941406,-4.94727 5.209163,-3.52238 11.061871,-7.25803 15.064453,-10.41797 1.467481,-1.15853 5.016509,-3.10359 9.095704,-5.00976 4.079194,-1.90617 8.765974,-3.87126 12.916014,-5.51758 2.54834,-1.01092 4.06902,-1.53256 5.94726,-2.2168 1.34155,-0.22218 2.67168,-0.5099 3.9375,-1.06836 0.62672,-0.27649 1.08196,-0.48596 1.45117,-0.67578 0.18461,-0.0949 0.33469,-0.16902 0.57422,-0.33007 0.11977,-0.0805 0.25477,-0.14883 0.54492,-0.46094 0.14508,-0.15606 0.35748,-0.36237 0.56641,-0.91016 0.20893,-0.54778 0.25531,-1.7471 -0.30859,-2.56055 -0.56391,-0.81344 -1.21533,-1.00591 -1.56836,-1.0996 -0.35304,-0.0937 -0.55022,-0.0921 -0.70313,-0.0937 -0.30581,-0.003 -0.43798,0.0246 -0.5625,0.0449 -0.24903,0.0407 -0.40809,0.0829 -0.59375,0.13281 -0.37131,0.0998 -0.79509,0.23225 -1.32226,0.40625 -0.7318,0.24154 -2.40303,0.90627 -3.4668,1.29102 -3.44334,0.34699 -7.767219,-0.46911 -11.951167,-1.94727 -5.607109,-1.98095 -10.872854,-4.95167 -13.414062,-6.55664 -0.755708,-0.47729 -1.140356,-1.02205 -1.423829,-2.0332 -0.283472,-1.01115 -0.34545,-2.48434 -0.111328,-4.26368 0.468246,-3.55866 2.078647,-8.23592 4.023438,-12.95898 1.806421,-4.38702 3.732215,-6.39643 7.652344,-9.30273 3.920128,-2.90631 9.764294,-6.45504 18.349604,-13.03711 8.17678,-6.26887 18.11473,-11.10961 27.26758,-14.02344 9.15285,-2.91383 17.62911,-3.78751 22.20117,-2.73242 0.51661,0.11921 0.11958,-0.2661 0.19141,0.19726 0.0718,0.46337 -0.0743,1.823 -0.69141,3.54492 -1.23414,3.44384 -4.03937,8.31502 -7.2168,13.08985 -6.35486,9.54966 -14.14258,18.88867 -14.14258,18.88867 l 4.22266,3.52539 c 0,0 7.91286,-9.47141 14.49805,-19.36719 3.29259,-4.94788 6.26631,-9.95575 7.8164,-14.28125 0.77505,-2.16274 1.27183,-4.16107 0.94922,-6.24218 -0.3226,-2.08112 -2.14952,-4.19767 -4.39062,-4.71485 -1.6147,-0.37262 -3.38284,-0.57475 -5.2793,-0.61914 z m 138.00977,13.33594 c 0.67399,-0.0947 0.8618,-0.0555 1.27929,0.11328 0.83499,0.33755 2.66878,1.8991 6.31641,4.52539 0.75102,0.54073 1.13813,0.96653 1.22656,1.11328 0.0884,0.14676 0.09,-0.0253 0.0137,0.31641 -0.15261,0.68343 -1.58689,3.10892 -5.16602,6.89453 -7.15825,7.57122 -22.20672,21.07741 -49.23242,46.26367 -26.84305,25.01605 -45.57351,36.1578 -57.37696,41.03516 -2.94015,1.21492 -5.44603,2.03767 -7.54686,2.59765 -0.72425,-0.5237 -1.38339,-0.83846 -2.25,-1.70507 -1.41348,-1.41348 -1.79311,-2.3354 -1.85547,-3.14844 -0.0624,-0.81304 0.22485,-1.8851 1.19727,-3.48047 1.94482,-3.19073 6.42534,-7.83786 11.88281,-14.58789 10.1302,-12.52946 31.1311,-23.9601 40.00194,-26.83008 2.26313,-0.73219 3.58184,-0.89489 3.98633,-0.87109 0.40451,0.0238 -0.10706,-0.21543 0.0547,-0.004 0.32349,0.42305 1.63874,3.60453 5.48046,5.52539 0.99025,0.49512 1.99885,0.8828 3.22265,0.86133 1.22381,-0.0215 2.52503,-0.6637 3.30275,-1.47656 1.55543,-1.62574 1.98838,-3.43902 2.79687,-5.90039 1.61696,-4.92276 3.90717,-12.64336 10.14258,-23.72852 6.21914,-11.05625 11.89263,-16.99795 16.72265,-20.51367 4.83002,-3.51573 8.8221,-4.63763 12.39257,-5.97656 1.62456,-0.60921 2.7342,-0.92879 3.40821,-1.02344 z m 72.47069,55.54492 c 0.72714,0.12114 0.67093,0.25754 0.56641,0.10156 -0.10453,-0.15598 -9.9e-4,-0.21208 -0.11329,0.28516 -0.11199,0.49724 -0.47605,1.36459 -1.10156,2.35937 -2.50204,3.97915 -8.95307,9.83254 -14.7207,12.97852 -2.723,1.48527 -9.21846,4.08335 -17.25781,6.9668 -2.98952,1.07223 -6.81205,2.2889 -10.16993,3.43554 2.39536,-3.47263 5.24341,-7.06301 7.98829,-10.51953 7.26902,-9.15357 14.41486,-12.62172 30.83203,-15.40429 1.89724,-0.32157 3.24942,-0.32426 3.97656,-0.20313 z"
     id="path5" /><ellipse
     style="fill:#ffffff;paint-order:markers stroke fill"
     id="ellipse91"
     cx="408.17398"
     cy="115.94494"
     rx="1.7"
     ry="1.6"
     inkscape:label="Ne" /></svg>
