<?xml version="1.0" encoding="UTF-8" standalone="no"?>
<svg width="512" height="512" fill="none" viewBox="0 0 512 512" version="1.1" id="svg7" sodipodi:docname="newyear2025.svg" inkscape:version="1.4.2 (f4327f4, 2025-05-13)" xml:space="preserve" xmlns:inkscape="http://www.inkscape.org/namespaces/inkscape" xmlns:sodipodi="http://sodipodi.sourceforge.net/DTD/sodipodi-0.dtd" xmlns:xlink="http://www.w3.org/1999/xlink" xmlns="http://www.w3.org/2000/svg" xmlns:svg="http://www.w3.org/2000/svg">
  <metadata>
    <rdf:RDF xmlns:rdf="http://www.w3.org/1999/02/22-rdf-syntax-ns#" xmlns:dc="http://purl.org/dc/elements/1.1/" xmlns:cc="http://creativecommons.org/ns#">
      <cc:Work rdf:about="">
        <dc:title>New Year 2025 Logo - Named Variant</dc:title>
        <dc:creator>
          <cc:Agent>
            <dc:title>Madeline_Dev</dc:title>
            <dc:identifier>mailto:madelvidel@gmail.com</dc:identifier>
          </cc:Agent>
        </dc:creator>
        <dc:date>2025</dc:date>
        <dc:license rdf:resource="https://www.gnu.org/licenses/gpl-3.0.html"/>
        <dc:rights>2025 Eden Emulator Project</dc:rights>
        <dc:source>https://git.eden-emu.dev</dc:source>
      </cc:Work>
    </rdf:RDF>
  </metadata>
  <defs id="defs7"><linearGradient id="linearGradient1" inkscape:collect="always"><stop style="stop-color:#670047;stop-opacity:1;" offset="0" id="stop1"/><stop style="stop-color:#54003b;stop-opacity:0;" offset="1" id="stop2"/></linearGradient><linearGradient id="linearGradient11" inkscape:collect="always"><stop style="stop-color:#60001d;stop-opacity:1;" offset="0" id="stop11"/><stop style="stop-color:#2f087e;stop-opacity:1;" offset="0.49822688" id="stop20"/><stop style="stop-color:#0d3969;stop-opacity:1;" offset="0.99898213" id="stop12"/></linearGradient><linearGradient inkscape:collect="always" xlink:href="#linearGradient11" id="linearGradient12" x1="109.74531" y1="106.54533" x2="431.05463" y2="427.85461" gradientUnits="userSpaceOnUse" spreadMethod="reflect"/><linearGradient inkscape:collect="always" xlink:href="#linearGradient1" id="linearGradient2" x1="125.40197" y1="271.834" x2="431.02424" y2="271.834" gradientUnits="userSpaceOnUse" gradientTransform="matrix(1.0017288,0,0,0.93676627,-0.48097641,13.794965)"/></defs><sodipodi:namedview id="namedview7" pagecolor="#ffffff" bordercolor="#000000" borderopacity="0.25" inkscape:showpageshadow="2" inkscape:pageopacity="0.0" inkscape:pagecheckerboard="0" inkscape:deskcolor="#d1d1d1" inkscape:zoom="1.25" inkscape:cx="212.4" inkscape:cy="284.4" inkscape:window-width="1920" inkscape:window-height="1001" inkscape:window-x="-9" inkscape:window-y="-9" inkscape:window-maximized="1" inkscape:current-layer="svg7"/><circle style="fill:url(#linearGradient12);fill-opacity:1;stroke-width:12.8318;stroke-opacity:1;paint-order:stroke fill markers;stroke:#ffef91" id="path8" cx="270.39996" cy="267.19998" r="227.2"/><path id="path15" style="fill:url(#linearGradient2);fill-opacity:1;stroke:#ffef91;stroke-width:15.4992;stroke-linejoin:round;stroke-dasharray:none;stroke-dashoffset:0;stroke-opacity:1;paint-order:stroke fill markers" d="m 316.46641,54.262536 c 0,0 -10.94894,36.624745 -16.49527,55.212494 -11.84627,8.68279 -19.6374,16.80873 -19.6374,16.80873 0,0 -21.391,-28.349458 -41.79087,-40.140067 -20.39989,-11.790609 -47.89321,-10.271496 -47.89321,-10.271496 0,0 -11.42088,3.65e-4 -25.24473,5.058903 -13.82386,5.058538 -19.43394,8.430897 -19.43394,8.430897 0,0 14.02577,-0.375072 34.66138,6.182291 20.63562,6.557362 29.65079,10.492882 29.65079,10.492882 l 28.34775,-5.99567 -7.71253,10.11781 c 0,0 13.52412,8.14986 20.83674,15.45664 7.31262,7.30677 10.71771,11.42782 10.71771,11.42782 0,0 -12.72117,-4.96414 -51.78859,-1.59178 -39.06742,3.37236 -77.5342,51.52215 -77.5342,51.52215 0,0 37.66383,-14.61428 59.90221,-19.48547 22.23838,-4.87118 43.47542,-7.30751 43.47542,-7.30751 0,0 -16.82788,6.74508 -34.85899,35.03543 -18.03112,28.29034 -12.82292,73.25622 -12.82292,73.25622 0,0 28.64945,-53.95774 56.09682,-72.131 27.44737,-18.17328 33.05705,-18.73533 33.05705,-18.73533 0,0 -22.03764,44.21537 -30.65251,115.22225 -8.61486,71.00688 27.64733,189.78848 27.64733,189.78848 l 43.67498,-6.37074 c 0,0 -41.67114,-38.5944 -45.27736,-138.26634 -3.60623,-99.67193 15.22549,-159.25026 15.22549,-159.25026 0,0 15.62776,1.12412 38.86787,29.97652 23.2401,28.85239 36.86244,52.4589 36.86244,52.4589 0,0 8.81678,-46.83904 -10.41641,-68.19731 -19.2332,-21.35826 -48.88515,-30.72483 -48.88515,-30.72483 0,0 12.522,-6.08862 38.46678,-4.30877 25.94477,1.77987 79.76265,24.7859 79.76265,24.78589 0,0 -14.44983,-23.31717 -48.30798,-39.47958 -33.85813,-16.16241 -74.32945,0.26713 -74.32945,0.26713 0,0 3.77869,-14.04506 26.5869,-29.81003 22.80821,-15.764967 51.99208,-31.396304 51.99208,-31.396304 0,0 -24.0829,1.06012 -50.43274,10.996027 -6.55623,2.472198 -12.84933,5.755465 -18.60438,9.294477 l 15.90245,-46.642543 z"/><ellipse style="fill:#ffffff;paint-order:markers stroke fill" id="path6" cx="110.05778" cy="404.72733" rx="1.7" ry="1.6" inkscape:label="Ne"/><ellipse style="fill:#e6e6e6;stroke-width:0.696631;paint-order:markers stroke fill" id="ellipse6" cx="113.92934" cy="386.55383" rx="1.2" ry="1.1"/><ellipse style="fill:#ffffff;paint-order:markers stroke fill" id="ellipse7" cx="162.10083" cy="412.64694" rx="1.7" ry="1.6" inkscape:label="Ne"/><ellipse style="fill:#ffffff;paint-order:markers stroke fill" id="ellipse8" cx="134.38225" cy="390.58521" rx="1.7" ry="1.6" inkscape:label="Ne"/><ellipse style="fill:#ffffff;paint-order:markers stroke fill" id="ellipse9" cx="138.34204" cy="432.44592" rx="1.7" ry="1.6" inkscape:label="Ne"/><ellipse style="fill:#ffffff;paint-order:markers stroke fill" id="ellipse10" cx="205.37576" cy="448.28513" rx="1.7" ry="1.6" inkscape:label="Ne"/><ellipse style="fill:#ffffff;paint-order:markers stroke fill" id="ellipse11" cx="170.58611" cy="453.94199" rx="1.7" ry="1.6" inkscape:label="Ne"/><ellipse style="fill:#e6e6e6;stroke-width:0.696631;paint-order:markers stroke fill" id="ellipse12" cx="170.49788" cy="431.80865" rx="1.2" ry="1.1"/><ellipse style="fill:#e6e6e6;stroke-width:0.696631;paint-order:markers stroke fill" id="ellipse13" cx="179.54884" cy="399.56458" rx="1.2" ry="1.1"/><ellipse style="fill:#ffffff;paint-order:markers stroke fill" id="ellipse14" cx="123.63422" cy="348.15881" rx="1.7" ry="1.6" inkscape:label="Ne"/><ellipse style="fill:#e6e6e6;stroke-width:0.696631;paint-order:markers stroke fill" id="ellipse15" cx="88.473495" cy="379.76559" rx="1.2" ry="1.1"/><ellipse style="fill:#e6e6e6;stroke-width:0.696631;paint-order:markers stroke fill" id="ellipse16" cx="225.36937" cy="469.70959" rx="1.2" ry="1.1"/><ellipse style="fill:#ffffff;paint-order:markers stroke fill" id="ellipse17" cx="180.48561" cy="336.56226" rx="1.7" ry="1.6" inkscape:label="Ne"/><ellipse style="fill:#e6e6e6;stroke-width:0.696631;paint-order:markers stroke fill" id="ellipse18" cx="157.91554" cy="320.77493" rx="1.2" ry="1.1"/><ellipse style="fill:#ffffff;paint-order:markers stroke fill" id="ellipse19" cx="68.197044" cy="312.52063" rx="1.7" ry="1.6" inkscape:label="Ne"/><ellipse style="fill:#e6e6e6;stroke-width:0.696631;paint-order:markers stroke fill" id="ellipse20" cx="95.261719" cy="347.52151" rx="1.2" ry="1.1"/><ellipse style="fill:#ffffff;paint-order:markers stroke fill" id="ellipse21" cx="211.31548" cy="399.6362" rx="1.7" ry="1.6" inkscape:label="Ne"/><ellipse style="fill:#e6e6e6;stroke-width:0.696631;paint-order:markers stroke fill" id="ellipse22" cx="220.2782" cy="430.39444" rx="1.2" ry="1.1"/><ellipse style="fill:#e6e6e6;stroke-width:0.696631;paint-order:markers stroke fill" id="ellipse23" cx="205.57037" cy="365.62344" rx="1.2" ry="1.1"/><ellipse style="fill:#ffffff;paint-order:markers stroke fill" id="ellipse24" cx="137.49352" cy="299.22702" rx="1.7" ry="1.6" inkscape:label="Ne"/><ellipse style="fill:#e6e6e6;stroke-width:0.696631;paint-order:markers stroke fill" id="ellipse25" cx="122.01806" cy="322.19464" rx="1.2" ry="1.1"/><ellipse style="fill:#e6e6e6;stroke-width:0.696631;paint-order:markers stroke fill" id="ellipse26" cx="185.20569" cy="315.64905" rx="1.2" ry="1.1"/><ellipse style="fill:#e6e6e6;stroke-width:0.696631;paint-order:markers stroke fill" id="ellipse27" cx="223.10663" cy="335.92496" rx="1.2" ry="1.1"/><ellipse style="fill:#ffffff;paint-order:markers stroke fill" id="ellipse28" cx="247.2365" cy="459.59882" rx="1.7" ry="1.6" inkscape:label="Ne"/><ellipse style="fill:#e6e6e6;stroke-width:0.696631;paint-order:markers stroke fill" id="ellipse29" cx="223.6723" cy="274.83096" rx="1.2" ry="1.1"/><ellipse style="fill:#ffffff;paint-order:markers stroke fill" id="ellipse30" cx="232.24582" cy="244.35553" rx="1.7" ry="1.6" inkscape:label="Ne"/><ellipse style="fill:#ffffff;paint-order:markers stroke fill" id="ellipse31" cx="83.187714" cy="251.42661" rx="1.7" ry="1.6" inkscape:label="Ne"/><ellipse style="fill:#e6e6e6;stroke-width:0.696631;paint-order:markers stroke fill" id="ellipse32" cx="93.564659" cy="286.71036" rx="1.2" ry="1.1"/><ellipse style="fill:#e6e6e6;stroke-width:0.696631;paint-order:markers stroke fill" id="ellipse33" cx="134.01117" cy="250.78934" rx="1.2" ry="1.1"/><ellipse style="fill:#ffffff;paint-order:markers stroke fill" id="ellipse34" cx="163.64398" cy="222.72223" rx="1.7" ry="1.6" inkscape:label="Ne"/><ellipse style="fill:#e6e6e6;stroke-width:0.696631;paint-order:markers stroke fill" id="ellipse35" cx="101.48426" cy="230.14182" rx="1.2" ry="1.1"/><ellipse style="fill:#ffffff;paint-order:markers stroke fill" id="ellipse36" cx="65.934311" cy="210.13158" rx="1.7" ry="1.6" inkscape:label="Ne"/><ellipse style="fill:#ffffff;paint-order:markers stroke fill" id="ellipse37" cx="116.56316" cy="180.71594" rx="1.7" ry="1.6" inkscape:label="Ne"/><ellipse style="fill:#e6e6e6;stroke-width:0.696631;paint-order:markers stroke fill" id="ellipse38" cx="168.80083" cy="280.48782" rx="1.2" ry="1.1"/><ellipse style="fill:#e6e6e6;stroke-width:0.696631;paint-order:markers stroke fill" id="ellipse39" cx="143.62781" cy="156.60271" rx="1.2" ry="1.1"/><ellipse style="fill:#e6e6e6;stroke-width:0.696631;paint-order:markers stroke fill" id="ellipse40" cx="86.493576" cy="165.37083" rx="1.2" ry="1.1"/><ellipse style="fill:#ffffff;paint-order:markers stroke fill" id="ellipse41" cx="139.47342" cy="107.17683" rx="1.7" ry="1.6" inkscape:label="Ne"/><ellipse style="fill:#e6e6e6;stroke-width:0.696631;paint-order:markers stroke fill" id="ellipse42" cx="172.19492" cy="127.75275" rx="1.2" ry="1.1"/><ellipse style="fill:#ffffff;paint-order:markers stroke fill" id="ellipse43" cx="306.91632" cy="423.67783" rx="1.7" ry="1.6" inkscape:label="Ne"/><ellipse style="fill:#e6e6e6;stroke-width:0.696631;paint-order:markers stroke fill" id="ellipse44" cx="338.80106" cy="404.13513" rx="1.2" ry="1.1"/><ellipse style="fill:#ffffff;paint-order:markers stroke fill" id="ellipse45" cx="334.52606" cy="463.34442" rx="1.7" ry="1.6" inkscape:label="Ne"/><ellipse style="fill:#e6e6e6;stroke-width:0.696631;paint-order:markers stroke fill" id="ellipse46" cx="299.19128" cy="395.32193" rx="1.2" ry="1.1"/><ellipse style="fill:#e6e6e6;stroke-width:0.696631;paint-order:markers stroke fill" id="ellipse48" cx="352.54175" cy="436.75909" rx="1.2" ry="1.1"/><ellipse style="fill:#ffffff;paint-order:markers stroke fill" id="ellipse49" cx="331.89175" cy="367.33667" rx="1.7" ry="1.6" inkscape:label="Ne"/><ellipse style="fill:#e6e6e6;stroke-width:0.696631;paint-order:markers stroke fill" id="ellipse51" cx="379.5907" cy="409.26651" rx="1.2" ry="1.1"/><ellipse style="fill:#ffffff;paint-order:markers stroke fill" id="ellipse53" cx="293.33987" cy="368.24066" rx="1.7" ry="1.6" inkscape:label="Ne"/><ellipse style="fill:#e6e6e6;stroke-width:0.696631;paint-order:markers stroke fill" id="ellipse54" cx="341.90054" cy="303.68091" rx="1.2" ry="1.1"/><ellipse style="fill:#ffffff;paint-order:markers stroke fill" id="ellipse56" cx="386.52063" cy="438.19495" rx="1.7" ry="1.6" inkscape:label="Ne"/><ellipse style="fill:#e6e6e6;stroke-width:0.696631;paint-order:markers stroke fill" id="ellipse57" cx="305.69666" cy="332.53085" rx="1.2" ry="1.1"/><ellipse style="fill:#ffffff;paint-order:markers stroke fill" id="ellipse58" cx="373.28244" cy="288.97061" rx="1.7" ry="1.6" inkscape:label="Ne"/><ellipse style="fill:#e6e6e6;stroke-width:0.696631;paint-order:markers stroke fill" id="ellipse59" cx="397.68436" cy="382.19748" rx="1.2" ry="1.1"/><ellipse style="fill:#e6e6e6;stroke-width:0.696631;paint-order:markers stroke fill" id="ellipse60" cx="411.47986" cy="425.30325" rx="1.2" ry="1.1"/><ellipse style="fill:#e6e6e6;stroke-width:0.696631;paint-order:markers stroke fill" id="ellipse63" cx="364.54465" cy="340.50586" rx="1.2" ry="1.1"/><ellipse style="fill:#e6e6e6;stroke-width:0.696631;paint-order:markers stroke fill" id="ellipse64" cx="292.96878" cy="300.28677" rx="1.2" ry="1.1"/><ellipse style="fill:#e6e6e6;stroke-width:0.696631;paint-order:markers stroke fill" id="ellipse65" cx="307.17606" cy="266.85938" rx="1.2" ry="1.1"/><ellipse style="fill:#ffffff;paint-order:markers stroke fill" id="ellipse66" cx="463.20285" cy="355.94946" rx="1.7" ry="1.6" inkscape:label="Ne"/><ellipse style="fill:#e6e6e6;stroke-width:0.696631;paint-order:markers stroke fill" id="ellipse67" cx="428.45041" cy="361.09796" rx="1.2" ry="1.1"/><ellipse style="fill:#e6e6e6;stroke-width:0.696631;paint-order:markers stroke fill" id="ellipse68" cx="433.5416" cy="394.75623" rx="1.2" ry="1.1"/><ellipse style="fill:#ffffff;paint-order:markers stroke fill" id="ellipse70" cx="297.27957" cy="228.3271" rx="1.7" ry="1.6" inkscape:label="Ne"/><ellipse style="fill:#e6e6e6;stroke-width:0.696631;paint-order:markers stroke fill" id="ellipse71" cx="335.39514" cy="253.61774" rx="1.2" ry="1.1"/><ellipse style="fill:#ffffff;paint-order:markers stroke fill" id="ellipse73" cx="405.83228" cy="339.17993" rx="1.7" ry="1.6" inkscape:label="Ne"/><ellipse style="fill:#e6e6e6;stroke-width:0.696631;paint-order:markers stroke fill" id="ellipse75" cx="407.56171" cy="280.71866" rx="1.2" ry="1.1"/><ellipse style="fill:#ffffff;paint-order:markers stroke fill" id="ellipse76" cx="478.83612" cy="280.04367" rx="1.7" ry="1.6" inkscape:label="Ne"/><ellipse style="fill:#e6e6e6;stroke-width:0.696631;paint-order:markers stroke fill" id="ellipse77" cx="443.35724" cy="330.95093" rx="1.2" ry="1.1"/><ellipse style="fill:#ffffff;paint-order:markers stroke fill" id="ellipse78" cx="368.06717" cy="181.97278" rx="1.7" ry="1.6" inkscape:label="Ne"/><ellipse style="fill:#e6e6e6;stroke-width:0.696631;paint-order:markers stroke fill" id="ellipse79" cx="388.56964" cy="227.03052" rx="1.2" ry="1.1"/><ellipse style="fill:#e6e6e6;stroke-width:0.696631;paint-order:markers stroke fill" id="ellipse80" cx="400.24313" cy="197.36046" rx="1.2" ry="1.1"/><ellipse style="fill:#ffffff;paint-order:markers stroke fill" id="ellipse81" cx="438.15533" cy="254.25502" rx="1.7" ry="1.6" inkscape:label="Ne"/><ellipse style="fill:#e6e6e6;stroke-width:0.696631;paint-order:markers stroke fill" id="ellipse82" cx="444.93716" cy="295.16232" rx="1.2" ry="1.1"/><ellipse style="fill:#ffffff;paint-order:markers stroke fill" id="ellipse83" cx="416.85336" cy="231.52222" rx="1.7" ry="1.6" inkscape:label="Ne"/><ellipse style="fill:#e6e6e6;stroke-width:0.696631;paint-order:markers stroke fill" id="ellipse84" cx="469.40579" cy="239.20453" rx="1.2" ry="1.1"/><ellipse style="fill:#ffffff;paint-order:markers stroke fill" id="ellipse85" cx="445.79208" cy="199.10069" rx="1.7" ry="1.6" inkscape:label="Ne"/><ellipse style="fill:#e6e6e6;stroke-width:0.696631;paint-order:markers stroke fill" id="ellipse86" cx="478.50528" cy="205.18301" rx="1.2" ry="1.1"/><ellipse style="fill:#ffffff;paint-order:markers stroke fill" id="ellipse87" cx="454.56021" cy="152.71448" rx="1.7" ry="1.6" inkscape:label="Ne"/><ellipse style="fill:#e6e6e6;stroke-width:0.696631;paint-order:markers stroke fill" id="ellipse88" cx="425.90488" cy="156.60268" rx="1.2" ry="1.1"/><ellipse style="fill:#ffffff;paint-order:markers stroke fill" id="ellipse89" cx="366.03043" cy="108.87387" rx="1.7" ry="1.6" inkscape:label="Ne"/><ellipse style="fill:#e6e6e6;stroke-width:0.696631;paint-order:markers stroke fill" id="ellipse90" cx="384.60983" cy="130.58116" rx="1.2" ry="1.1"/><ellipse style="fill:#ffffff;paint-order:markers stroke fill" id="ellipse91" cx="408.17398" cy="115.94494" rx="1.7" ry="1.6" inkscape:label="Ne"/></svg>