<?xml version="1.0" encoding="UTF-8" standalone="no"?>
<svg
   width="512"
   height="512"
   fill="none"
   viewBox="0 0 512 512"
   version="1.1"
   id="svg7"
   sodipodi:docname="base_small.svg"
   inkscape:version="1.4.2 (ebf0e940d0, 2025-05-08)"
   xmlns:inkscape="http://www.inkscape.org/namespaces/inkscape"
   xmlns:sodipodi="http://sodipodi.sourceforge.net/DTD/sodipodi-0.dtd"
   xmlns:xlink="http://www.w3.org/1999/xlink"
   xmlns="http://www.w3.org/2000/svg"
   xmlns:svg="http://www.w3.org/2000/svg">
  <defs
     id="defs7">
    <linearGradient
       id="linearGradient10"
       inkscape:collect="always">
      <stop
         style="stop-color:#f977d9;stop-opacity:1;"
         offset="0"
         id="stop10" />
      <stop
         style="stop-color:#a655d5;stop-opacity:1;"
         offset="0.54051435"
         id="stop13" />
      <stop
         style="stop-color:#984fd5;stop-opacity:1;"
         offset="0.5714342"
         id="stop12" />
      <stop
         style="stop-color:#8c4ad4;stop-opacity:1;"
         offset="0.59666741"
         id="stop14" />
      <stop
         style="stop-color:#3928d2;stop-opacity:1;"
         offset="1"
         id="stop11" />
    </linearGradient>
    <linearGradient
       inkscape:collect="always"
       xlink:href="#linearGradient10"
       id="linearGradient11"
       x1="264.17508"
       y1="28.385544"
       x2="264.17508"
       y2="488.65109"
       gradientUnits="userSpaceOnUse"
       gradientTransform="matrix(0.97815818,0,0,0.97880258,4.570042,5.8799159)" />
  </defs>
  <sodipodi:namedview
     id="namedview7"
     pagecolor="#ffffff"
     bordercolor="#000000"
     borderopacity="0.25"
     inkscape:showpageshadow="2"
     inkscape:pageopacity="0.0"
     inkscape:pagecheckerboard="0"
     inkscape:deskcolor="#d1d1d1"
     inkscape:zoom="0.88388348"
     inkscape:cx="153.30075"
     inkscape:cy="243.24473"
     inkscape:window-width="1600"
     inkscape:window-height="849"
     inkscape:window-x="0"
     inkscape:window-y="27"
     inkscape:window-maximized="1"
     inkscape:current-layer="svg7"
     showguides="false" />
  <path
     id="path9"
     style="fill:url(#linearGradient11);fill-opacity:1;stroke:none;stroke-width:13.3314;stroke-opacity:1;paint-order:stroke fill markers"
     d="M 262.97461 33.6875 A 218.44267 225.23091 0 0 0 138.83789 73.589844 L 141.13867 72.265625 L 161.2207 65.195312 L 181.01953 61.517578 L 204.35352 64.205078 L 228.96094 76.650391 L 265.80078 115 L 283 99.400391 L 304.59961 85.800781 L 331 76.400391 L 360.59961 69.599609 L 379.95508 69.208984 A 218.44267 225.23091 0 0 0 262.97461 33.6875 z M 380.07617 69.291016 L 350.19922 77.800781 L 329.19922 89.199219 L 307.40039 108 L 288.80078 129.80078 L 287.40039 135 L 302.40039 129.59961 L 319 127.80078 L 348.80078 131.80078 L 370.19922 141.40039 L 393 161.40039 L 399.59961 171.59961 L 374.80078 160.80078 L 338.40039 150.80078 L 309.19922 150 L 288.80078 154.40039 L 293.19922 155.19922 L 319.19922 168.80078 L 338 187.19922 L 350.80078 224 L 349.19922 260 L 326 222.80078 L 302.80078 194 L 277.59961 172.40039 L 269.19922 187.59961 L 256.80078 281.59961 L 258 364 L 278.40039 452.80078 L 297.19531 481.36914 A 218.44267 225.23091 0 0 0 481.41797 258.91797 A 218.44267 225.23091 0 0 0 380.07617 69.291016 z M 133.07422 77.839844 A 218.44267 225.23091 0 0 0 44.533203 258.91797 A 218.44267 225.23091 0 0 0 257.04102 484.06641 L 247.3457 458.62891 L 237.87109 418.18359 L 233.0625 380.42383 L 230.375 354.9668 L 229.95117 321.30859 L 232.35547 291.32812 L 237.44727 254.98242 L 254.55859 191.9082 L 261.62891 172.5332 L 255.54883 174.08984 L 240.98242 180.87695 L 229.59961 190.19922 L 210.59961 208.19922 L 197.40039 229.40039 L 186.40039 252.59961 L 173.40039 269 L 171.40039 253.19922 L 173.59961 229.40039 L 183 202.40039 L 199.40039 178 L 221.04102 153.44141 L 209.02148 155.70508 L 177.05859 162.77539 L 148.06836 171.40234 L 119.92578 183 L 120.63281 180.16992 L 129.82422 165.88672 L 151.17969 147.50195 L 172.95898 135.48242 L 190.07031 129.54102 L 209.02148 127.98633 L 227.6875 128.69336 L 247.76953 128.41016 L 246.49805 125.1582 L 226.69922 105.92383 L 219.62695 97.439453 L 221.4668 90.085938 L 206.75781 94.044922 L 195.86914 95.458984 L 179.46289 88.671875 L 156.12891 81.458984 L 133.07422 77.839844 z " />
  <path
     style="fill:#1b1b1b;fill-opacity:0.12492698;stroke:none;stroke-width:13.374;stroke-opacity:0.415999;paint-order:stroke fill markers"
     d="m 259.36665,490.16617 39.03323,-6.96642 -20,-30.4 -20.4,-88.8 -1.2,-82.4 12.4,-94 8.4,-15.2 25.2,21.6 23.2,28.8 23.2,37.2 1.6,-36 -12.8,-36.8 -18.8,-18.4 -26,-13.6 -4.4,-0.8 20.4,-4.4 29.2,0.8 36.4,10 24.8,10.8 -6.6,-10.2 -22.8,-20 -21.4,-9.6 -29.8,-4 -16.6,1.8 -15,5.4 1.4,-5.2 18.6,-21.8 21.8,-18.800003 21,-11.4 30.2,-8.6 -19.8,0.4 -29.6,6.8 -26.4,9.4 -21.6,13.6 -17.2,15.600003 -36.83882,-38.349628 -24.60732,-12.445079 -23.33452,-2.687006 -19.79899,3.676955 -20.08184,7.071068 -9.33381,5.374012 24.32448,3.818376 23.33452,7.212489 16.40488,6.788226 10.88944,-1.414214 14.70782,-3.959798 -1.83847,7.353911 7.07106,8.485288 19.79899,19.2333 1.2728,3.25269 -20.08184,0.28284 -18.66762,-0.7071 -18.95046,1.55563 -17.11198,5.9397 -21.77889,12.02081 -21.35462,18.38478 -9.19239,14.28356 -0.70711,2.82843 28.14285,-11.59656 28.99138,-8.6267 31.96122,-7.07107 12.02082,-2.26274 -21.64158,24.55783 -16.4,24.4 -9.4,27 -2.2,23.8 2,15.8 13,-16.4 11,-23.2 13.2,-21.2 19,-18 11.38199,-9.32209 14.5664,-6.78822 6.08112,-1.55564 -7.07107,19.37473 -17.11198,63.07393 -5.09117,36.34528 -2.40416,29.98133 0.42426,33.65828 2.68701,25.45585 4.80832,37.7595 9.47523,40.44651 z"
     id="path8-4" />
</svg>
