<?xml version="1.0" encoding="UTF-8" standalone="no"?>
<svg
   width="512"
   height="512"
   fill="none"
   viewBox="0 0 512 512"
   version="1.1"
   id="svg7"
   sodipodi:docname="ps4.svg"
   inkscape:version="1.4.2 (ebf0e940d0, 2025-05-08)"
   inkscape:export-filename="base.svg.2026_01_12_14_43_47.0.svg"
   inkscape:export-xdpi="96"
   inkscape:export-ydpi="96"
   xmlns:inkscape="http://www.inkscape.org/namespaces/inkscape"
   xmlns:sodipodi="http://sodipodi.sourceforge.net/DTD/sodipodi-0.dtd"
   xmlns:xlink="http://www.w3.org/1999/xlink"
   xmlns="http://www.w3.org/2000/svg"
   xmlns:svg="http://www.w3.org/2000/svg">
  <defs
     id="defs7">
    <linearGradient
       id="linearGradient5"
       inkscape:collect="always">
      <stop
         style="stop-color:#003e74;stop-opacity:1;"
         offset="0"
         id="stop4" />
      <stop
         style="stop-color:#2ea8ff;stop-opacity:1;"
         offset="1"
         id="stop5" />
    </linearGradient>
    <linearGradient
       id="linearGradient1"
       inkscape:collect="always">
      <stop
         style="stop-color:#3579ff;stop-opacity:1;"
         offset="0"
         id="stop2" />
      <stop
         style="stop-color:#0b00ff;stop-opacity:1;"
         offset="1"
         id="stop3" />
    </linearGradient>
    <linearGradient
       id="swatch37"
       inkscape:swatch="solid">
      <stop
         style="stop-color:#ffffff;stop-opacity:1;"
         offset="0"
         id="stop37" />
    </linearGradient>
    <linearGradient
       id="swatch28"
       inkscape:swatch="solid">
      <stop
         style="stop-color:#252525;stop-opacity:1;"
         offset="0"
         id="stop28" />
    </linearGradient>
    <linearGradient
       id="swatch27"
       inkscape:swatch="solid">
      <stop
         style="stop-color:#000000;stop-opacity:1;"
         offset="0"
         id="stop27" />
    </linearGradient>
    <linearGradient
       id="swatch15"
       inkscape:swatch="solid">
      <stop
         style="stop-color:#ffffff;stop-opacity:1;"
         offset="0"
         id="stop16" />
    </linearGradient>
    <linearGradient
       id="linearGradient14"
       inkscape:swatch="gradient">
      <stop
         style="stop-color:#ffffff;stop-opacity:1;"
         offset="0"
         id="stop14" />
      <stop
         style="stop-color:#ffffff;stop-opacity:0;"
         offset="1"
         id="stop15" />
    </linearGradient>
    <linearGradient
       id="swatch9"
       inkscape:swatch="solid">
      <stop
         style="stop-color:#ffffff;stop-opacity:1;"
         offset="0"
         id="stop10" />
    </linearGradient>
    <linearGradient
       id="swatch8"
       inkscape:swatch="solid">
      <stop
         style="stop-color:#ffffff;stop-opacity:1;"
         offset="0"
         id="stop9" />
    </linearGradient>
    <rect
       x="22.627417"
       y="402.76802"
       width="521.34025"
       height="248.94868"
       id="rect24" />
    <clipPath
       clipPathUnits="userSpaceOnUse"
       id="clipPath18">
      <circle
         style="opacity:1;mix-blend-mode:normal;fill:none;fill-opacity:1;fill-rule:nonzero;stroke:none;stroke-width:10.8382;stroke-opacity:0.566238;paint-order:stroke fill markers"
         id="circle18"
         cx="-246.8315"
         cy="246.8338"
         inkscape:label="Circle"
         r="191.89999" />
    </clipPath>
    <clipPath
       clipPathUnits="userSpaceOnUse"
       id="clipPath22">
      <circle
         style="opacity:1;mix-blend-mode:normal;fill:none;fill-opacity:1;fill-rule:nonzero;stroke:none;stroke-width:10.8382;stroke-opacity:0.566238;paint-order:stroke fill markers"
         id="circle22"
         cx="256"
         cy="256"
         inkscape:label="Circle"
         r="191.89999" />
    </clipPath>
    <clipPath
       clipPathUnits="userSpaceOnUse"
       id="clipPath128">
      <circle
         style="fill:none;fill-opacity:1;stroke:#03ffff;stroke-width:0;stroke-dasharray:none;stroke-opacity:1"
         id="circle128"
         cx="256"
         cy="256"
         r="192" />
    </clipPath>
    <linearGradient
       inkscape:collect="always"
       xlink:href="#linearGradient1"
       id="linearGradient3"
       x1="256"
       y1="64"
       x2="256"
       y2="448"
       gradientUnits="userSpaceOnUse"
       gradientTransform="matrix(1.1874952,0,0,-1.1874952,-47.370662,560.66391)" />
    <linearGradient
       inkscape:collect="always"
       xlink:href="#linearGradient5"
       id="linearGradient4"
       gradientUnits="userSpaceOnUse"
       gradientTransform="matrix(-1.1874952,0,0,1.1874952,560.61528,-47.345282)"
       x1="256"
       y1="64"
       x2="256"
       y2="448" />
  </defs>
  <sodipodi:namedview
     id="namedview7"
     pagecolor="#ffffff"
     bordercolor="#000000"
     borderopacity="0.25"
     inkscape:showpageshadow="2"
     inkscape:pageopacity="0.0"
     inkscape:pagecheckerboard="0"
     inkscape:deskcolor="#d1d1d1"
     inkscape:zoom="1"
     inkscape:cx="286.49999"
     inkscape:cy="236.99999"
     inkscape:window-width="1600"
     inkscape:window-height="849"
     inkscape:window-x="0"
     inkscape:window-y="27"
     inkscape:window-maximized="1"
     inkscape:current-layer="svg7" />
  <path
     id="path8-7"
     style="display:inline;mix-blend-mode:color;fill:url(#linearGradient3);fill-opacity:1;fill-rule:nonzero;stroke:none;stroke-width:0;stroke-dasharray:none;stroke-opacity:0.566238;paint-order:stroke fill markers"
     inkscape:label="Circle"
     d="m 256.62812,484.66422 a 227.99908,228.00372 0 0 1 -94.5288,-20.52182 c 17.54241,-0.96226 34.77843,-4.71825 46.2868,-10.46733 12.69502,-6.3416 25.70492,-17.24174 35.38366,-26.3736 h 36.45053 c 0.93211,0.61234 1.88758,1.23061 2.86668,1.85086 4.89722,14.18571 13.27668,38.80747 17.49933,51.23264 a 227.99908,228.00372 0 0 1 -43.9582,4.27925 z m 55.26491,-6.80041 -16.39068,-41.47736 c 6.99845,3.71973 14.6813,7.07649 22.62503,9.76921 20.75463,7.03513 39.46594,9.14022 49.31353,9.76688 a 227.99908,228.00372 0 0 1 -55.54788,21.94127 z m 58.6952,-23.72487 c -8.69086,-4.31956 -29.66977,-14.9556 -49.97917,-26.83747 h 87.23219 a 227.99908,228.00372 0 0 1 -37.25302,26.83747 z m -241.49988,-8.48659 a 227.99908,228.00372 0 0 1 -23.67337,-18.35088 h 95.80906 c -1.32304,0.72101 -2.11058,1.13186 -2.11058,1.13186 l 9.37935,10.63433 -34.47214,-6.30174 c 0,-2e-5 -10.96427,4.13624 -36.05858,11.02861 -3.09966,0.85131 -6.06162,1.45425 -8.87374,1.85782 z M 96.054184,418.52496 A 227.99908,228.00372 0 0 1 64.743277,379.80069 h 53.833883 c 16.2593,10.82121 36.03109,20.56336 55.93056,22.04797 47.50893,3.54468 62.979,-1.67459 62.979,-1.67459 0,0 -4.13964,4.3321 -13.0323,12.01204 -2.4447,2.11135 -5.46123,4.28998 -8.54904,6.33885 z m 156.603246,0 c 4.10483,-4.24043 6.54978,-7.04162 6.54978,-7.04162 0,0 3.17296,2.8621 8.63949,7.04162 z m 54.10293,0 c -19.35695,-13.88741 -22.86161,-25.14433 -22.86161,-25.14433 0,0 49.2172,17.2685 90.39112,0.28064 10.4477,-4.31055 19.37408,-9.1049 26.88099,-13.86058 h 47.3421 a 227.99908,228.00372 0 0 1 -31.31091,38.72427 z M 59.385631,371.02418 A 227.99908,228.00372 0 0 1 41.543041,332.29992 H 159.20017 c 1.30773,2.3199 2.75142,4.57103 4.34409,6.73083 12.77878,17.32895 25.06121,26.96783 33.0852,31.99343 h -27.15468 c -5.2719,-0.84 -10.81534,-1.78919 -16.40924,-2.84819 -27.04349,-5.11994 -72.845405,-20.48007 -72.845405,-20.48007 0,0 10.296355,11.13669 26.131855,23.32826 z m 238.424449,0 c 30.05703,-10.10404 47.05829,-24.07021 56.34572,-38.72426 h 117.55739 a 227.99908,228.00372 0 0 1 -17.84258,38.72426 h -40.22176 c 13.33114,-10.41219 19.38725,-18.85882 19.38725,-18.85882 0,0 -30.08919,11.11726 -59.29823,18.85882 z m -41.2585,-14.62133 c -0.90134,-0.01 -9.08983,-0.64727 -40.38179,-18.55498 -2.80164,-1.60327 -5.61377,-3.47048 -8.41452,-5.54795 h 37.53597 c 6.43727,15.58979 11.34615,24.10293 11.34615,24.10293 0,0 -0.0258,6.4e-4 -0.0858,0 z m 12.72847,-0.0418 c 0,0 -2.97304,-8.3824 -6.55675,-24.06118 h 46.48163 c -24.16151,23.08045 -39.92488,24.06123 -39.92488,24.06123 z M 38.653164,323.52341 a 227.99908,228.00372 0 0 1 -8.28,-38.72426 H 147.25331 c 0.50409,11.4347 2.40394,25.61361 7.73264,38.72426 z m 158.567726,0 c -12.80955,-11.77756 -24.77977,-26.58932 -33.71374,-38.72426 h 65.85729 c 4.01234,15.08912 8.39298,28.09557 12.44549,38.72426 z m 63.60057,0 c -2.16662,-10.57203 -4.40101,-23.55135 -6.23667,-38.72426 h 95.8253 c -7.46906,9.7857 -18.55287,23.51811 -32.62829,38.72426 z m 97.99155,0 c 5.95644,-13.69644 6.2152,-27.44278 5.00743,-38.72426 h 119.06262 a 227.99908,228.00372 0 0 1 -8.28,38.72426 z M 29.452392,276.02264 A 227.99908,228.00372 0 0 1 28.62903,256.6605 227.99908,228.00372 0 0 1 29.452392,237.29836 H 219.64878 c 2.02639,13.95226 4.61647,26.90106 7.48446,38.72428 H 157.2241 c -5.80191,-8.33616 -9.27267,-13.98815 -9.27267,-13.98815 0,0 -0.7416,5.5263 -0.8396,13.98815 z m 224.144368,0 c -1.22897,-11.76966 -2.19512,-24.70616 -2.7113,-38.72428 h 232.91837 a 227.99908,228.00372 0 0 1 0.82337,19.36214 227.99908,228.00372 0 0 1 -0.82337,19.36214 H 362.56568 c -0.39943,-2.2888 -0.8157,-4.40137 -1.19214,-6.30638 0,0 -1.52342,2.281 -4.43454,6.30638 z M 30.373164,228.52186 a 227.99908,228.00372 0 0 1 8.28,-38.72427 H 218.96921 c -1.16001,13.8461 -1.41371,26.99937 -0.37573,38.72427 z m 220.252536,0 c -0.27246,-12.17105 -0.19776,-25.09608 0.33166,-38.72427 h 223.6457 a 227.99908,228.00372 0 0 1 8.28,38.72427 z M 41.540725,181.02109 a 227.99908,228.00372 0 0 1 17.84259,-38.72427 H 225.63264 c -2.42151,12.98777 -4.45297,26.07281 -5.81919,38.72427 z m 209.892105,0 c 1.03997,-13.90922 3.42234,-26.81596 6.74692,-38.72427 h 195.69317 a 227.99908,228.00372 0 0 1 17.84258,38.72427 z M 64.740961,133.52032 A 227.99908,228.00372 0 0 1 96.051856,94.796041 H 236.06961 c -3.05987,12.287259 -6.07477,25.390049 -8.74155,38.724279 z m 196.112969,0 c 4.80192,-14.52175 10.96848,-27.42708 17.67095,-38.724279 h 138.6795 a 227.99908,228.00372 0 0 1 31.3109,38.724279 z M 105.41267,86.019537 A 227.99908,228.00372 0 0 1 254.61726,28.666053 c -3.30134,10.858112 -9.7429,31.901037 -16.31878,57.353484 z m 178.62756,0 C 299.82749,62.260898 317.24402,46.83239 326.52798,39.636692 a 227.99908,228.00372 0 0 1 81.31559,46.382845 z" />
  <path
     id="path8-7-2"
     style="display:inline;mix-blend-mode:color;fill:url(#linearGradient4);fill-opacity:1;fill-rule:nonzero;stroke:none;stroke-width:0;stroke-dasharray:none;stroke-opacity:0.566238;paint-order:stroke fill markers"
     inkscape:label="Circle"
     d="m 256.61651,28.654412 a 227.99908,228.00372 0 0 1 94.5288,20.521817 C 333.6029,50.138492 316.36688,53.89448 304.85851,59.64356 292.1635,65.985164 279.15359,76.8853 269.47486,86.017162 h -36.45054 c -0.93211,-0.612343 -1.88758,-1.230613 -2.86668,-1.850865 -4.89722,-14.18571 -13.27667,-38.807461 -17.49932,-51.232639 a 227.99908,228.00372 0 0 1 43.95819,-4.279246 z m -55.26491,6.800405 16.39068,41.477366 c -6.99844,-3.719734 -14.6813,-7.076497 -22.62503,-9.769213 -20.75463,-7.035126 -39.46594,-9.140222 -49.31352,-9.766875 A 227.99908,228.00372 0 0 1 201.3516,35.454817 Z m -58.6952,23.724872 c 8.69086,4.319561 29.66977,14.955598 49.97917,26.837473 H 105.40338 A 227.99908,228.00372 0 0 1 142.6564,59.179689 Z m 241.49988,8.486589 a 227.99908,228.00372 0 0 1 23.67337,18.350884 h -95.80906 c 1.32305,-0.721011 2.11058,-1.131861 2.11058,-1.131861 l -9.37935,-10.634328 34.47215,6.30174 c 0,1.2e-5 10.96426,-4.136248 36.05857,-11.028611 3.09966,-0.851315 6.06162,-1.454254 8.87374,-1.857824 z m 33.03417,27.127388 a 227.99908,228.00372 0 0 1 31.31091,38.724274 h -53.83388 c -16.25931,-10.82121 -36.0311,-20.56336 -55.93057,-22.04797 -47.50892,-3.54468 -62.97899,1.67459 -62.97899,1.67459 0,0 4.13963,-4.3321 13.03229,-12.01204 2.4447,-2.111347 5.46123,-4.289985 8.54904,-6.338854 z m -156.60325,0 c -4.10482,4.240439 -6.54978,7.041624 -6.54978,7.041624 0,0 -3.17295,-2.862104 -8.63949,-7.041624 z m -54.10293,0 c 19.35695,13.887414 22.86161,25.144334 22.86161,25.144334 0,0 -49.2172,-17.2685 -90.39112,-0.28064 -10.4477,4.31055 -19.37408,9.1049 -26.88099,13.86058 H 64.73166 A 227.99908,228.00372 0 0 1 96.042582,94.793666 Z m 247.37474,47.500784 a 227.99908,228.00372 0 0 1 17.84257,38.72426 H 354.04446 c -1.30773,-2.3199 -2.75142,-4.57103 -4.34409,-6.73083 -12.77878,-17.32895 -25.06121,-26.96783 -33.0852,-31.99343 h 27.15468 c 5.2719,0.84 10.81534,1.78919 16.40924,2.84819 27.04349,5.11994 72.84541,20.48007 72.84541,20.48007 0,0 -10.29636,-11.13669 -26.13186,-23.32826 z m -238.42446,0 c -30.05702,10.10404 -47.05829,24.07021 -56.34572,38.72426 H 41.531435 a 227.99908,228.00372 0 0 1 17.842579,-38.72426 h 40.221767 c -13.331141,10.41219 -19.387248,18.85882 -19.387248,18.85882 0,0 30.089197,-11.11726 59.298227,-18.85882 z m 41.2585,14.62133 c 0.90134,0.009 9.08984,0.64727 40.38179,18.55498 2.80164,1.60327 5.61377,3.47048 8.41452,5.54795 h -37.53597 c -6.43727,-15.58979 -11.34615,-24.10293 -11.34615,-24.10293 0,0 0.0258,-6.4e-4 0.0859,0 z m -12.72847,0.0418 c 0,0 2.97304,8.3824 6.55675,24.06118 H 204.0397 c 24.16152,-23.08045 39.92488,-24.06123 39.92488,-24.06123 z m 230.62688,32.83764 a 227.99908,228.00372 0 0 1 8.28,38.72426 H 365.99132 c -0.50409,-11.4347 -2.40394,-25.61361 -7.73264,-38.72426 z m -158.56772,0 c 12.80955,11.77756 24.77977,26.58932 33.71374,38.72426 h -65.85729 c -4.01234,-15.08912 -8.39298,-28.09557 -12.44549,-38.72426 z m -63.60057,0 c 2.16662,10.57203 4.40101,23.55135 6.23667,38.72426 h -95.8253 c 7.46906,-9.7857 18.55287,-23.51811 32.62829,-38.72426 z m -97.99154,0 c -5.95644,13.69644 -6.21521,27.44278 -5.00743,38.72426 H 30.361558 a 227.99908,228.00372 0 0 1 8.280001,-38.72426 z m 329.3606,47.50077 a 227.99908,228.00372 0 0 1 0.82336,19.36214 227.99908,228.00372 0 0 1 -0.82336,19.36214 H 293.59585 c -2.02639,-13.95226 -4.61647,-26.90106 -7.48446,-38.72428 h 69.90914 c 5.80191,8.33616 9.27267,13.98815 9.27267,13.98815 0,0 0.74161,-5.5263 0.8396,-13.98815 z m -224.14436,0 c 1.22897,11.76966 2.19512,24.70616 2.7113,38.72428 H 29.440786 a 227.99908,228.00372 0 0 1 -0.823361,-19.36214 227.99908,228.00372 0 0 1 0.823361,-19.36214 H 150.67895 c 0.39943,2.2888 0.8157,4.40137 1.19214,6.30638 0,0 1.52343,-2.281 4.43455,-6.30638 z m 223.22359,47.50078 a 227.99908,228.00372 0 0 1 -8.28,38.72427 H 294.27542 c 1.16002,-13.8461 1.41371,-26.99937 0.37574,-38.72427 z m -220.25252,0 c 0.27245,12.17105 0.19775,25.09608 -0.33167,38.72427 H 38.641559 a 227.99908,228.00372 0 0 1 -8.280001,-38.72427 z m 209.08496,47.50077 a 227.99908,228.00372 0 0 1 -17.84258,38.72427 H 287.61199 c 2.42151,-12.98777 4.45297,-26.07281 5.81919,-38.72427 z m -209.89209,0 c -1.03998,13.90921 -3.42235,26.81596 -6.74692,38.72427 H 59.371698 A 227.99908,228.00372 0 0 1 41.52912,332.29754 Z m 186.69187,47.50077 a 227.99908,228.00372 0 0 1 -31.3109,38.72428 H 277.17503 c 3.05986,-12.28726 6.07476,-25.39005 8.74154,-38.72428 z m -196.11297,0 c -4.80193,14.52175 -10.96849,27.42708 -17.67095,38.72428 H 96.040255 A 227.99908,228.00372 0 0 1 64.729344,379.79831 Z m 155.44125,47.50078 a 227.99908,228.00372 0 0 1 -149.20459,57.35348 c 3.30135,-10.85811 9.7429,-31.90104 16.31879,-57.35348 z m -178.62756,0 c -15.78726,23.75863 -33.20379,39.18714 -42.48775,46.38284 a 227.99908,228.00372 0 0 1 -81.31558,-46.38284 z" />
  <ellipse
     style="fill:none;fill-opacity:0.679924;stroke:#97f0e5;stroke-width:17.5749;stroke-dasharray:none;stroke-opacity:1"
     id="path192"
     cx="88.20919"
     cy="216.80666"
     rx="43.306744"
     ry="42.75507" />
  <path
     style="fill:none;fill-opacity:0.679924;stroke:#97f0e5;stroke-width:17.5749;stroke-dasharray:none;stroke-opacity:1"
     d="M 211.35225,346.71976 151.38374,303.96994 137.1338,384.12586 Z"
     id="path195" />
  <path
     id="path196-7"
     style="fill:none;fill-opacity:0.679924;stroke:#97f0e5;stroke-width:17.5749;stroke-dasharray:none;stroke-opacity:1"
     d="m 309.50171,362.30735 86.0678,57.93833 m -75.48269,11.93227 57.93833,-86.0678" />
  <rect
     style="fill:none;fill-opacity:0.679924;stroke:#97f0e5;stroke-width:13.9781;stroke-dasharray:none;stroke-opacity:1"
     id="rect197"
     width="66.112526"
     height="59.501274"
     x="93.831078"
     y="-503.61469"
     transform="rotate(108)" />
</svg>
