<?xml version="1.0" encoding="UTF-8" standalone="no"?>
<svg
   width="512"
   height="512"
   fill="none"
   viewBox="0 0 512 512"
   version="1.1"
   id="svg7"
   sodipodi:docname="valentines2025.svg"
   inkscape:version="1.4.2 (ebf0e940d0, 2025-05-08)"
   xml:space="preserve"
   xmlns:inkscape="http://www.inkscape.org/namespaces/inkscape"
   xmlns:sodipodi="http://sodipodi.sourceforge.net/DTD/sodipodi-0.dtd"
   xmlns:xlink="http://www.w3.org/1999/xlink"
   xmlns="http://www.w3.org/2000/svg"
   xmlns:svg="http://www.w3.org/2000/svg"
   xmlns:rdf="http://www.w3.org/1999/02/22-rdf-syntax-ns#"
   xmlns:cc="http://creativecommons.org/ns#"
   xmlns:dc="http://purl.org/dc/elements/1.1/">
  <metadata
   id="metadata1">
    <rdf:RDF>
      <cc:Work
   rdf:about="">
        
        <dc:creator>
          <cc:Agent>
            <dc:title>Madeline_Dev</dc:title>
            <dc:identifier>mailto:madelvidel@gmail.com</dc:identifier>
          </cc:Agent>
        </dc:creator>
        <dc:date>2025</dc:date>
        <dc:license
   rdf:resource="https://www.gnu.org/licenses/gpl-3.0.html" />
        <dc:rights>2025 Eden Emulator Project</dc:rights>
        <dc:source>https://git.eden-emu.dev</dc:source>
      </cc:Work>
    </rdf:RDF>
  </metadata>
  <defs
   id="defs7"><linearGradient
     id="swatch14"
     inkscape:swatch="solid"><stop
       style="stop-color:#66003b;stop-opacity:1;"
       offset="0"
       id="stop14" /></linearGradient><linearGradient
     id="linearGradient1"
     inkscape:collect="always"><stop
       style="stop-color:#ff41d0;stop-opacity:1;"
       offset="0"
       id="stop1" /><stop
       style="stop-color:#54003b;stop-opacity:0;"
       offset="1"
       id="stop2" /></linearGradient><linearGradient
     id="linearGradient11"
     inkscape:collect="always"><stop
       style="stop-color:#ff5a8e;stop-opacity:1;"
       offset="0"
       id="stop11" /><stop
       style="stop-color:#ff41d0;stop-opacity:1;"
       offset="0.99898213"
       id="stop20" /><stop
       style="stop-color:#ff41d0;stop-opacity:1;"
       offset="0.99898213"
       id="stop12" /></linearGradient><linearGradient
     inkscape:collect="always"
     xlink:href="#linearGradient11"
     id="linearGradient12"
     x1="109.74531"
     y1="106.54533"
     x2="431.05463"
     y2="427.85461"
     gradientUnits="userSpaceOnUse"
     spreadMethod="reflect"
     gradientTransform="matrix(1.0945321,0,0,1.0945321,-39.661525,-35.159057)" /><linearGradient
     inkscape:collect="always"
     xlink:href="#linearGradient1"
     id="linearGradient2"
     x1="125.40197"
     y1="271.834"
     x2="431.02424"
     y2="271.834"
     gradientUnits="userSpaceOnUse"
     gradientTransform="matrix(1.0964243,0,0,1.0253208,-40.187969,-20.060025)" /><filter
     inkscape:label="Light Contour"
     inkscape:menu="Image Paint and Draw"
     inkscape:menu-tooltip="Uses vertical specular light to draw lines"
     style="color-interpolation-filters:sRGB"
     id="filter11"
     x="-0.01907517"
     y="-0.054959154"
     width="1.0379885"
     height="1.1092314"><feGaussianBlur
       in="SourceGraphic"
       stdDeviation="0.38250006"
       result="result3"
       id="feGaussianBlur9" /><feComponentTransfer
       result="result1"
       in="result3"
       id="feComponentTransfer9"><feFuncR
         type="discrete"
         tableValues="0 0.1 0.2 0.3 0.4 0.5 0.6 0.7 0.8 0.9 1"
         id="feFuncR9" /><feFuncG
         type="discrete"
         tableValues="0 0.1 0.2 0.3 0.4 0.5 0.6 0.7 0.8 0.9 1"
         id="feFuncG9" /><feFuncB
         type="discrete"
         tableValues="0 0.1 0.2 0.3 0.4 0.5 0.6 0.7 0.8 0.9 1"
         id="feFuncB9" /></feComponentTransfer><feGaussianBlur
       result="result5"
       stdDeviation="0.01"
       id="feGaussianBlur10" /><feBlend
       in2="result5"
       result="result6"
       mode="lighten"
       in="result5"
       id="feBlend10" /><feColorMatrix
       in="result6"
       type="luminanceToAlpha"
       result="result2"
       id="feColorMatrix10" /><feSpecularLighting
       surfaceScale="5"
       result="result9"
       specularExponent="20"
       in="result2"
       specularConstant="1"
       id="feSpecularLighting10"><feDistantLight
         azimuth="180"
         elevation="90"
         id="feDistantLight10" /></feSpecularLighting><feComposite
       in2="result6"
       operator="arithmetic"
       in="result9"
       k1="0.4"
       k3="0.7"
       result="result3"
       id="feComposite10"
       k2="0"
       k4="0" /><feBlend
       in2="result1"
       in="result3"
       mode="normal"
       result="result8"
       id="feBlend11" /><feComposite
       in2="SourceGraphic"
       in="result8"
       operator="in"
       result="result7"
       id="feComposite11" /></filter></defs><sodipodi:namedview
   id="namedview7"
   pagecolor="#ffffff"
   bordercolor="#000000"
   borderopacity="0.25"
   inkscape:showpageshadow="2"
   inkscape:pageopacity="0.0"
   inkscape:pagecheckerboard="0"
   inkscape:deskcolor="#d1d1d1"
   inkscape:zoom="1.2"
   inkscape:cx="214.58333"
   inkscape:cy="250.83333"
   inkscape:window-width="1600"
   inkscape:window-height="849"
   inkscape:window-x="0"
   inkscape:window-y="27"
   inkscape:window-maximized="1"
   inkscape:current-layer="svg7"
   showguides="false" /><circle
   style="fill:url(#linearGradient12);fill-opacity:1;stroke:#ffc9ed;stroke-width:14.0448;stroke-opacity:1;paint-order:stroke fill markers"
   id="path8"
   cx="256.2999"
   cy="257.2999"
   r="248.67769" /><path
   id="path15"
   style="fill:url(#linearGradient2);fill-opacity:1;stroke:#ffc9ed;stroke-width:16.9642;stroke-linejoin:round;stroke-dasharray:none;stroke-dashoffset:0;stroke-opacity:1;paint-order:stroke fill markers"
   d="m 306.72111,24.233031 c 0,0 -11.98397,40.08696 -18.0546,60.431848 -12.96613,9.503601 -21.49377,18.397701 -21.49377,18.397701 0,0 -23.41313,-31.029398 -45.74145,-43.934598 -22.32833,-12.905201 -52.42065,-11.242483 -52.42065,-11.242483 0,0 -12.50052,4e-4 -27.63117,5.537132 -15.13066,5.536732 -21.27107,9.227888 -21.27107,9.227888 0,0 15.35165,-0.410529 37.93799,6.766716 22.58635,7.177243 32.45374,11.484796 32.45374,11.484796 l 31.02752,-6.562453 -8.44161,11.074275 c 0,0 14.80259,8.920284 22.80648,16.917787 8.0039,7.9975 11.73088,12.50812 11.73088,12.50812 0,0 -13.92373,-5.43341 -56.68427,-1.74226 -42.76055,3.69116 -84.86368,56.39265 -84.86368,56.39265 0,0 41.22428,-15.9958 65.5649,-21.32747 24.34062,-5.33166 47.58524,-7.9983 47.58524,-7.9983 0,0 -18.41865,7.3827 -38.15428,38.3474 -19.73564,30.96468 -14.0351,80.18128 -14.0351,80.18128 0,0 31.35774,-59.05848 61.39977,-78.94969 30.04203,-19.89124 36.182,-20.50642 36.182,-20.50642 0,0 -24.1209,48.39514 -33.55015,126.11445 -9.42924,77.71931 30.26089,207.72959 30.26089,207.72959 l 47.80367,-6.97298 c 0,0 -45.61041,-42.24281 -49.55753,-151.33695 -3.94713,-109.09413 16.66479,-174.30453 16.66479,-174.30453 0,0 17.10508,1.23039 42.54213,32.81027 25.43704,31.57987 40.34713,57.41795 40.34713,57.41795 0,0 9.65024,-51.26683 -11.4011,-74.64415 -21.05135,-23.3773 -53.50637,-33.62931 -53.50637,-33.62931 0,0 13.70573,-6.66419 42.10313,-4.71609 28.39738,1.94813 87.30278,27.12897 87.30278,27.12896 0,0 -15.8158,-25.5214 -52.87463,-43.21167 -37.05881,-17.69028 -81.35597,0.29238 -81.35597,0.29238 0,0 4.13589,-15.37277 29.10021,-32.628037 24.96432,-17.25527 56.907,-34.36427 56.907,-34.36427 0,0 -26.3595,1.160335 -55.20025,12.035504 -7.176,2.7059 -14.064,6.299542 -20.36309,10.173104 l 17.40574,-51.051762 z" /><path
   id="path4-2-6"
   style="fill:#ee00ee;fill-opacity:0.514072;stroke:#ffffff;stroke-width:7.59094;stroke-dasharray:none;stroke-opacity:0.512475"
   d="m 107.089,402.7626 a 23.721664,23.721664 0 0 0 -6.06043,32.99553 23.721664,23.721664 0 0 0 4.81808,5.14189 c 6.09869,5.46983 18.38456,13.73855 39.07987,16.72706 32.00031,4.62099 35.52536,9.72867 35.52597,9.72956 -3.8e-4,-5.6e-4 -3.52208,-5.11089 3.53,-36.66468 4.56084,-20.4065 1.19772,-34.82884 -1.74786,-42.47322 a 23.721664,23.721664 0 0 0 -3.09411,-6.33083 23.721664,23.721664 0 0 0 -32.99555,-6.06044 23.721664,23.721664 0 0 0 -6.06043,32.99555 23.721664,23.721664 0 0 0 -32.99554,-6.06042 z" /><path
   id="path4-2-6-1"
   style="fill:#f60057;fill-opacity:0.5117;stroke:#ffffff;stroke-width:7.59094;stroke-dasharray:none;stroke-opacity:0.519962"
   d="m 378.48433,350.63967 a 23.721664,23.721664 0 0 0 -31.24824,12.20584 23.721664,23.721664 0 0 0 -1.83781,6.80261 c -1.44293,8.06418 -2.01086,22.86255 6.33596,42.03434 12.90632,29.64456 10.41733,35.32955 10.41689,35.33055 2.7e-4,-6.3e-4 2.49329,-5.68417 33.03718,-16.28816 19.75343,-6.85774 30.24891,-17.30567 35.20002,-23.8325 a 23.721664,23.721664 0 0 0 3.75591,-5.96206 23.721664,23.721664 0 0 0 -12.20584,-31.24823 23.721664,23.721664 0 0 0 -31.24823,12.20585 23.721664,23.721664 0 0 0 -12.20584,-31.24824 z" /><path
   id="path4-2-6-1-4"
   style="fill:none;fill-opacity:1;stroke:#f60057;stroke-width:4.92625;stroke-dasharray:none;stroke-opacity:0.5"
   d="m 67.549784,193.67616 a 15.394519,15.394519 0 0 0 -21.63925,-2.39268 15.394519,15.394519 0 0 0 -3.104916,3.35724 c -3.25781,4.20139 -8.040401,12.53758 -9.015064,26.07236 -1.507099,20.92828 -4.649826,23.44694 -4.650382,23.44739 3.43e-4,-2.9e-4 3.144953,-2.51691 23.896948,0.58454 13.420759,2.00584 22.600436,-0.83999 27.412086,-3.10122 a 15.394519,15.394519 0 0 0 3.954479,-2.29645 15.394519,15.394519 0 0 0 2.392691,-21.63925 15.394519,15.394519 0 0 0 -21.639283,-2.39268 15.394519,15.394519 0 0 0 2.392691,-21.63925 z" /><path
   id="path4-2-6-1-4-2"
   style="fill:none;fill-opacity:1;stroke:#ff7ac1;stroke-width:2.9143;stroke-dasharray:none;stroke-opacity:1"
   d="m 178.66906,291.11937 a 9.1071841,9.1071841 0 0 0 -8.40467,9.75925 9.1071841,9.1071841 0 0 0 0.59984,2.63794 c 0.96062,2.99486 3.42899,8.11664 9.7077,13.11887 9.70849,7.73475 9.88648,10.11067 9.88651,10.1111 -2e-5,-2.7e-4 -0.17639,-2.37644 8.27742,-11.46568 5.46728,-5.8782 7.14864,-11.30944 7.65444,-14.41366 a 9.1071841,9.1071841 0 0 0 0.20194,-2.69773 9.1071841,9.1071841 0 0 0 -9.75925,-8.40468 9.1071841,9.1071841 0 0 0 -8.40469,9.75927 9.1071841,9.1071841 0 0 0 -9.75925,-8.40467 z" /><path
   id="path4-2-6-1-4-2-0"
   style="fill:none;fill-opacity:1;stroke:#f60057;stroke-width:5.47174;stroke-dasharray:none;stroke-opacity:0.5"
   d="m 98.71999,290.92149 a 17.099188,17.099188 0 0 0 -20.007346,13.58197 17.099188,17.099188 0 0 0 -0.202412,5.07528 c 0.277113,5.89867 2.247501,16.39014 11.183601,28.52788 13.817507,18.76813 12.978497,23.16215 12.978347,23.16295 1e-4,-5.1e-4 0.84217,-4.39418 20.61102,-16.73756 12.78494,-7.9827 18.48837,-17.00623 20.92302,-22.38616 a 17.099188,17.099188 0 0 0 1.68508,-4.79164 17.099188,17.099188 0 0 0 -13.58198,-20.00735 17.099188,17.099188 0 0 0 -20.00738,13.58199 17.099188,17.099188 0 0 0 -13.581972,-20.00734 z" /><path
   id="path4-2-6-1-4-2-0-2"
   style="fill:none;fill-opacity:1;stroke:#f60057;stroke-width:5.47174;stroke-dasharray:none;stroke-opacity:0.5"
   d="m 309.53451,276.78645 a 17.099188,17.099188 0 0 0 -12.06619,20.9564 17.099188,17.099188 0 0 0 2.03457,4.65403 c 2.82557,5.18529 9.1803,13.76262 22.52027,20.7786 20.62705,10.84855 21.79141,15.16776 21.79162,15.16855 -1.3e-4,-5.1e-4 -1.16159,-4.32074 11.23103,-24.05876 8.01458,-12.76498 9.20419,-23.37337 9.04463,-29.2764 a 17.099188,17.099188 0 0 0 -0.5769,-5.04644 17.099188,17.099188 0 0 0 -20.95642,-12.06619 17.099188,17.099188 0 0 0 -12.06622,20.95644 17.099188,17.099188 0 0 0 -20.95639,-12.0662 z" /><path
   id="path4-2-6-1-4-3"
   style="fill:none;fill-opacity:1;stroke:#f60057;stroke-width:4.92625;stroke-dasharray:none;stroke-opacity:0.5"
   d="m 437.9269,212.74462 a 15.394519,15.394519 0 0 0 -7.74211,20.34802 15.394519,15.394519 0 0 0 2.47147,3.84753 c 3.2503,4.20719 10.12099,10.92723 22.97901,15.26449 19.88181,6.70653 21.532,10.38041 21.53229,10.38104 -1.8e-4,-4e-4 -1.64793,-3.67558 6.55784,-22.98697 5.3069,-12.48906 4.8537,-22.08905 3.87119,-27.31396 a 15.394519,15.394519 0 0 0 -1.23153,-4.40397 15.394519,15.394519 0 0 0 -20.34803,-7.74211 15.394519,15.394519 0 0 0 -7.74211,20.34803 15.394519,15.394519 0 0 0 -20.34802,-7.7421 z" /></svg>
